<svg width="24" height="24" viewBox="0 0 24 24" fill="none" xmlns="http://www.w3.org/2000/svg">
<path d="M13.4058 0C14.3604 2.20414e-05 15.2766 0.379667 15.9517 1.05469L20.5454 5.64844C21.2205 6.32356 21.6001 7.23958 21.6001 8.19434V19.2002C21.5999 21.851 19.4501 24 16.7993 24H7.19971C4.54909 23.9998 2.40011 21.8508 2.3999 19.2002V4.7998C2.39998 2.14907 4.54901 0.000224489 7.19971 0H13.4058ZM7.19971 2.40039C5.87448 2.40061 4.80037 3.47454 4.80029 4.7998V19.2002C4.8005 20.5253 5.87456 21.5994 7.19971 21.5996H16.7993C18.1247 21.5996 19.1995 20.5255 19.1997 19.2002V9.59961H17.9995C14.686 9.59938 11.9995 6.91314 11.9995 3.59961V2.40039H7.19971ZM12.3618 10C14.2596 10 15.0632 11.3419 15.1792 12.4873C15.2206 12.9289 14.8896 13.3378 14.4341 13.3789C13.9866 13.4198 13.5722 13.0926 13.5308 12.6426C13.4893 12.1762 13.2486 11.6279 12.3618 11.6279C11.9145 11.6279 11.5999 11.7509 11.4341 11.9961C11.1937 12.3397 11.202 12.954 11.4341 13.6494H13.0913C13.5469 13.6495 13.9192 14.017 13.9194 14.4668C13.9194 14.9167 13.547 15.285 13.0913 15.2852H11.8062C11.831 15.8496 11.7486 16.3732 11.5581 16.8477C11.8978 16.8722 12.2624 16.9463 12.6353 17.0771C12.975 17.1999 13.7047 17.2164 14.3843 17.0527C14.7571 16.9629 15.1385 17.1594 15.3042 17.5029H15.3208C15.5442 17.9692 15.2788 18.5258 14.7651 18.6484C13.8701 18.8611 12.8503 18.8848 12.0962 18.623C11.0936 18.2797 10.265 18.6157 9.94189 18.7793C9.87572 18.8201 9.80105 18.8605 9.73486 18.9014C9.6107 18.9667 9.46986 18.9999 9.3374 19C9.05563 19 8.78978 18.8607 8.63232 18.6152C8.40036 18.2471 8.50013 17.7562 8.86475 17.5107C8.87326 17.4943 8.95607 17.4455 9.08838 17.3721C9.70993 16.9712 10.2401 16.2506 10.1655 15.2852H9.229C8.77328 15.2851 8.40088 14.9167 8.40088 14.4668C8.40106 14.017 8.77339 13.6495 9.229 13.6494H9.71826C9.48624 12.6432 9.60197 11.751 10.0659 11.0801C10.5466 10.3846 11.359 10 12.3618 10ZM14.3999 3.59961C14.3999 5.58767 16.0115 7.19997 17.9995 7.2002H18.7026L14.3999 2.89648V3.59961Z" fill="#C6C6C6"/>
</svg>
