<svg width="24" height="24" viewBox="0 0 24 24" fill="none" xmlns="http://www.w3.org/2000/svg">
<path fill-rule="evenodd" clip-rule="evenodd" d="M11.6612 2.51377C11.8826 2.45051 12.1174 2.45051 12.3388 2.51377L18.5046 4.27543C19.034 4.42669 19.399 4.91056 19.399 5.46115V12.0887C19.399 14.8765 18.0527 17.4926 15.7842 19.113L12.7168 21.304C12.288 21.6102 11.712 21.6102 11.2832 21.304L8.21584 19.113C5.94735 17.4926 4.60103 14.8765 4.60103 12.0887V5.46115C4.60103 4.91056 4.96602 4.42669 5.49542 4.27543L11.6612 2.51377ZM13.0163 0.142342C12.3521 -0.0474473 11.6479 -0.0474471 10.9837 0.142342L4.81786 1.904C3.22967 2.35777 2.1347 3.8094 2.1347 5.46115V12.0887C2.1347 15.673 3.86568 19.0366 6.78232 21.1199L9.84972 23.3109C11.136 24.2297 12.864 24.2297 14.1503 23.3109L17.2177 21.1199C20.1343 19.0366 21.8653 15.673 21.8653 12.0887V5.46115C21.8653 3.8094 20.7703 2.35777 19.1821 1.904L13.0163 0.142342ZM16.5991 9.37686C17.0649 8.88 17.0398 8.09961 16.5429 7.63381C16.046 7.16801 15.2657 7.19318 14.7999 7.69004L10.9591 11.7869L9.07559 10.2648C8.54587 9.83678 7.76943 9.9192 7.34138 10.4489C6.91332 10.9786 6.99573 11.7551 7.52545 12.1831L10.3001 14.4252C10.8025 14.8312 11.533 14.7807 11.9748 14.3095L16.5991 9.37686Z" fill="#C6C6C6"/>
</svg>
