<svg width="24" height="24" viewBox="0 0 24 24" fill="none" xmlns="http://www.w3.org/2000/svg">
<path fill-rule="evenodd" clip-rule="evenodd" d="M6.71879 4.61493C8.13076 3.18901 10.0319 2.40002 12 2.40002C13.9681 2.40002 15.8692 3.18901 17.2812 4.61493C18.6952 6.04292 19.5 7.99209 19.5 10.0365C19.5 13.0129 17.5796 15.9184 15.4462 18.1926C14.4014 19.3063 13.3528 20.2185 12.5645 20.8524C12.3557 21.0203 12.1659 21.1682 12 21.2945C11.8341 21.1682 11.6443 21.0203 11.4355 20.8524C10.6472 20.2185 9.59862 19.3063 8.55385 18.1926C6.4204 15.9184 4.5 13.0129 4.5 10.0365C4.5 7.99209 5.30477 6.04292 6.71879 4.61493ZM11.2816 23.7823C11.282 23.7825 11.2823 23.7827 12 22.8002L12.7177 23.7827C12.2869 24.0727 11.7124 24.0723 11.2816 23.7823ZM11.2816 23.7823L12 22.8002C12.7177 23.7827 12.7189 23.7819 12.7192 23.7817L12.7215 23.7801L12.7285 23.7754L12.7518 23.7595C12.7714 23.746 12.7991 23.7269 12.8343 23.7023C12.9048 23.653 13.0055 23.5815 13.1322 23.4892C13.3853 23.3045 13.7428 23.0357 14.1699 22.6923C15.0222 22.0069 16.1611 21.0168 17.3038 19.7987C19.5454 17.4092 22 13.9328 22 10.0365C22 7.39368 20.961 4.84768 19.0932 2.96136C17.2232 1.07297 14.6732 0 12 0C9.32682 0 6.77676 1.07297 4.90685 2.96136C3.03898 4.84768 2 7.39368 2 10.0365C2 13.9328 4.4546 17.4092 6.69615 19.7987C7.83888 21.0168 8.97784 22.0069 9.83014 22.6923C10.2572 23.0357 10.6147 23.3045 10.8678 23.4892C10.9945 23.5815 11.0952 23.653 11.1657 23.7023C11.2009 23.7269 11.2286 23.746 11.2482 23.7595L11.2715 23.7754L11.2785 23.7801L11.2816 23.7823ZM9.5 9.5C9.5 8.25736 10.6193 7.25 12 7.25C13.3807 7.25 14.5 8.25736 14.5 9.5C14.5 10.7426 13.3807 11.75 12 11.75C10.6193 11.75 9.5 10.7426 9.5 9.5ZM12 5C9.23858 5 7 7.01472 7 9.5C7 11.9853 9.23858 14 12 14C14.7614 14 17 11.9853 17 9.5C17 7.01472 14.7614 5 12 5Z" fill="#C6C6C6"/>
</svg>
