<svg width="16" height="16" viewBox="0 0 16 16" fill="none" xmlns="http://www.w3.org/2000/svg">
<path d="M8.2666 0C10.0339 0 11.4668 1.43288 11.4668 3.2002V5.80566C12.917 6.8177 13.8662 8.49783 13.8662 10.4004C13.866 13.493 11.3593 16 8.2666 16C5.17397 16 2.66721 13.493 2.66699 10.4004C2.66699 8.49787 3.61623 6.8177 5.06641 5.80566V3.2002C5.06641 1.43291 6.49932 3.59489e-05 8.2666 0ZM8.2666 6.40039C6.05749 6.40043 4.2666 8.19127 4.2666 10.4004C4.26682 12.6093 6.05763 14.4004 8.2666 14.4004C10.4756 14.4004 12.2664 12.6093 12.2666 10.4004C12.2666 8.19125 10.4757 6.40039 8.2666 6.40039ZM8.2666 8.7998C8.7083 8.7998 9.0662 9.15796 9.06641 9.59961V11.2002C9.06629 11.6419 8.70836 12 8.2666 12C7.82487 12 7.46691 11.6419 7.4668 11.2002V9.59961C7.467 9.15798 7.82493 8.79984 8.2666 8.7998ZM8.2666 1.59961C7.38298 1.59965 6.66699 2.31656 6.66699 3.2002V5.0332C7.17396 4.88232 7.71062 4.79981 8.2666 4.7998C8.82256 4.7998 9.35926 4.88233 9.86621 5.0332V3.2002C9.86621 2.31654 9.15026 1.59961 8.2666 1.59961Z" fill="#17325E"/>
</svg>
