<svg width="24" height="24" viewBox="0 0 24 24" fill="none" xmlns="http://www.w3.org/2000/svg">
<path fill-rule="evenodd" clip-rule="evenodd" d="M6.79984 7.92023C6.79984 6.28415 7.26976 4.90849 8.10202 3.95965C8.9144 3.03348 10.1699 2.40007 12 2.40007C13.8301 2.40007 15.0856 3.03348 15.898 3.95966C16.7302 4.90849 17.2001 6.28415 17.2001 7.92023V10.0003C17.2001 11.033 17.6649 11.8909 18.1576 12.5446C18.6082 13.1424 19.1693 13.6792 19.6099 14.1007L19.7183 14.2044C20.1305 14.5998 20.4002 15.1368 20.4002 15.7605C20.4002 16.3907 19.9279 16.8005 19.4669 16.8005H4.53311C4.07213 16.8005 3.59975 16.3907 3.59975 15.7605C3.59975 15.1368 3.86953 14.5998 4.28174 14.2044L4.39006 14.1007L4.39007 14.1007C4.83071 13.6792 5.39182 13.1424 5.8424 12.5446C6.33508 11.8909 6.79984 11.033 6.79984 10.0003V7.92023ZM12 0C9.56332 0 7.6187 0.870961 6.29769 2.37702C4.99655 3.86041 4.39977 5.84486 4.39977 7.92023V10.0003C4.39977 10.2931 4.26836 10.6454 3.92575 11.1C3.59732 11.5358 3.17097 11.9445 2.69999 12.3959L2.62018 12.4725C1.79966 13.2597 1.19968 14.4 1.19968 15.7605C1.19968 17.6045 2.6376 19.2006 4.53311 19.2006H19.4669C21.3624 19.2006 22.8003 17.6045 22.8003 15.7605C22.8003 14.4 22.2003 13.2597 21.3798 12.4725L21.3 12.3959C20.829 11.9445 20.4027 11.5358 20.0742 11.1C19.7316 10.6454 19.6002 10.2931 19.6002 10.0003V7.92023C19.6002 5.84486 19.0034 3.86041 17.7023 2.37702C16.3813 0.870961 14.4367 0 12 0ZM10.5966 20.9322C10.2275 20.3818 9.48199 20.2348 8.93154 20.6039C8.3811 20.9731 8.23412 21.7186 8.60326 22.269C8.97181 22.8186 9.48669 23.2546 10.08 23.5502C10.673 23.8456 11.3345 23.9964 12 23.9964C12.6655 23.9964 13.327 23.8456 13.92 23.5502C14.5133 23.2546 15.0282 22.8186 15.3967 22.269C15.7659 21.7186 15.6189 20.9731 15.0684 20.6039C14.518 20.2348 13.7725 20.3818 13.4034 20.9322C13.2841 21.1101 13.0988 21.2778 12.8497 21.402C12.6003 21.5262 12.3067 21.5964 12 21.5964C11.6933 21.5964 11.3997 21.5262 11.1503 21.402C10.9011 21.2778 10.7159 21.1101 10.5966 20.9322Z" fill="#C6C6C6"/>
</svg>
