<svg width="24" height="24" viewBox="0 0 24 24" fill="none" xmlns="http://www.w3.org/2000/svg">
<path d="M18 0C21.3137 0 24 2.68629 24 6V18C24 21.3137 21.3137 24 18 24H6C2.68629 24 0 21.3137 0 18V6C1.28855e-07 2.68629 2.68629 1.28851e-07 6 0H18ZM12 18C9.33998 18 7.01539 19.4433 5.76855 21.5918C5.8451 21.5967 5.92223 21.5996 6 21.5996H18C18.0774 21.5996 18.1542 21.5966 18.2305 21.5918C16.9836 19.4435 14.6598 18 12 18ZM6 2.40039C4.01178 2.40039 2.40039 4.01178 2.40039 6V18C2.40039 19.0431 2.84391 19.9822 3.55273 20.6396C5.17528 17.6404 8.34745 15.5996 12 15.5996C15.6524 15.5996 18.8237 17.6406 20.4463 20.6396C21.1554 19.9821 21.5996 19.0433 21.5996 18V6C21.5996 4.01178 19.9882 2.40039 18 2.40039H6ZM12 4.7998C14.6508 4.7998 16.7996 6.94882 16.7998 9.59961C16.7998 12.2506 14.651 14.4004 12 14.4004C9.34903 14.4004 7.2002 12.2506 7.2002 9.59961C7.20041 6.94882 9.34916 4.7998 12 4.7998ZM12 7.2002C10.6746 7.2002 9.59982 8.27431 9.59961 9.59961C9.59961 10.9251 10.6745 12 12 12C13.3255 12 14.4004 10.9251 14.4004 9.59961C14.4002 8.27431 13.3254 7.2002 12 7.2002Z" fill="#F1FF24"/>
</svg>
