<svg width="24" height="24" viewBox="0 0 24 24" fill="none" xmlns="http://www.w3.org/2000/svg">
<path fill-rule="evenodd" clip-rule="evenodd" d="M5.5 2C4.67157 2 4 2.67157 4 3.5C4 4.32843 4.67157 5 5.5 5C6.32843 5 7 4.32843 7 3.5C7 2.67157 6.32843 2 5.5 2ZM5.5 0C3.567 0 2 1.567 2 3.5C2 5.433 3.567 7 5.5 7C7.433 7 9 5.433 9 3.5C9 1.567 7.433 0 5.5 0ZM15 11C15 9.89543 15.8954 9 17 9C18.1046 9 19 9.89543 19 11C19 12.1046 18.1046 13 17 13C15.8954 13 15 12.1046 15 11ZM13 11C13 8.79086 14.7909 7 17 7C19.2091 7 21 8.79086 21 11C21 13.2091 19.2091 15 17 15C14.7909 15 13 13.2091 13 11ZM12.1429 20.2473C12.8507 19.0187 14.2495 18 17 18C19.7505 18 21.1493 19.0187 21.8571 20.2473C21.993 20.4832 22.0124 20.6717 21.9943 20.823C21.9742 20.9914 21.8976 21.1812 21.7528 21.3596C21.4526 21.7295 20.919 22 20.353 22H13.647C13.081 22 12.5474 21.7295 12.2472 21.3596C12.1024 21.1812 12.0258 20.9914 12.0057 20.823C11.9876 20.6717 12.007 20.4832 12.1429 20.2473ZM10.4099 19.2489C11.541 17.2855 13.6778 16 17 16C20.3222 16 22.459 17.2855 23.5901 19.2489C24.2921 20.4675 24.0234 21.7356 23.3057 22.6199C22.6172 23.4682 21.5079 24 20.353 24H13.647C12.4921 24 11.3828 23.4682 10.6943 22.6199C9.97662 21.7356 9.70794 20.4675 10.4099 19.2489ZM2.03442 11.4701C2.4805 10.731 3.41899 10 5.5 10C7.58101 10 8.5195 10.731 8.96558 11.4701C8.99368 11.5167 8.99894 11.541 8.99955 11.5439L8.99999 11.5462C9.00002 11.5465 9 11.5466 8.99996 11.5467C8.99994 11.5468 8.99992 11.5469 8.99991 11.547C8.99945 11.5506 8.99113 11.5985 8.93077 11.6694C8.79019 11.8348 8.4875 12 8.13453 12H2.86547C2.5125 12 2.2098 11.8348 2.06923 11.6694C2.00887 11.5985 2.00054 11.5506 2.00009 11.547C2.00002 11.5464 1.99979 11.547 2.00045 11.5439C2.00106 11.541 2.00632 11.5167 2.03442 11.4701ZM0.32209 10.4367C1.21079 8.96414 2.88973 8 5.5 8C8.11027 8 9.78921 8.96414 10.6779 10.4367C11.2295 11.3506 11.0184 12.3017 10.4545 12.965C9.91352 13.6012 9.04194 14 8.13453 14H2.86547C1.95806 14 1.08648 13.6012 0.545533 12.965C-0.0183669 12.3017 -0.229477 11.3506 0.32209 10.4367Z" fill="#C6C6C6"/>
</svg>
