<svg width="30" height="30" viewBox="0 0 30 30" fill="none" xmlns="http://www.w3.org/2000/svg">
<path d="M15.0002 3.83067C14.7763 3.83067 14.5938 3.64962 14.5938 3.4267V0.406649C14.5938 0.182761 14.7763 0.000244141 15.0002 0.000244141C15.224 0.000244141 15.4066 0.182761 15.4066 0.406649V3.4267C15.4066 3.64962 15.224 3.83067 15.0002 3.83067Z" fill="#27549D"/>
<path d="M15.0002 29.9998C14.7763 29.9998 14.5938 29.8173 14.5938 29.5934V26.5733C14.5938 26.3504 14.7763 26.1693 15.0002 26.1693C15.224 26.1693 15.4066 26.3504 15.4066 26.5733V29.5934C15.4066 29.8173 15.224 29.9998 15.0002 29.9998Z" fill="#27549D"/>
<path d="M26.5719 15.4067C26.349 15.4067 26.168 15.2242 26.168 15.0003C26.168 14.7764 26.349 14.5939 26.5719 14.5939H29.592C29.8159 14.5939 29.9984 14.7764 29.9984 15.0003C29.9984 15.2242 29.8159 15.4067 29.592 15.4067H26.5719Z" fill="#27549D"/>
<path d="M0.406405 15.4067C0.182517 15.4067 0 15.2242 0 15.0003C0 14.7764 0.182517 14.5939 0.406405 14.5939H3.42646C3.64937 14.5939 3.83043 14.7764 3.83043 15.0003C3.83043 15.2242 3.64937 15.4067 3.42646 15.4067H0.406405Z" fill="#27549D"/>
<path d="M23.184 7.22161C23.0755 7.22161 22.9732 7.17926 22.8963 7.10285C22.7377 6.94418 22.7377 6.68622 22.8963 6.52804L25.7835 3.64329C25.8604 3.56639 25.9617 3.52454 26.0697 3.52454C26.1778 3.52454 26.2795 3.56688 26.3559 3.64329C26.5136 3.80099 26.5136 4.05797 26.3559 4.21567L23.4712 7.10285C23.3957 7.17829 23.2911 7.22161 23.1835 7.22161H23.184Z" fill="#27549D"/>
<path d="M3.92692 26.4764C3.81985 26.4764 3.71861 26.4341 3.64171 26.3577C3.48401 26.2 3.48401 25.943 3.64171 25.7853L6.52646 22.8981C6.60287 22.8212 6.70508 22.7794 6.8141 22.7794C6.92313 22.7794 7.02485 22.8217 7.10175 22.8981C7.26042 23.0568 7.26042 23.3147 7.10175 23.4729L4.21457 26.3577C4.13767 26.4346 4.03595 26.4764 3.92692 26.4764Z" fill="#27549D"/>
<path d="M26.0712 26.4764C25.9626 26.4764 25.8604 26.4341 25.7835 26.3577L22.8963 23.4729C22.7377 23.3143 22.7377 23.0563 22.8963 22.8981C22.9732 22.8212 23.075 22.7794 23.184 22.7794C23.293 22.7794 23.3947 22.8217 23.4716 22.8981L26.3564 25.7853C26.5141 25.943 26.5141 26.2 26.3564 26.3577C26.2795 26.4346 26.1782 26.4764 26.0712 26.4764Z" fill="#27549D"/>
<path d="M6.8141 7.22161C6.70703 7.22161 6.60238 7.17829 6.52646 7.10285L3.64171 4.21567C3.48401 4.05797 3.48401 3.80099 3.64171 3.64329C3.71861 3.56639 3.81985 3.52454 3.9279 3.52454C4.03595 3.52454 4.13767 3.56688 4.21408 3.64329L7.10126 6.52804C7.25993 6.68671 7.25993 6.94467 7.10126 7.10285C7.02436 7.17975 6.92264 7.22161 6.81362 7.22161H6.8141Z" fill="#27549D"/>
<path d="M25.6531 10.8826C25.4906 10.8826 25.3431 10.7858 25.2779 10.6364C25.236 10.5376 25.2355 10.4271 25.2764 10.3258C25.3173 10.2246 25.3947 10.1457 25.4944 10.1039L26.8855 9.514C26.9351 9.49258 26.9877 9.48187 27.0412 9.48187C27.2052 9.48187 27.3527 9.57922 27.4165 9.7301C27.4588 9.82987 27.4598 9.94036 27.4194 10.0406C27.379 10.1409 27.3021 10.2192 27.2028 10.2611L25.8118 10.851C25.7621 10.8719 25.7091 10.8826 25.6531 10.8826Z" fill="#27549D"/>
<path d="M2.95415 20.5176C2.79013 20.5176 2.64314 20.4203 2.57938 20.2699C2.53704 20.1701 2.53606 20.0596 2.57646 19.9594C2.61686 19.8591 2.69376 19.7808 2.79305 19.7389L4.18407 19.149C4.23469 19.1276 4.28823 19.1169 4.34274 19.1169C4.50579 19.1169 4.65278 19.2137 4.71751 19.3636C4.80463 19.5695 4.70777 19.809 4.50092 19.8966L3.1099 20.4865C3.06025 20.5074 3.00769 20.5181 2.95366 20.5181L2.95415 20.5176Z" fill="#27549D"/>
<path d="M27.1332 20.3083C27.0835 20.3083 27.0314 20.2981 26.9828 20.2786L25.5825 19.7111C25.4813 19.6707 25.4024 19.5934 25.3601 19.4936C25.3182 19.3943 25.3172 19.2848 25.3586 19.1845C25.4195 19.0317 25.5703 18.93 25.7339 18.93C25.7859 18.93 25.8366 18.9402 25.8852 18.9601L27.2865 19.5257C27.3863 19.5656 27.4646 19.6425 27.507 19.7418C27.5498 19.8421 27.5508 19.9525 27.5104 20.0528C27.449 20.2061 27.2977 20.3088 27.1337 20.3088L27.1332 20.3083Z" fill="#27549D"/>
<path d="M4.26502 11.0696C4.21051 11.0696 4.16086 11.0598 4.11755 11.0408L2.71435 10.4743C2.61458 10.4344 2.53622 10.3575 2.49387 10.2582C2.45104 10.158 2.45007 10.0475 2.49047 9.94721C2.55277 9.79194 2.70024 9.69168 2.86718 9.69168C2.91877 9.69168 2.96939 9.70142 3.01758 9.72088L4.41785 10.2884C4.51908 10.3288 4.59793 10.4062 4.64028 10.506C4.68213 10.6052 4.68311 10.7148 4.64174 10.815C4.57992 10.9698 4.43196 11.0691 4.26502 11.0691V11.0696Z" fill="#27549D"/>
<path d="M20.114 27.4494C19.9494 27.4494 19.8025 27.353 19.7392 27.2041L19.1493 25.813C19.0622 25.6076 19.1585 25.3682 19.3639 25.2796C19.4136 25.2587 19.4661 25.248 19.5206 25.248C19.6852 25.248 19.8331 25.3453 19.8969 25.4962L20.4868 26.8872C20.5739 27.0926 20.4766 27.3311 20.2707 27.4182C20.221 27.4391 20.1685 27.4498 20.1144 27.4498L20.114 27.4494Z" fill="#27549D"/>
<path d="M10.4771 4.75205C10.3131 4.75205 10.1661 4.65471 10.1023 4.50432L9.51241 3.11329C9.42529 2.9079 9.52263 2.66941 9.72851 2.58229C9.7801 2.5599 9.83364 2.54871 9.88815 2.54871C10.0502 2.54871 10.1962 2.64556 10.2595 2.79596L10.8494 4.18698C10.9365 4.39237 10.8402 4.63184 10.6348 4.72042C10.5866 4.74086 10.5316 4.75157 10.4766 4.75157L10.4771 4.75205Z" fill="#27549D"/>
<path d="M10.0971 27.538C10.0474 27.538 9.99533 27.5278 9.94666 27.5083C9.84591 27.4679 9.76706 27.3905 9.72423 27.2902C9.68189 27.1905 9.68043 27.081 9.72034 26.9812L10.2878 25.5804C10.3497 25.4261 10.4971 25.3268 10.6636 25.3268C10.7157 25.3268 10.7663 25.3366 10.8145 25.356C10.9157 25.3964 10.9946 25.4738 11.0369 25.5736C11.0788 25.6729 11.0797 25.7824 11.0384 25.8827L10.4728 27.2839C10.411 27.4382 10.2635 27.5375 10.0961 27.5375L10.0971 27.538Z" fill="#27549D"/>
<path d="M19.334 4.67317C19.2795 4.67317 19.2298 4.66344 19.1865 4.64445C19.0823 4.6026 19.0035 4.5257 18.9616 4.42592C18.9198 4.32663 18.9188 4.21712 18.9602 4.11686L19.5257 2.71561C19.5866 2.56327 19.7375 2.46155 19.9005 2.46155C19.9526 2.46155 20.0032 2.47177 20.0519 2.49172C20.1536 2.53261 20.2324 2.60951 20.2753 2.70977C20.3181 2.80955 20.3191 2.91954 20.2792 3.01883L19.7117 4.41959C19.6498 4.57388 19.5019 4.67317 19.3349 4.67317H19.334Z" fill="#27549D"/>
<path d="M14.9979 23.6817C19.7926 23.6817 23.6794 19.7949 23.6794 15.0002C23.6794 10.2056 19.7926 6.31873 14.9979 6.31873C10.2032 6.31873 6.31641 10.2056 6.31641 15.0002C6.31641 19.7949 10.2032 23.6817 14.9979 23.6817Z" fill="#27549D"/>
</svg>
