<svg width="24" height="24" viewBox="0 0 24 24" fill="none" xmlns="http://www.w3.org/2000/svg">
<path d="M0.999996 0C0.447792 0.000103347 -3.8147e-06 0.447779 -3.8147e-06 1V23C-3.8147e-06 23.5522 0.447792 23.9999 0.999996 24C1.55229 24 2 23.5523 2 23V21H12.1279L12.1562 21.1113C12.6378 22.7791 14.1754 23.9998 16 24C17.8246 24 19.3648 22.7771 19.8447 21.1064L19.8711 21H19.9443C20.2756 20.9999 20.6216 20.9604 20.9639 20.8633C22.3744 20.4631 23.5408 19.3539 23.8779 17.8594V17.8584C24.027 17.1951 24.05 16.4364 23.8926 15.5781V15.5762C23.818 15.1743 23.618 14.8071 23.3223 14.5244C23.2245 13.8697 22.8932 12.6067 21.7676 11.3574C20.6204 10.0844 18.7246 8.90947 15.6416 8.35352L15.582 8.33789C15.5254 8.31931 15.4753 8.29006 15.4346 8.25391L10.1182 3.49609L9.91211 3.32031C8.8631 2.46679 7.53393 2.00014 6.16406 2H2V1C2 0.447715 1.55229 -2.41411e-08 0.999996 0ZM6 22C5.44783 22.0002 5 22.4478 5 23C5 23.5522 5.44783 23.9998 6 24H9C9.55229 24 10 23.5523 10 23C10 22.4477 9.55229 22 9 22H6ZM16 18C17.1048 18 18 18.8955 18 20C18 20.1937 17.973 20.3784 17.9228 20.5527V20.5537C17.683 21.3893 16.9102 22 16 22C15.0898 21.9998 14.3191 21.3912 14.0781 20.5566L14.0449 20.4229C14.0158 20.2873 14 20.1461 14 20C14 18.8952 14.8952 18.0002 16 18ZM6.16406 4C7.08337 4.00014 7.96416 4.31386 8.64941 4.87109L8.78418 4.98633L14.1006 9.74414L14.1016 9.74512C14.3931 10.0054 14.7439 10.1906 15.1221 10.2861L15.2861 10.3213C16.2426 10.4937 17.0435 10.7299 17.7158 11H17.6045C16.8577 11.0003 16.3766 11.5175 16.1699 11.9756C15.9587 12.4441 15.9279 13.0344 16.1709 13.5713L16.4033 14.084C16.9505 15.2934 17.9531 16.2329 19.2168 16.4785L21.8096 16.9814C21.8697 16.9931 21.9301 16.9983 21.9893 16.999C21.9769 17.1514 21.9554 17.2911 21.9268 17.4189L21.8926 17.5508C21.6946 18.2031 21.1447 18.7322 20.418 18.9385L20.417 18.9395C20.2762 18.9794 20.1171 18.9999 19.9443 19H19.875C19.4311 17.2749 17.8643 16 16 16C14.1359 16.0002 12.5698 17.2747 12.126 19H2V17H6C6.55229 17 7 16.5523 7 16C7 15.4477 6.55229 15 6 15H2V13.0059L12.1904 13.1709C12.1956 13.171 12.2009 13.1709 12.2061 13.1709C12.9095 13.1709 13.3757 12.6863 13.5469 12.2109C13.7174 11.7374 13.663 11.1162 13.2178 10.6572C13.2059 10.645 13.1932 10.6327 13.1807 10.6211L8.40234 6.18066C7.65726 5.43071 6.67228 5 5.62207 5H2V4H6.16406ZM20.5 12.957C21.1268 13.7577 21.3 14.5019 21.3477 14.834V14.835C21.3486 14.8418 21.3505 14.8486 21.3516 14.8555L19.5977 14.5146C19.1055 14.4187 18.5676 14.0156 18.2256 13.2598V13.2588L18.1084 13H20.21C20.3107 13 20.4083 12.9848 20.5 12.957ZM5.62207 7C6.12012 7 6.61044 7.20461 7.00293 7.60938C7.01494 7.62176 7.0274 7.63376 7.04004 7.64551L10.8096 11.1475L2 11.0068V7H5.62207Z" fill="#C6C6C6"/>
</svg>
