<svg width="320" height="62" viewBox="0 0 320 62" fill="none" xmlns="http://www.w3.org/2000/svg">
<path d="M114.263 11.925V47.4102C114.263 47.9629 113.824 48.4093 113.28 48.4093H105.094C104.697 48.4093 104.334 48.1684 104.18 47.7928L103.343 45.7592C100.322 48.2463 96.4907 49.6776 92.1993 49.6776C80.909 49.6776 72.8425 41.3165 72.8425 29.6605C72.8425 18.0046 80.916 9.78516 92.1993 9.78516C96.5465 9.78516 100.433 11.259 103.483 13.8169L104.522 11.507C104.683 11.1527 105.032 10.9189 105.422 10.9189H113.28C113.824 10.9189 114.263 11.3653 114.263 11.9179M102.171 29.6889C102.171 24.821 98.6678 21.1648 93.9088 21.1648C89.1499 21.1648 85.647 24.821 85.647 29.6889C85.647 34.5567 89.1499 38.2413 93.9088 38.2413C98.6678 38.2413 102.171 34.5851 102.171 29.6889Z" fill="#27549D"/>
<path d="M135.302 49.6782C126.552 49.6782 120.788 45.5968 119.357 39.1984C119.009 37.6396 120.195 36.1586 121.772 36.1586H129.217C130.243 36.1586 131.164 36.8034 131.52 37.7813C132.12 39.4039 133.669 40.1621 135.546 40.1621C137.423 40.1621 139.168 39.1984 139.168 37.2569C139.168 35.0958 136.37 34.4793 132.825 33.8841C127.103 32.9417 119.511 31.1845 119.511 22.0935C119.511 14.5756 125.819 9.729 135.274 9.729C143.313 9.729 148.93 13.4419 150.486 19.2593C150.912 20.8465 149.711 22.3982 148.099 22.3982H141.01C140.019 22.3982 139.119 21.7959 138.742 20.8677C138.198 19.5214 136.865 18.8908 135.127 18.8908C133.09 18.8908 131.722 19.9182 131.722 21.6542C131.722 23.787 134.548 24.283 138.051 24.9207C143.885 25.9694 151.637 27.2023 151.637 36.7113C151.637 44.5481 145.127 49.6711 135.316 49.6711L135.302 49.6782Z" fill="#27549D"/>
<path d="M197.545 29.7107C197.545 41.3879 189.472 49.7277 178.188 49.7277C174.853 49.7277 171.797 48.8349 169.187 47.2407V61.0011C169.187 61.5538 168.747 62.0002 168.203 62.0002H157.604C157.059 62.0002 156.62 61.5538 156.62 61.0011V11.961C156.62 11.4083 157.059 10.9619 157.604 10.9619H164.679C165.042 10.9619 165.377 11.1603 165.544 11.4863L166.856 13.9379C169.892 11.2737 173.799 9.729 178.188 9.729C189.479 9.729 197.545 18.0264 197.545 29.7036M184.748 29.7036C184.748 24.779 181.245 21.1228 176.486 21.1228C171.727 21.1228 168.224 24.779 168.224 29.7036C168.224 34.6281 171.727 38.2843 176.486 38.2843C181.245 38.2843 184.748 34.6281 184.748 29.7036Z" fill="#27549D"/>
<path d="M242.769 29.3559C242.769 29.7102 242.762 30.0644 242.741 30.4258C242.671 31.7508 241.583 32.7783 240.278 32.7783H215.094C215.925 37.0793 218.618 39.3042 222.631 39.3042C225.177 39.3042 227.362 38.3335 228.708 36.6754C229.169 36.1085 229.86 35.7897 230.585 35.7897H238.268C240.117 35.7897 241.338 37.802 240.459 39.453C237.061 45.8443 230.495 49.6918 222.638 49.6918C211.117 49.6918 202.583 41.1394 202.583 29.6889C202.583 18.2384 211.047 9.74268 222.638 9.74268C234.228 9.74268 242.776 18.366 242.776 29.363L242.769 29.3559ZM215.318 25.6217H230.243C229.127 21.8734 226.468 19.854 222.631 19.854C218.793 19.854 216.35 21.9017 215.318 25.6217Z" fill="#27549D"/>
<path d="M268.182 49.6778C256.34 49.6778 247.792 41.253 247.792 29.6537C247.792 18.0544 256.298 9.79248 268.217 9.79248C277.441 9.79248 284.615 15.043 287.071 23.2199C287.545 24.8071 286.338 26.4084 284.698 26.4084H276.939C276.039 26.4084 275.236 25.8983 274.783 25.1047C273.45 22.7947 270.994 21.3634 268.175 21.3634C263.709 21.3634 260.527 24.8142 260.527 29.6962C260.527 34.5782 263.744 38.1069 268.175 38.1069C271.085 38.1069 273.52 36.5693 274.825 34.0397C275.264 33.1965 276.095 32.6368 277.037 32.6368H284.831C286.471 32.6368 287.678 34.231 287.203 35.8253C284.712 44.2219 277.441 49.6778 268.168 49.6778H268.182Z" fill="#27549D"/>
<path d="M320 39.6445V45.9436C320 47.3253 318.897 48.452 317.53 48.452H311.25C303.086 48.452 298.124 43.3857 298.124 35.0529V20.9099H292.354C291.809 20.9099 291.37 20.4635 291.37 19.9108V18.2882C291.37 18.0331 291.467 17.7851 291.635 17.6009L307.614 0.318856C307.803 0.120457 308.061 0 308.333 0H309.533C310.077 0 310.517 0.446399 310.517 0.999083V10.9616H317.327C318.688 10.9616 319.798 12.0811 319.798 13.4699V18.4015C319.798 19.7833 318.695 20.9099 317.327 20.9099H310.838V32.8422C310.838 35.5277 312.436 37.1432 315.115 37.1432H317.53C318.891 37.1432 320 38.2627 320 39.6515" fill="#27549D"/>
<path d="M59.5146 26.0258L43.2282 2.24617C42.2722 0.836112 40.6882 0 39.0065 0H5.14272C2.30969 0 0 2.34536 0 5.22216V56.7635C0 59.6403 2.30969 61.9857 5.14272 61.9857H38.9926C40.6743 61.9857 42.2513 61.1495 43.2142 59.7466L59.5076 35.9599C61.5452 32.9839 61.5452 28.9947 59.5076 26.0187" fill="#27549D"/>
<path d="M8.38037 10.7131C8.38037 9.51566 9.33634 8.54492 10.5156 8.54492H15.9654C16.5515 8.54492 17.033 9.03383 17.033 9.62903V17.2178C17.033 17.813 16.5515 18.3019 15.9654 18.3019H10.5156C9.33634 18.3019 8.38037 17.3312 8.38037 16.1337V10.7131Z" fill="#F1FF24"/>
<path d="M8.38037 23.4041C8.38037 22.2066 9.33634 21.2358 10.5156 21.2358H15.9654C16.5515 21.2358 17.033 21.7248 17.033 22.32V29.9087C17.033 30.511 16.5515 30.9928 15.9654 30.9928H10.5156C9.33634 30.9928 8.38037 30.0221 8.38037 28.8246V23.4041Z" fill="#F1FF24"/>
<path d="M29.5304 52.3562C29.5304 52.9514 29.0489 53.4403 28.4628 53.4403H10.5156C9.33634 53.4403 8.38037 52.4695 8.38037 51.272V47.8001C8.38037 46.6026 9.33634 45.6318 10.5156 45.6318H28.4558C29.0489 45.6318 29.5234 46.1207 29.5234 46.7159V52.3562H29.5304Z" fill="#F1FF24"/>
<path d="M29.5304 41.6213C29.5304 42.2165 29.0489 42.7054 28.4628 42.7054H10.5156C9.33634 42.7054 8.38037 41.7347 8.38037 40.5372V36.0945C8.38037 34.897 9.33634 33.9263 10.5156 33.9263H28.4558C29.0489 33.9263 29.5234 34.4152 29.5234 35.0104V41.6284L29.5304 41.6213Z" fill="#F1FF24"/>
<path d="M50.4844 34.7124L38.287 52.5117C37.8893 53.0927 37.2333 53.4399 36.5356 53.4399H33.4792C32.8931 53.4399 32.4116 52.951 32.4116 52.3558V22.3195C32.4116 21.7172 31.9301 21.2354 31.344 21.2354H30.5973C30.0042 21.2354 29.5297 21.7243 29.5297 22.3195V28.8242C29.5297 30.0217 28.5738 30.9924 27.3945 30.9924H22.0564C20.8771 30.9924 19.9211 30.0217 19.9211 28.8242V9.62903C19.9211 9.02675 20.4026 8.54492 20.9888 8.54492H36.5425C37.2403 8.54492 37.8962 8.89212 38.294 9.47315L50.4844 27.2724C52.0126 29.5044 52.0126 32.4662 50.4844 34.7053" fill="#F1FF24"/>
</svg>
