<svg width="90" height="91" viewBox="0 0 90 91" fill="none" xmlns="http://www.w3.org/2000/svg">
<path d="M87.757 37.8918L63.7419 3.27027C62.3322 1.21733 59.9966 0 57.5169 0H7.58317C3.40574 0 0 3.4147 0 7.60313V82.644C0 86.8325 3.40574 90.2472 7.58317 90.2472H57.4963C59.976 90.2472 62.3014 89.0298 63.7213 86.9872L87.7467 52.3553C90.7511 48.0225 90.7511 42.2144 87.7467 37.8815" fill="#27549D"/>
<path d="M12.3574 15.5977C12.3574 13.8543 13.767 12.4409 15.5059 12.4409H23.5418C24.4061 12.4409 25.1161 13.1527 25.1161 14.0193V25.0681C25.1161 25.9347 24.4061 26.6465 23.5418 26.6465H15.5059C13.767 26.6465 12.3574 25.2332 12.3574 23.4897V15.5977Z" fill="#F1FF24"/>
<path d="M12.3574 34.0753C12.3574 32.3318 13.767 30.9185 15.5059 30.9185H23.5418C24.4061 30.9185 25.1161 31.6303 25.1161 32.4969V43.5456C25.1161 44.4225 24.4061 45.124 23.5418 45.124H15.5059C13.767 45.124 12.3574 43.7107 12.3574 41.9672V34.0753Z" fill="#F1FF24"/>
<path d="M43.5441 76.2267C43.5441 77.0933 42.8342 77.8051 41.9699 77.8051H15.5059C13.767 77.8051 12.3574 76.3918 12.3574 74.6483V69.5933C12.3574 67.8499 13.767 66.4365 15.5059 66.4365H41.9596C42.8342 66.4365 43.5338 67.1483 43.5338 68.0149V76.2267H43.5441Z" fill="#F1FF24"/>
<path d="M43.5441 60.5981C43.5441 61.4646 42.8342 62.1764 41.9699 62.1764H15.5059C13.767 62.1764 12.3574 60.7631 12.3574 59.0197V52.5513C12.3574 50.8079 13.767 49.3945 15.5059 49.3945H41.9596C42.8342 49.3945 43.5338 50.1064 43.5338 50.9729V60.6084L43.5441 60.5981Z" fill="#F1FF24"/>
<path d="M74.4414 50.5391L56.4558 76.4537C55.8693 77.2996 54.9021 77.8051 53.8732 77.8051H49.3665C48.5022 77.8051 47.7923 77.0933 47.7923 76.2267V32.4958C47.7923 31.619 47.0823 30.9174 46.218 30.9174H45.1171C44.2425 30.9174 43.5428 31.6293 43.5428 32.4958V41.9662C43.5428 43.7097 42.1332 45.123 40.3943 45.123H32.523C30.7841 45.123 29.3745 43.7097 29.3745 41.9662V14.0193C29.3745 13.1424 30.0845 12.4409 30.9488 12.4409H53.8835C54.9124 12.4409 55.8796 12.9464 56.4661 13.7924L74.4414 39.707C76.6947 42.9566 76.6947 47.2688 74.4414 50.5288" fill="#F1FF24"/>
</svg>
