<svg width="35" height="35" viewBox="0 0 35 35" fill="none" xmlns="http://www.w3.org/2000/svg">
<path d="M34.1277 14.6954L24.7885 1.26829C24.2403 0.472108 23.332 0 22.3677 0H2.94901C1.32445 0 0 1.3243 0 2.94867V32.0513C0 33.6757 1.32445 35 2.94901 35H22.3597C23.324 35 24.2283 34.5279 24.7805 33.7357L34.1237 20.3046C35.2921 18.6243 35.2921 16.3717 34.1237 14.6914" fill="#27549D"/>
<path d="M4.80566 6.04923C4.80566 5.37308 5.35385 4.82495 6.03008 4.82495H9.15515C9.49127 4.82495 9.76736 5.10101 9.76736 5.43709V9.72207C9.76736 10.0581 9.49127 10.3342 9.15515 10.3342H6.03008C5.35385 10.3342 4.80566 9.78609 4.80566 9.10993V6.04923Z" fill="#F1FF24"/>
<path d="M4.80566 13.2151C4.80566 12.539 5.35385 11.9908 6.03008 11.9908H9.15515C9.49127 11.9908 9.76736 12.2669 9.76736 12.603V16.888C9.76736 17.228 9.49127 17.5001 9.15515 17.5001H6.03008C5.35385 17.5001 4.80566 16.952 4.80566 16.2758V13.2151Z" fill="#F1FF24"/>
<path d="M16.9338 29.5626C16.9338 29.8987 16.6577 30.1748 16.3216 30.1748H6.03008C5.35385 30.1748 4.80566 29.6266 4.80566 28.9505V26.99C4.80566 26.3139 5.35385 25.7657 6.03008 25.7657H16.3176C16.6577 25.7657 16.9298 26.0418 16.9298 26.3779V29.5626H16.9338Z" fill="#F1FF24"/>
<path d="M16.9338 23.5015C16.9338 23.8376 16.6577 24.1136 16.3216 24.1136H6.03008C5.35385 24.1136 4.80566 23.5655 4.80566 22.8893V20.3808C4.80566 19.7046 5.35385 19.1565 6.03008 19.1565H16.3176C16.6577 19.1565 16.9298 19.4326 16.9298 19.7686V23.5055L16.9338 23.5015Z" fill="#F1FF24"/>
<path d="M28.9495 19.6003L21.9551 29.6506C21.727 29.9787 21.3509 30.1747 20.9507 30.1747H19.1981C18.862 30.1747 18.5859 29.8987 18.5859 29.5626V12.6027C18.5859 12.2627 18.3098 11.9906 17.9737 11.9906H17.5456C17.2054 11.9906 16.9334 12.2667 16.9334 12.6027V16.2756C16.9334 16.9517 16.3852 17.4998 15.7089 17.4998H12.6479C11.9717 17.4998 11.4235 16.9517 11.4235 16.2756V5.43709C11.4235 5.09701 11.6996 4.82495 12.0357 4.82495H20.9547C21.3549 4.82495 21.731 5.021 21.9591 5.34907L28.9495 15.3994C29.8258 16.6597 29.8258 18.332 28.9495 19.5963" fill="#F1FF24"/>
</svg>
