<?xml version="1.0" encoding="UTF-8"?>
<svg id="Layer_2" data-name="Layer 2" xmlns="http://www.w3.org/2000/svg" viewBox="0 0 255.09 319.36">
  <defs>
    <style>
      .cls-1 {
        fill: #f1ff24;
      }

      .cls-2 {
        fill: #27549d;
      }
    </style>
  </defs>
  <g id="Layer_2-2" data-name="Layer 2">
    <g>
      <path class="cls-2" d="M127.79,0C57.24-.13,0,57.02,0,127.55c0,.89,0,1.78.03,2.66.56,27.38,10.6,53.72,27.86,74.98l88.25,108.73c5.88,7.25,16.94,7.25,22.82,0l88.26-108.75c16.99-20.93,27-46.78,27.81-73.73.03-.88.04-1.75.05-2.63C255.77,58.24,198.37.13,127.79,0Z"/>
      <path class="cls-1" d="M205.08,117.5l-38.07-54.76c-2.25-3.23-5.94-5.16-9.88-5.16h-79.18c-6.63,0-12.03,5.39-12.03,12.03v118.69c0,6.63,5.4,12.03,12.03,12.03h79.15c3.93,0,7.63-1.93,9.87-5.16l38.1-54.77c4.76-6.85,4.76-16.05,0-22.89h0ZM85.53,82.25c0-2.76,2.23-4.99,4.99-4.99h12.73c1.38,0,2.5,1.12,2.5,2.5v17.48c0,1.38-1.12,2.5-2.5,2.5h-12.73c-2.76,0-4.99-2.24-4.99-5,0,0,0-12.49,0-12.49ZM85.53,111.46c0-2.76,2.23-4.99,4.99-4.99h12.73c1.38,0,2.5,1.12,2.5,2.5v17.48c0,1.38-1.12,2.5-2.5,2.5h-12.73c-2.76,0-4.99-2.24-4.99-4.99v-12.49h0ZM134.97,178.14c0,1.38-1.12,2.5-2.5,2.5h-41.95c-2.76,0-4.99-2.24-4.99-4.99v-7.99c0-2.76,2.24-4.99,4.99-4.99h41.95c1.38,0,2.5,1.12,2.5,2.5v12.99-.02ZM134.97,153.41c0,1.38-1.12,2.5-2.5,2.5h-41.95c-2.76,0-4.99-2.24-4.99-4.99v-10.24c0-2.76,2.24-4.99,4.99-4.99h41.95c1.38,0,2.5,1.12,2.5,2.5v15.23h0ZM183.98,137.5l-28.52,40.99c-.94,1.34-2.46,2.14-4.1,2.14h-7.15c-1.38,0-2.5-1.12-2.5-2.5v-69.17c0-1.38-1.12-2.5-2.5-2.5h-1.75c-1.38,0-2.5,1.12-2.5,2.5v14.98c0,2.76-2.23,4.99-4.99,4.99h-12.49c-2.76,0-4.99-2.24-4.99-4.99v-44.2c0-1.38,1.12-2.5,2.5-2.5h36.38c1.63,0,3.17.8,4.1,2.14l28.51,40.99c3.58,5.14,3.58,11.97,0,17.11v.02Z"/>
    </g>
  </g>
</svg>