<svg width="54" height="54" viewBox="0 0 54 54" fill="none" xmlns="http://www.w3.org/2000/svg">
<path d="M37.7998 0C39.291 0 40.5 1.20903 40.5 2.7002L40.8486 2.7041C48.1434 2.88901 54 8.86091 54 16.2002V40.5C54 47.9558 47.9558 54 40.5 54H13.5C6.04416 54 0 47.9558 0 40.5V16.2002C0 8.74435 6.04416 2.7002 13.5 2.7002C13.5 1.20903 14.709 0 16.2002 0C17.6913 0.000105395 18.9004 1.20909 18.9004 2.7002H35.0996C35.0996 1.20909 36.3087 0.000106168 37.7998 0ZM18.9004 10.7998C18.9004 12.2909 17.6913 13.4999 16.2002 13.5C14.709 13.5 13.5 12.291 13.5 10.7998V8.09961C9.02649 8.09961 5.40039 11.7267 5.40039 16.2002V40.5C5.40039 44.9735 9.02649 48.5996 13.5 48.5996H40.5C44.9735 48.5996 48.5996 44.9735 48.5996 40.5V16.2002C48.5996 11.8665 45.1967 8.32737 40.917 8.11035L40.5 8.09961V10.7998C40.5 12.291 39.291 13.5 37.7998 13.5C36.3087 13.4999 35.0996 12.2909 35.0996 10.7998V8.09961H18.9004V10.7998ZM33.1299 22.4531C34.1497 21.3653 35.8584 21.3104 36.9463 22.3301C38.0342 23.3499 38.0892 25.0586 37.0693 26.1465L26.9443 36.9463C25.9772 37.9779 24.3783 38.0888 23.2783 37.2002L17.2031 32.291C16.0434 31.3538 15.8627 29.654 16.7998 28.4941C17.737 27.3344 19.4369 27.1538 20.5967 28.0908L24.7207 31.4229L33.1299 22.4531Z" fill="#2EB844"/>
</svg>
