<svg width="13" height="12" viewBox="0 0 13 12" fill="none" xmlns="http://www.w3.org/2000/svg">
<path d="M8.90039 0C9.23145 0.000210876 9.49979 0.268548 9.5 0.599609C11.1567 0.599609 12.4998 1.94293 12.5 3.59961V9C12.5 10.6569 11.1569 12 9.5 12H3.5C1.84315 12 0.5 10.6569 0.5 9V3.59961C0.500211 1.94293 1.84328 0.599609 3.5 0.599609C3.50021 0.268548 3.76855 0.000210876 4.09961 0C4.43085 0 4.69998 0.268418 4.7002 0.599609H8.2998C8.30002 0.268418 8.56915 0 8.90039 0ZM4.7002 2.40039C4.69998 2.73158 4.43085 3 4.09961 3C3.76855 2.99979 3.50021 2.73145 3.5 2.40039V1.7998C2.50602 1.7998 1.70041 2.60568 1.7002 3.59961V9C1.7002 9.99411 2.50589 10.7998 3.5 10.7998H9.5C10.4941 10.7998 11.2998 9.99411 11.2998 9V3.59961C11.2996 2.60568 10.494 1.7998 9.5 1.7998V2.40039C9.49979 2.73145 9.23145 2.99979 8.90039 3C8.56915 3 8.30002 2.73158 8.2998 2.40039V1.7998H4.7002V2.40039ZM9.5 8.40039C9.83137 8.40039 10.0996 8.66863 10.0996 9C10.0996 9.33137 9.83137 9.59961 9.5 9.59961H8.90039C8.56902 9.59961 8.29981 9.33137 8.2998 9C8.2998 8.66863 8.56902 8.40039 8.90039 8.40039H9.5ZM9.5 4.2002C9.83131 4.2002 10.0995 4.46852 10.0996 4.7998C10.0996 5.13118 9.83137 5.40039 9.5 5.40039H3.5C3.16863 5.40039 2.90039 5.13118 2.90039 4.7998C2.9005 4.46852 3.16869 4.2002 3.5 4.2002H9.5Z" fill="#27549D"/>
</svg>
