<svg width="57" height="10" viewBox="0 0 57 10" fill="none" xmlns="http://www.w3.org/2000/svg">
<path d="M56.1411 2.28479L54.4059 6.67091L52.6908 2.28479H51.8218L53.9814 7.76429L53.7512 8.34387C53.5124 8.95706 53.1426 9.23146 52.5541 9.23146C52.4462 9.23146 52.3282 9.22306 52.2031 9.20486L51.9671 9.17126V9.92445L52.1354 9.95525C52.2995 9.98464 52.4606 10 52.6146 10C53.4994 10 54.1555 9.52265 54.5123 8.61827L57.0001 2.28759H56.1411V2.28479Z" fill="#848EA3"/>
<path d="M11.7292 5.01889C11.7292 6.66106 13.0472 7.99804 14.6658 7.99804C15.9507 7.99804 16.9938 7.26165 17.3909 6.07727L17.4787 5.81688H16.6413L16.591 5.94568C16.2859 6.74086 15.5651 7.21685 14.6644 7.21685C13.486 7.21685 12.5278 6.23127 12.5278 5.02029C12.5278 3.80932 13.486 2.79293 14.6644 2.79293C15.5378 2.79293 16.2543 3.26613 16.5809 4.05851L16.6327 4.18311H17.4801L17.3895 3.91991C16.9809 2.73694 15.9363 2.00055 14.6644 2.00055C13.0443 2.00055 11.7278 3.35572 11.7278 5.02029" fill="#848EA3"/>
<path d="M30.1603 1.99915V5.50188C30.1603 6.50006 29.4337 7.19725 28.3934 7.19725C27.3532 7.19725 26.6366 6.48466 26.6366 5.50188V1.99915H25.8093V5.50188C25.8093 6.94805 26.8956 7.99803 28.392 7.99803C29.8884 7.99803 30.9862 6.94805 30.9862 5.50188V1.99915H30.1588H30.1603Z" fill="#848EA3"/>
<path d="M36.7372 2.97353C36.3416 2.35754 35.6624 1.99915 34.8524 1.99915C33.5474 1.99915 32.5632 2.97913 32.5632 4.2783V7.99803H33.3747V4.2783C33.3747 3.42572 33.9963 2.80833 34.8509 2.80833C35.7056 2.80833 36.3387 3.41312 36.3387 4.2783V7.99803H37.1401V4.2783C37.1401 3.42572 37.7617 2.80833 38.6163 2.80833C39.471 2.80833 40.104 3.42712 40.104 4.2783V7.99803H40.9055V4.2783C40.9055 2.95813 39.9429 1.99915 38.6178 1.99915C37.8178 1.99915 37.1401 2.35614 36.7372 2.97353Z" fill="#848EA3"/>
<path d="M19.0571 0V7.99805H19.8398V4.62271C19.8398 3.68053 20.5794 2.96934 21.5607 2.96934C22.5966 2.96934 23.1678 3.55593 23.1678 4.62271V7.99805H23.9491V4.62271C23.9491 3.13314 23.0383 2.20776 21.5722 2.20776C20.8902 2.20776 20.2844 2.44295 19.8413 2.86715V0H19.0586H19.0571Z" fill="#848EA3"/>
<path d="M42.7688 0V5.97369C42.7688 7.22106 43.4896 7.99665 44.6493 7.99665C44.7241 7.99665 44.8033 7.99385 44.881 7.98685L45.0695 7.97145V7.24066L44.8536 7.24906C44.8234 7.24906 44.7932 7.25046 44.7644 7.25046C43.9788 7.25046 43.5817 6.82067 43.5817 5.97369V0H42.7688Z" fill="#848EA3"/>
<path d="M2.77834 0C2.63158 0 2.49778 0.0783985 2.4244 0.205796L0.0546748 4.33852C0.0201433 4.39872 0.00143881 4.46732 0 4.53451V4.55271C0.00143881 4.61991 0.0201433 4.68851 0.0546748 4.74871L2.4244 8.88143C2.49778 9.00883 2.63158 9.08723 2.77834 9.08723H7.51779C7.66311 9.08723 7.79835 9.00883 7.87173 8.88143L10.2415 4.74871C10.3148 4.62131 10.3148 4.46452 10.2415 4.33712L7.87173 0.205796C7.79979 0.0783985 7.66454 0 7.51779 0H2.77834ZM0.880552 4.54431L3.01431 0.823184H7.28182L9.41558 4.54431L7.28182 8.26544H3.01431L0.880552 4.54431ZM2.72223 4.54431C2.72223 5.87849 3.80997 6.96347 5.14806 6.96347C6.48616 6.96347 7.5739 5.87849 7.5739 4.54431C7.5739 3.21014 6.48616 2.12516 5.14806 2.12516C3.80997 2.12516 2.72223 3.21014 2.72223 4.54431ZM3.53084 4.54431C3.53084 3.65533 4.256 2.93154 5.14806 2.93154C6.04013 2.93154 6.76529 3.65533 6.76529 4.54431C6.76529 5.4333 6.04013 6.15708 5.14806 6.15708C4.256 6.15708 3.53084 5.4333 3.53084 4.54431Z" fill="#848EA3"/>
<path d="M50.0044 5.81547L49.9526 5.93587C49.5785 6.80946 48.9599 7.21545 48.003 7.21545C47.1642 7.21545 46.4247 6.74646 46.0707 6.00587L50.6835 4.06831L50.6116 3.88771C50.1584 2.73973 49.1095 1.99915 47.9397 1.99915C46.3556 1.99915 45.0679 3.35432 45.0679 5.01889C45.0679 6.68346 46.357 7.99803 48.003 7.99803C49.3253 7.99803 50.2936 7.31765 50.7282 6.08147L50.8217 5.81687H50.003L50.0044 5.81547ZM45.8635 5.23589C45.8563 5.15889 45.852 5.08189 45.852 5.00909C45.852 3.76871 46.7887 2.76073 47.9412 2.76073C48.6002 2.76073 49.2246 3.10512 49.6145 3.67071L45.8635 5.23589Z" fill="#848EA3"/>
</svg>
