<svg width="24" height="24" viewBox="0 0 24 24" fill="none" xmlns="http://www.w3.org/2000/svg">
<g clip-path="url(#clip0_13289_13726)">
<path d="M12 0C18.6274 0 24 5.37258 24 12C24 18.6274 18.6274 24 12 24C5.37258 24 0 18.6274 0 12C2.57711e-07 5.37258 5.37258 2.57703e-07 12 0ZM12 2.40039C6.69807 2.40039 2.40039 6.69807 2.40039 12C2.40039 17.3019 6.69807 21.5996 12 21.5996C17.3019 21.5996 21.5996 17.3019 21.5996 12C21.5996 6.69807 17.3019 2.40039 12 2.40039ZM12 6C12.5523 6 13 6.52266 13 7.16699V16.833C13 17.4773 12.5523 18 12 18C11.4477 18 11 17.4773 11 16.833V7.16699C11 6.52266 11.4477 6 12 6Z" fill="#27549D"/>
</g>
<defs>
<clipPath id="clip0_13289_13726">
<rect width="24" height="24" fill="white"/>
</clipPath>
</defs>
</svg>
