<svg width="24" height="24" viewBox="0 0 24 24" fill="none" xmlns="http://www.w3.org/2000/svg">
<path d="M12 0C15.3134 0 18.3151 1.34439 20.4854 3.51465C22.6556 5.68491 24 8.68662 24 12C24 15.3134 22.6556 18.3151 20.4854 20.4854C18.3151 22.6556 15.3134 24 12 24C8.68662 24 5.68491 22.6556 3.51465 20.4854C1.34439 18.3151 0 15.3134 0 12C1.28992e-07 8.68662 1.34439 5.68491 3.51465 3.51465C5.68491 1.34439 8.68662 1.2899e-07 12 0ZM12 2.40039C9.3487 2.40039 6.95049 3.47334 5.21191 5.21191C3.47334 6.95049 2.40039 9.3487 2.40039 12C2.40039 14.6513 3.47334 17.0495 5.21191 18.7881C6.95049 20.5267 9.3487 21.5996 12 21.5996C14.6513 21.5996 17.0495 20.5267 18.7881 18.7881C20.5267 17.0495 21.5996 14.6513 21.5996 12C21.5996 9.3487 20.5267 6.95049 18.7881 5.21191C17.0495 3.47334 14.6513 2.40039 12 2.40039ZM12 6C12.5523 6 13 6.52266 13 7.16699V10.75H15.8057C16.4959 10.7502 17.0557 11.3097 17.0557 12C17.0557 12.6903 16.4959 13.2498 15.8057 13.25H12.2695C11.6076 13.2498 11.0667 12.7351 11.0234 12.084C11.0083 12.0032 11 11.9191 11 11.833V7.16699C11 6.52266 11.4477 6 12 6Z" fill="#17325E"/>
</svg>
