<svg width="24" height="24" viewBox="0 0 24 24" fill="none" xmlns="http://www.w3.org/2000/svg">
<path fill-rule="evenodd" clip-rule="evenodd" d="M12 0C5.37258 0 0 5.37258 0 12C0 18.6274 5.37258 24 12 24C18.6274 24 24 18.6274 24 12C24 5.37258 18.6274 0 12 0ZM2.4 12C2.4 6.69807 6.69807 2.4 12 2.4C17.3019 2.4 21.6 6.69807 21.6 12C21.6 17.3019 17.3019 21.6 12 21.6C6.69807 21.6 2.4 17.3019 2.4 12ZM9.24853 7.55147C8.7799 7.08284 8.0201 7.08284 7.55147 7.55147C7.08284 8.0201 7.08284 8.7799 7.55147 9.24853L10.3029 12L7.55147 14.7515C7.08284 15.2201 7.08284 15.9799 7.55147 16.4485C8.0201 16.9172 8.7799 16.9172 9.24853 16.4485L12 13.6971L14.7515 16.4485C15.2201 16.9172 15.9799 16.9172 16.4485 16.4485C16.9172 15.9799 16.9172 15.2201 16.4485 14.7515L13.6971 12L16.4485 9.24853C16.9172 8.7799 16.9172 8.0201 16.4485 7.55147C15.9799 7.08284 15.2201 7.08284 14.7515 7.55147L12 10.3029L9.24853 7.55147Z" fill="#17325E"/>
</svg>
