<svg width="49" height="34" viewBox="0 0 49 34" fill="none" xmlns="http://www.w3.org/2000/svg">
<g clip-path="url(#clip0_121_5049)">
<path d="M16.5293 32.75V14.36L24.1593 8.35999L31.7793 14.36V32.75H16.5293Z" stroke="#27549D" stroke-width="1.5" stroke-linecap="round" stroke-linejoin="round"/>
<path d="M16.53 13.99H0.75L9.05 0.75H39.27L47.57 13.99H31.78" stroke="#27549D" stroke-width="1.5" stroke-linecap="round" stroke-linejoin="round"/>
<path d="M16.5297 13.99H5.17969V32.75H16.5297V13.99Z" stroke="#27549D" stroke-width="1.5" stroke-linecap="round" stroke-linejoin="round"/>
<path d="M43.1293 13.99H31.7793V32.75H43.1293V13.99Z" stroke="#27549D" stroke-width="1.5" stroke-linecap="round" stroke-linejoin="round"/>
<path d="M27.3592 24.4301H20.9492V32.7501H27.3592V24.4301Z" stroke="#27549D" stroke-width="1.5" stroke-linecap="round" stroke-linejoin="round"/>
<path d="M9.93906 18.38H11.7791C11.9991 18.38 12.1791 18.54 12.1791 18.74V20.66C12.1791 20.86 11.9991 21.02 11.7791 21.02H9.93906C9.71906 21.02 9.53906 20.86 9.53906 20.66V18.74C9.53906 18.54 9.71906 18.38 9.93906 18.38Z" fill="#27549D"/>
<path d="M23.2398 18.38H25.0798C25.2998 18.38 25.4798 18.54 25.4798 18.74V20.66C25.4798 20.86 25.2998 21.02 25.0798 21.02H23.2398C23.0198 21.02 22.8398 20.86 22.8398 20.66V18.74C22.8398 18.54 23.0198 18.38 23.2398 18.38Z" fill="#27549D"/>
<path d="M36.5406 18.38H38.3806C38.6006 18.38 38.7806 18.54 38.7806 18.74V20.66C38.7806 20.86 38.6006 21.02 38.3806 21.02H36.5406C36.3206 21.02 36.1406 20.86 36.1406 20.66V18.74C36.1406 18.54 36.3206 18.38 36.5406 18.38Z" fill="#27549D"/>
<path d="M36.5406 24.1801H38.3806C38.6006 24.1801 38.7806 24.3401 38.7806 24.5401V26.4601C38.7806 26.6601 38.6006 26.8201 38.3806 26.8201H36.5406C36.3206 26.8201 36.1406 26.6601 36.1406 26.4601V24.5401C36.1406 24.3401 36.3206 24.1801 36.5406 24.1801Z" fill="#27549D"/>
<path d="M9.93906 24.1801H11.7791C11.9991 24.1801 12.1791 24.3401 12.1791 24.5401V26.4601C12.1791 26.6601 11.9991 26.8201 11.7791 26.8201H9.93906C9.71906 26.8201 9.53906 26.6601 9.53906 26.4601V24.5401C9.53906 24.3401 9.71906 24.1801 9.93906 24.1801Z" fill="#27549D"/>
<path d="M0.75 32.75H47.57" stroke="#27549D" stroke-width="1.5" stroke-linecap="round" stroke-linejoin="round"/>
</g>
<defs>
<clipPath id="clip0_121_5049">
<rect width="48.32" height="33.5" fill="white"/>
</clipPath>
</defs>
</svg>
