<svg width="24" height="24" viewBox="0 0 24 24" fill="none" xmlns="http://www.w3.org/2000/svg">
<path fill-rule="evenodd" clip-rule="evenodd" d="M6 2.4C4.01178 2.4 2.4 4.01178 2.4 6V18C2.4 19.9882 4.01178 21.6 6 21.6H18C19.9882 21.6 21.6 19.9882 21.6 18V10.8C21.6 10.1373 22.1373 9.6 22.8 9.6C23.4627 9.6 24 10.1373 24 10.8V18C24 21.3137 21.3137 24 18 24H6C2.68629 24 0 21.3137 0 18V6C0 2.68629 2.68629 0 6 0H13.2C13.8627 0 14.4 0.537258 14.4 1.2C14.4 1.86274 13.8627 2.4 13.2 2.4H6ZM20.797 2.28571C20.5537 2.28571 20.3204 2.38236 20.1483 2.55439L18.7352 3.96747L20.0325 5.26476L21.4456 3.85167C21.6176 3.67964 21.7143 3.44632 21.7143 3.20303C21.7143 2.95974 21.6176 2.72642 21.4456 2.55439C21.2736 2.38236 21.0403 2.28571 20.797 2.28571ZM18.2648 7.03252L16.9675 5.73524L11.146 11.5567L10.7136 13.2864L12.4433 12.854L18.2648 7.03252ZM18.5321 0.938145C19.1328 0.337461 19.9475 0 20.797 0C21.6465 0 22.4612 0.337461 23.0619 0.938145C23.6625 1.53883 24 2.35353 24 3.20303C24 4.05252 23.6625 4.86723 23.0619 5.46791L13.8357 14.6941C13.6892 14.8405 13.5057 14.9444 13.3048 14.9947L9.42006 15.9659C9.03061 16.0632 8.61862 15.9491 8.33476 15.6652C8.0509 15.3814 7.93678 14.9694 8.03415 14.5799L9.00532 10.6952C9.05556 10.4943 9.15947 10.3108 9.30593 10.1643L18.5321 0.938145Z" fill="#27549D"/>
</svg>
