<svg width="86" height="66" viewBox="0 0 86 66" fill="none" xmlns="http://www.w3.org/2000/svg">
<path fill-rule="evenodd" clip-rule="evenodd" d="M0.166748 16.6666C0.166748 7.64599 7.47943 0.333313 16.5001 0.333313H65.5001C74.5207 0.333313 81.8334 7.64599 81.8334 16.6666V24.8333C81.8334 27.0885 80.0052 28.9166 77.7501 28.9166C75.4949 28.9166 73.6668 27.0885 73.6668 24.8333V16.6666C73.6668 12.1563 70.0104 8.49998 65.5001 8.49998H16.5001C11.9898 8.49998 8.33342 12.1563 8.33342 16.6666V49.3333C8.33342 53.8436 11.9898 57.5 16.5001 57.5H41.0001C43.2552 57.5 45.0834 59.3281 45.0834 61.5833C45.0834 63.8385 43.2552 65.6666 41.0001 65.6666H16.5001C7.47943 65.6666 0.166748 58.354 0.166748 49.3333V16.6666ZM17.3949 18.199C18.8037 16.4381 21.3733 16.1525 23.1343 17.5613L41.0001 31.854L58.8659 17.5613C60.6269 16.1525 63.1965 16.4381 64.6053 18.199C66.0141 19.96 65.7286 22.5296 63.9676 23.9384L41.0001 42.3124L18.0326 23.9384C16.2716 22.5296 15.9861 19.96 17.3949 18.199ZM84.8124 48.0428C86.3548 46.3975 86.2714 43.8134 84.6262 42.271C82.981 40.7287 80.3969 40.812 78.8545 42.4572L66.1367 56.0229L59.8999 50.9831C58.1458 49.5657 55.5749 49.8386 54.1574 51.5926C52.74 53.3467 53.0129 55.9177 54.767 57.3351L63.9545 64.7593C65.618 66.1036 68.037 65.9364 69.4999 64.3761L84.8124 48.0428Z" fill="#2EB844"/>
</svg>
