<svg width="28" height="28" viewBox="0 0 28 28" fill="none" xmlns="http://www.w3.org/2000/svg">
<path d="M28 13.3114C27.9829 13.6928 27.9486 15.4675 27.8976 15.8375H0.102353C0.0571513 15.4675 0.0166258 13.6928 0 13.3114C0.358495 5.89911 6.49291 0 14 0C21.5071 0 27.641 5.89911 28 13.3114Z" fill="#27549D"/>
<path d="M0.357422 17.2371H27.6456C27.5547 17.6179 27.4466 17.9936 27.3266 18.3631H0.67695C0.557452 17.9931 0.448864 17.6179 0.357422 17.2371Z" fill="#27549D"/>
<path d="M1.21927 19.7626H26.782C26.6054 20.1498 26.4173 20.5249 26.2064 20.8892H1.79442C1.58919 20.5249 1.3954 20.1498 1.21875 19.7626H1.21927Z" fill="#27549D"/>
<path d="M2.70117 22.2882H25.3014C25.0105 22.6805 24.7034 23.0562 24.3787 23.4143H3.62391C3.2997 23.0562 2.9916 22.6805 2.70169 22.2882H2.70117Z" fill="#27549D"/>
<path d="M5.09427 24.8138H22.9104C22.4148 25.2232 21.8853 25.5989 21.3325 25.9404H6.67736C6.12455 25.5989 5.59512 25.2232 5.09375 24.8138H5.09427Z" fill="#27549D"/>
<path d="M9.72656 27.3347H18.2702C16.9261 27.767 15.4911 28 13.9989 28C12.5067 28 11.0769 27.7727 9.72708 27.3347H9.72656Z" fill="#27549D"/>
</svg>
