<svg width="24" height="24" viewBox="0 0 24 24" fill="none" xmlns="http://www.w3.org/2000/svg">
<path fill-rule="evenodd" clip-rule="evenodd" d="M7.19999 2.4C5.87451 2.4 4.79999 3.47452 4.79999 4.8V19.2C4.79999 20.5255 5.87451 21.6 7.19999 21.6H16.8C18.1255 21.6 19.2 20.5255 19.2 19.2V9.6H18C14.6863 9.6 12 6.91371 12 3.6V2.4H7.19999ZM14.4 2.89706V3.6C14.4 5.58822 16.0118 7.2 18 7.2H18.7029L14.4 2.89706ZM2.39999 4.8C2.39999 2.14903 4.54903 0 7.19999 0H13.4059C14.3607 0 15.2763 0.379284 15.9515 1.05442L20.5456 5.64853C21.2207 6.32366 21.6 7.23933 21.6 8.19411V19.2C21.6 21.851 19.451 24 16.8 24H7.19999C4.54903 24 2.39999 21.851 2.39999 19.2V4.8ZM8.39999 7.2C7.73725 7.2 7.19999 7.73726 7.19999 8.4C7.19999 9.06274 7.73725 9.6 8.39999 9.6H9.59999C10.2627 9.6 10.8 9.06274 10.8 8.4C10.8 7.73726 10.2627 7.2 9.59999 7.2H8.39999ZM7.19999 13.2C7.19999 12.5373 7.73725 12 8.39999 12H15.6C16.2627 12 16.8 12.5373 16.8 13.2C16.8 13.8627 16.2627 14.4 15.6 14.4H8.39999C7.73725 14.4 7.19999 13.8627 7.19999 13.2ZM7.19999 18C7.19999 17.3373 7.73725 16.8 8.39999 16.8H15.6C16.2627 16.8 16.8 17.3373 16.8 18C16.8 18.6627 16.2627 19.2 15.6 19.2H8.39999C7.73725 19.2 7.19999 18.6627 7.19999 18Z" fill="#C6C6C6"/>
</svg>
