<svg width="24" height="24" viewBox="0 0 24 24" fill="none" xmlns="http://www.w3.org/2000/svg">
<path fill-rule="evenodd" clip-rule="evenodd" d="M4.79999 4.8C4.79999 3.47452 5.87451 2.4 7.19999 2.4H12V3.6C12 6.91371 14.6863 9.6 18 9.6H19.2V19.2C19.2 20.5255 18.1255 21.6 16.8 21.6H7.19999C5.87451 21.6 4.79999 20.5255 4.79999 19.2V4.8ZM18.7029 7.2L14.4 2.89706V3.6C14.4 5.58822 16.0118 7.2 18 7.2H18.7029ZM7.19999 0C4.54903 0 2.39999 2.14903 2.39999 4.8V19.2C2.39999 21.851 4.54903 24 7.19999 24H16.8C19.451 24 21.6 21.851 21.6 19.2V8.19411C21.6 7.23933 21.2207 6.32366 20.5456 5.64853L15.9515 1.05442C15.2763 0.379284 14.3607 0 13.4059 0H7.19999Z" fill="#C6C6C6"/>
</svg>
