<svg width="16" height="16" viewBox="0 0 16 16" fill="none" xmlns="http://www.w3.org/2000/svg">
<path fill-rule="evenodd" clip-rule="evenodd" d="M2 3.85722C2 2.83151 2.83151 2 3.85722 2H12.1428C13.1685 2 14 2.83151 14 3.85722C14 4.3953 13.8075 4.91562 13.4573 5.32416L11.5679 7.52849C10.8429 8.3743 10.4444 9.45154 10.4444 10.5655V12C10.4444 13.1046 9.54901 14 8.44444 14H7.55556C6.45099 14 5.55556 13.1046 5.55556 12V10.5655C5.55556 9.45153 5.15706 8.3743 4.43209 7.52849L2.54265 5.32416C2.19248 4.91562 2 4.3953 2 3.85722ZM3.85722 3.33333C3.56789 3.33333 3.33333 3.56789 3.33333 3.85722C3.33333 4.07702 3.41196 4.28956 3.555 4.45644L5.44443 6.66077C6.37654 7.74823 6.88889 9.13325 6.88889 10.5655V12C6.88889 12.3682 7.18737 12.6667 7.55556 12.6667H8.44444C8.81263 12.6667 9.11111 12.3682 9.11111 12V10.5655C9.11111 9.13325 9.62346 7.74823 10.5556 6.66077L12.445 4.45643C12.588 4.28956 12.6667 4.07702 12.6667 3.85722C12.6667 3.56789 12.4321 3.33333 12.1428 3.33333H3.85722Z" fill="#17325E"/>
</svg>
