<svg width="24" height="24" viewBox="0 0 24 24" fill="none" xmlns="http://www.w3.org/2000/svg">
<path d="M8.01562 0C9.21927 2.20089e-05 10.3431 0.602019 11.0107 1.60352L12.2861 3.51562C12.5086 3.84936 12.8831 4.04972 13.2842 4.0498H19.2002C21.8509 4.04991 23.9998 6.19889 24 8.84961V19.2002C23.9999 21.851 21.851 23.9999 19.2002 24H4.7998C2.14899 23.9999 0.000105137 21.851 0 19.2002V4.7998C0.000105962 2.14899 2.14899 0.000105652 4.7998 0H8.01562ZM4.7998 2.40039C3.47448 2.4005 2.4005 3.47448 2.40039 4.7998V19.2002C2.4005 20.5255 3.47448 21.5995 4.7998 21.5996H19.2002C20.5255 21.5995 21.5995 20.5255 21.5996 19.2002V8.84961C21.5994 7.52437 20.5255 6.4503 19.2002 6.4502H13.2842C12.0806 6.45011 10.9567 5.84812 10.2891 4.84668L9.01367 2.93457C8.79112 2.60076 8.41682 2.40041 8.01562 2.40039H4.7998Z" fill="#C6C6C6"/>
</svg>
