<svg width="24" height="24" viewBox="0 0 24 24" fill="none" xmlns="http://www.w3.org/2000/svg">
<path fill-rule="evenodd" clip-rule="evenodd" d="M0 6C0 2.68629 2.68629 0 6 0H18C21.3137 0 24 2.68629 24 6V18C24 21.3137 21.3137 24 18 24H6C2.68629 24 0 21.3137 0 18V6ZM6 2.4C4.01178 2.4 2.4 4.01178 2.4 6V18C2.4 18.4779 2.49312 18.934 2.66221 19.3513L4.91152 16.5397C6.06495 15.0979 8.12933 14.7774 9.66562 15.8016C10.1661 16.1352 10.8386 16.0308 11.2144 15.5611L13.1334 13.1623C14.393 11.5878 16.7001 11.3548 18.2492 12.6456L21.6 15.438V6C21.6 4.01178 19.9882 2.4 18 2.4H6ZM21.5613 18.5298L16.7127 14.4894C16.1964 14.0591 15.4273 14.1367 15.0075 14.6616L13.0884 17.0604C11.935 18.5022 9.87064 18.8227 8.33434 17.7985C7.83387 17.4648 7.16136 17.5692 6.7856 18.0389L4.28425 21.1656C4.79429 21.4426 5.37877 21.6 6 21.6H18C19.8082 21.6 21.3051 20.2668 21.5613 18.5298ZM8.4 7.2C7.73726 7.2 7.2 7.73726 7.2 8.4C7.2 9.06274 7.73726 9.6 8.4 9.6C9.06274 9.6 9.6 9.06274 9.6 8.4C9.6 7.73726 9.06274 7.2 8.4 7.2ZM4.8 8.4C4.8 6.41178 6.41178 4.8 8.4 4.8C10.3882 4.8 12 6.41178 12 8.4C12 10.3882 10.3882 12 8.4 12C6.41178 12 4.8 10.3882 4.8 8.4Z" fill="#C6C6C6"/>
</svg>
