<svg width="27" height="30" viewBox="0 0 27 30" fill="none" xmlns="http://www.w3.org/2000/svg">
<path d="M20.7952 2.89215C20.0488 2.36822 19.2602 1.91806 18.4288 1.54225C17.5974 1.16644 16.7382 0.870755 15.8507 0.655762C19.0619 5.50263 19.166 12.0089 15.6091 17.046C12.0516 22.0831 5.86804 24.184 0.203125 22.8099C0.706133 23.5696 1.27563 24.2756 1.91162 24.9287C2.54761 25.5817 3.23967 26.1697 3.98667 26.693C10.5842 31.3168 19.6956 29.7369 24.3371 23.1667C28.9787 16.5964 27.3927 7.51653 20.7952 2.89273V2.89215Z" fill="#27549D"/>
<path d="M8.16905 18.9446L7.73773 16.6235C7.72386 16.5474 7.66199 16.4892 7.5851 16.4794L5.23773 16.171C5.06601 16.1485 5.02323 15.9197 5.17586 15.8373L7.2567 14.7116C7.32492 14.6747 7.36135 14.5986 7.34747 14.5225L6.91616 12.2014C6.88436 12.0314 7.08961 11.9207 7.21507 12.0394L8.93223 13.6643C8.98832 13.7173 9.07273 13.7283 9.14095 13.6919L11.2229 12.5657C11.375 12.4833 11.5444 12.6435 11.4698 12.7991L10.4494 14.9306C10.4158 15.0004 10.4314 15.0834 10.4875 15.137L12.2047 16.7618C12.3301 16.8805 12.2301 17.0903 12.0584 17.0679L9.71103 16.7595C9.63413 16.7491 9.55955 16.79 9.52602 16.8592L8.50555 18.9895C8.43096 19.1452 8.19969 19.1152 8.16847 18.9452L8.16905 18.9446Z" fill="#27549D"/>
<path d="M9.69438 9.20993L9.12893 8.19317C9.1058 8.15167 9.06359 8.12401 9.01618 8.1194L7.8558 8.007C7.73611 7.99547 7.68177 7.85195 7.76387 7.76434L8.55943 6.91474C8.59181 6.88016 8.6051 6.83116 8.59528 6.78505L8.34377 5.64899C8.31775 5.53198 8.43801 5.43572 8.54671 5.48702L9.60303 5.97926C9.64639 5.99943 9.69669 5.99713 9.73774 5.97292L10.7432 5.38385C10.8467 5.32333 10.9756 5.40748 10.9606 5.52622L10.8178 6.68015C10.812 6.72741 10.8299 6.77468 10.8658 6.80638L11.7388 7.57701C11.829 7.65655 11.7885 7.80469 11.67 7.82717L10.5258 8.0485C10.479 8.05772 10.4396 8.08885 10.4206 8.13265L9.95455 9.1984C9.90657 9.30849 9.75277 9.3154 9.69438 9.2105V9.20993Z" fill="#27549D"/>
<path d="M4.05935 9.4186L3.32218 10.406C3.27593 10.4682 3.27477 10.5529 3.31987 10.6163L4.03333 11.6198C4.13393 11.761 3.99401 11.9484 3.82924 11.893L2.6596 11.4994C2.58617 11.4746 2.50465 11.4994 2.45839 11.5622L1.72123 12.549C1.61716 12.6879 1.39572 12.6135 1.39803 12.44L1.41248 11.2094C1.41364 11.1322 1.36392 11.0625 1.29049 11.0377L0.122008 10.644C-0.042771 10.5887 -0.0398801 10.3552 0.126055 10.3039L1.30379 9.93735C1.37779 9.9143 1.42867 9.84628 1.42983 9.76847L1.44486 8.5373C1.44717 8.36381 1.67035 8.29464 1.77095 8.43586L2.48499 9.43993C2.53009 9.50333 2.61045 9.53042 2.68504 9.50736L3.86335 9.14078C4.02928 9.08891 4.16457 9.27911 4.0605 9.4186H4.05935Z" fill="#27549D"/>
</svg>
