<svg width="24" height="24" viewBox="0 0 24 24" fill="none" xmlns="http://www.w3.org/2000/svg">
<path d="M12 0C14.673 0 17.2229 1.0728 19.0928 2.96094C20.9606 4.84718 21.9999 7.39347 22 10.0361C22 13.9324 19.5453 17.4094 17.3037 19.7988C16.161 21.0169 15.0222 22.007 14.1699 22.6924C13.7429 23.0358 13.385 23.3046 13.1318 23.4893C13.0053 23.5815 12.9044 23.6529 12.834 23.7021C12.7988 23.7267 12.7715 23.7463 12.752 23.7598L12.7285 23.7754L12.7217 23.7803L12.7188 23.7812C12.7141 23.7758 12.6603 23.7037 12 22.7998L12.7178 23.7822C12.287 24.0723 11.712 24.0723 11.2812 23.7822L11.2783 23.7803L11.2715 23.7754L11.248 23.7598C11.2285 23.7463 11.2012 23.7267 11.166 23.7021C11.0956 23.6529 10.9947 23.5815 10.8682 23.4893C10.615 23.3046 10.2571 23.0358 9.83008 22.6924C8.97782 22.007 7.83898 21.0169 6.69629 19.7988C4.45474 17.4094 2 13.9324 2 10.0361C2.00008 7.39347 3.03943 4.84718 4.90723 2.96094C6.7771 1.0728 9.32701 0 12 0ZM12 2.40039C10.0319 2.40039 8.13072 3.18931 6.71875 4.61523C5.30491 6.04313 4.50008 7.99197 4.5 10.0361C4.5 13.0125 6.42033 15.9182 8.55371 18.1924C9.59848 19.3061 10.6472 20.2186 11.4355 20.8525C11.6443 21.0204 11.8341 21.1686 12 21.2949C12.1659 21.1686 12.3557 21.0204 12.5645 20.8525C13.3528 20.2186 14.4015 19.3061 15.4463 18.1924C17.5797 15.9182 19.5 13.0125 19.5 10.0361C19.4999 7.99197 18.6951 6.04313 17.2812 4.61523C15.8693 3.18931 13.9681 2.40039 12 2.40039ZM12 5C14.7614 5 17 7.01472 17 9.5C17 11.9853 14.7614 14 12 14C9.23858 14 7 11.9853 7 9.5C7 7.01472 9.23858 5 12 5ZM12 7.25C10.6193 7.25 9.5 8.25736 9.5 9.5C9.5 10.7426 10.6193 11.75 12 11.75C13.3807 11.75 14.5 10.7426 14.5 9.5C14.5 8.25736 13.3807 7.25 12 7.25Z" fill="#F1FF24"/>
</svg>
