<svg width="12" height="12" viewBox="0 0 12 12" fill="none" xmlns="http://www.w3.org/2000/svg">
<path d="M6 0C7.33659 0 8.61192 0.536275 9.54688 1.48047C10.4808 2.42363 11 3.69719 11 5.01855C10.9999 6.96648 9.77302 8.70476 8.65234 9.89941C8.08108 10.5084 7.51108 11.003 7.08496 11.3457C6.87166 11.5172 6.69296 11.6518 6.56641 11.7441C6.50309 11.7903 6.45223 11.8269 6.41699 11.8516C6.39953 11.8638 6.38572 11.8732 6.37598 11.8799L6.36426 11.8877L6.36035 11.8896L6.35938 11.8906L6 11.4004L6.3584 11.8916C6.14308 12.0363 5.85586 12.0365 5.64062 11.8916L5.63965 11.8896L5.63574 11.8877L5.62402 11.8799C5.61428 11.8732 5.60048 11.8638 5.58301 11.8516C5.54777 11.8269 5.49691 11.7903 5.43359 11.7441C5.30704 11.6518 5.12833 11.5172 4.91504 11.3457C4.48892 11.003 3.91892 10.5084 3.34766 9.89941C2.22699 8.70476 1.00014 6.96648 1 5.01855C1 3.69719 1.51922 2.42363 2.45312 1.48047C3.38808 0.536277 4.66341 1.91394e-06 6 0ZM6 1.2002C5.01595 1.2002 4.06536 1.59466 3.35938 2.30762C2.65242 3.0216 2.25 3.99641 2.25 5.01855C2.25014 6.50668 3.2107 7.95965 4.27734 9.09668C4.79951 9.65325 5.32373 10.1089 5.71777 10.4258C5.82216 10.5097 5.91705 10.5843 6 10.6475C6.08295 10.5843 6.17784 10.5097 6.28223 10.4258C6.67627 10.1089 7.20049 9.65325 7.72266 9.09668C8.7893 7.95965 9.74986 6.50668 9.75 5.01855C9.75 3.99641 9.34758 3.0216 8.64062 2.30762C7.93464 1.59466 6.98405 1.2002 6 1.2002ZM6 2.5C7.38071 2.5 8.5 3.50736 8.5 4.75C8.5 5.99264 7.38071 7 6 7C4.61929 7 3.5 5.99264 3.5 4.75C3.5 3.50736 4.61929 2.5 6 2.5ZM6 3.625C5.30965 3.625 4.75 4.12868 4.75 4.75C4.75 5.37132 5.30965 5.875 6 5.875C6.69036 5.875 7.25 5.37132 7.25 4.75C7.25 4.12868 6.69036 3.625 6 3.625Z" fill="#27549D"/>
</svg>
