<svg width="24" height="24" viewBox="0 0 24 24" fill="none" xmlns="http://www.w3.org/2000/svg">
<path d="M12.4004 0C15.0511 0.000209881 17.2001 2.14906 17.2002 4.7998V8.70801C19.3756 10.226 20.7997 12.7458 20.7998 15.5996C20.7998 20.2387 17.0394 23.9998 12.4004 24C7.7612 24 4 20.2388 4 15.5996C4.00012 12.7459 5.42431 10.226 7.59961 8.70801V4.7998C7.59971 2.14893 9.74949 0 12.4004 0ZM12.4004 9.59961C9.0868 9.59961 6.40059 12.2861 6.40039 15.5996C6.40039 18.9133 9.08668 21.5996 12.4004 21.5996C15.7139 21.5994 18.4004 18.9132 18.4004 15.5996C18.4002 12.2862 15.7138 9.59982 12.4004 9.59961ZM12.4004 13.2002C13.063 13.2004 13.5996 13.7378 13.5996 14.4004V16.7998C13.5996 17.4624 13.063 17.9998 12.4004 18C11.7376 18 11.2002 17.4625 11.2002 16.7998V14.4004C11.2002 13.7376 11.7376 13.2002 12.4004 13.2002ZM12.4004 2.40039C11.075 2.40039 10.0001 3.47441 10 4.7998V7.54883C10.7605 7.32245 11.5663 7.2002 12.4004 7.2002C13.2343 7.20023 14.0394 7.32252 14.7998 7.54883V4.7998C14.7997 3.47454 13.7256 2.4006 12.4004 2.40039Z" fill="#F1FF24"/>
</svg>
