<svg width="136" height="32" viewBox="0 0 136 32" fill="none" xmlns="http://www.w3.org/2000/svg">
<path d="M8 0.5H128C132.142 0.5 135.5 3.85786 135.5 8V24C135.5 28.1421 132.142 31.5 128 31.5H8C3.85786 31.5 0.5 28.1421 0.5 24V8C0.5 3.85786 3.85786 0.5 8 0.5Z" stroke="#27549D"/>
<path d="M24.2666 8C26.0339 8 27.4668 9.43288 27.4668 11.2002V13.8057C28.917 14.8177 29.8662 16.4978 29.8662 18.4004C29.866 21.493 27.3593 24 24.2666 24C21.174 24 18.6672 21.493 18.667 18.4004C18.667 16.4979 19.6162 14.8177 21.0664 13.8057V11.2002C21.0664 9.43291 22.4993 8.00004 24.2666 8ZM24.2666 14.4004C22.0575 14.4004 20.2666 16.1913 20.2666 18.4004C20.2668 20.6093 22.0576 22.4004 24.2666 22.4004C26.4756 22.4004 28.2664 20.6093 28.2666 18.4004C28.2666 16.1913 26.4757 14.4004 24.2666 14.4004ZM24.2666 16.7998C24.7083 16.7998 25.0662 17.158 25.0664 17.5996V19.2002C25.0663 19.6419 24.7084 20 24.2666 20C23.8249 20 23.4669 19.6419 23.4668 19.2002V17.5996C23.467 17.158 23.8249 16.7998 24.2666 16.7998ZM24.2666 9.59961C23.383 9.59965 22.667 10.3166 22.667 11.2002V13.0332C23.174 12.8823 23.7106 12.7998 24.2666 12.7998C24.8226 12.7998 25.3593 12.8823 25.8662 13.0332V11.2002C25.8662 10.3165 25.1503 9.59961 24.2666 9.59961Z" fill="#17325E"/>
<path d="M38.6619 19.109H42.4449V20.5H37.1799V11.4H38.6619V19.109ZM46.7743 20.682C44.6163 20.682 43.0173 19.109 43.0173 16.99C43.0173 14.871 44.6163 13.311 46.7743 13.311C48.9193 13.311 50.5183 14.884 50.5183 16.99C50.5183 19.109 48.9193 20.682 46.7743 20.682ZM46.7743 19.304C48.1003 19.304 49.0493 18.342 49.0493 16.99C49.0493 15.651 48.1003 14.689 46.7743 14.689C45.4353 14.689 44.4863 15.651 44.4863 16.99C44.4863 18.342 45.4353 19.304 46.7743 19.304ZM57.8015 13.48H58.7505V19.59C58.7505 21.826 57.4245 23.191 55.2535 23.191C53.4465 23.191 52.1725 22.255 51.8215 20.721H53.2515C53.5245 21.488 54.3565 21.917 55.2405 21.917C56.4495 21.917 57.3465 21.111 57.3465 19.785V19.46C56.7355 19.993 55.9295 20.305 55.0195 20.305C53.0565 20.305 51.5485 18.784 51.5485 16.808C51.5485 14.845 53.0565 13.311 55.0195 13.311C56.0465 13.311 56.9435 13.727 57.5805 14.39L57.8015 13.48ZM55.1755 18.966C56.4235 18.966 57.3335 18.056 57.3335 16.808C57.3335 15.573 56.4365 14.663 55.1755 14.663C53.9275 14.663 53.0175 15.586 53.0175 16.808C53.0175 18.043 53.9275 18.966 55.1755 18.966ZM60.7896 12.401V10.906H62.2716V12.401H60.7896ZM60.8156 20.5V13.48H62.2586V20.5H60.8156ZM68.0118 13.324C69.6628 13.324 70.6898 14.546 70.6898 16.275V20.5H69.2468V16.574C69.2468 15.3 68.6878 14.624 67.6348 14.624C66.5298 14.624 65.7498 15.508 65.7498 16.743V20.5H64.3068V13.48H65.3078L65.5938 14.468C66.1138 13.753 66.9848 13.324 68.0118 13.324ZM81.37 10.971H82.813V20.513H81.721L81.526 19.707C80.902 20.318 80.031 20.682 79.056 20.682C76.924 20.682 75.403 19.096 75.403 17.003C75.403 14.884 76.924 13.311 79.056 13.311C79.953 13.311 80.746 13.61 81.37 14.13V10.971ZM79.16 19.304C80.486 19.304 81.461 18.303 81.461 16.99C81.461 15.677 80.486 14.689 79.16 14.689C77.847 14.689 76.872 15.677 76.872 16.99C76.872 18.316 77.847 19.304 79.16 19.304ZM91.5422 17.016C91.5422 17.172 91.5292 17.328 91.5032 17.484H85.8092C85.9912 18.628 86.8102 19.33 87.9542 19.33C88.7992 19.33 89.4752 18.94 89.8522 18.29H91.3732C90.8142 19.772 89.5272 20.682 87.9542 20.682C85.9002 20.682 84.3532 19.096 84.3532 16.99C84.3532 14.897 85.9002 13.311 87.9542 13.311C90.1122 13.311 91.5422 14.975 91.5422 17.016ZM87.9542 14.624C86.8752 14.624 86.0822 15.274 85.8482 16.314H90.0862C89.8262 15.248 89.0332 14.624 87.9542 14.624ZM96.1055 19.2H96.9115V20.5H95.8325C94.2985 20.5 93.3495 19.551 93.3495 18.004V14.728H92.0885V14.442L94.5325 11.842H94.7795V13.48H96.8725V14.728H94.7925V17.887C94.7925 18.732 95.2605 19.2 96.1055 19.2ZM104.117 13.48H105.222V20.5H104.065L103.922 19.655C103.285 20.292 102.401 20.682 101.374 20.682C99.2814 20.682 97.7214 19.096 97.7214 16.99C97.7214 14.884 99.2814 13.311 101.374 13.311C102.414 13.311 103.311 13.701 103.948 14.364L104.117 13.48ZM101.491 19.291C102.817 19.291 103.779 18.316 103.779 16.99C103.779 15.664 102.817 14.689 101.491 14.689C100.165 14.689 99.1904 15.677 99.1904 16.99C99.1904 18.303 100.165 19.291 101.491 19.291ZM107.267 12.401V10.906H108.749V12.401H107.267ZM107.293 20.5V13.48H108.736V20.5H107.293ZM110.784 20.5V10.971H112.227V20.5H110.784ZM116.603 20.682C114.9 20.682 113.782 19.733 113.743 18.277H115.147C115.186 19.018 115.81 19.408 116.655 19.408C117.435 19.408 118.033 19.083 118.033 18.498C118.033 17.822 117.279 17.679 116.421 17.536C115.251 17.328 113.873 17.068 113.873 15.443C113.873 14.182 114.952 13.311 116.59 13.311C118.215 13.311 119.281 14.208 119.307 15.56H117.942C117.916 14.897 117.396 14.533 116.551 14.533C115.758 14.533 115.264 14.884 115.264 15.391C115.264 16.015 115.979 16.132 116.824 16.275C118.007 16.47 119.45 16.704 119.45 18.433C119.45 19.798 118.319 20.682 116.603 20.682Z" fill="#17325E"/>
</svg>
