<svg width="16" height="16" viewBox="0 0 16 16" fill="none" xmlns="http://www.w3.org/2000/svg">
<path d="M12.7998 1.60022C14.5671 1.60022 16 3.0331 16 4.80042V11.1998C16 12.9671 14.5671 14.4 12.7998 14.4H3.2002C1.43288 14.4 0 12.9671 0 11.1998V4.80042C0 3.0331 1.43288 1.60022 3.2002 1.60022H12.7998ZM3.2002 3.19983C2.31654 3.19983 1.59961 3.91676 1.59961 4.80042V11.1998C1.59961 12.0835 2.31654 12.8004 3.2002 12.8004H12.7998C13.6835 12.8004 14.4004 12.0835 14.4004 11.1998V4.80042C14.4004 3.91676 13.6835 3.19983 12.7998 3.19983H3.2002ZM11.5 4.97522C11.845 4.69921 12.349 4.75521 12.625 5.10022C12.9008 5.4451 12.8446 5.94821 12.5 6.22424L8 9.82483L3.5 6.22424C3.15537 5.94821 3.09921 5.4451 3.375 5.10022C3.65101 4.75521 4.15499 4.69921 4.5 4.97522L8 7.77502L11.5 4.97522Z" fill="#CDD1DA"/>
</svg>
