<svg width="16" height="16" viewBox="0 0 16 16" fill="none" xmlns="http://www.w3.org/2000/svg">
<path d="M12.7998 1.60019C14.5671 1.60019 16 3.03307 16 4.80038V11.1998C16 12.9671 14.5671 14.4 12.7998 14.4H3.2002C1.43288 14.4 0 12.9671 0 11.1998V4.80038C0 3.03307 1.43288 1.60019 3.2002 1.60019H12.7998ZM3.2002 3.1998C2.31654 3.1998 1.59961 3.91673 1.59961 4.80038V11.1998C1.59961 12.0835 2.31654 12.8004 3.2002 12.8004H12.7998C13.6835 12.8004 14.4004 12.0835 14.4004 11.1998V4.80038C14.4004 3.91673 13.6835 3.1998 12.7998 3.1998H3.2002ZM11.5 4.97519C11.845 4.69918 12.349 4.75518 12.625 5.10019C12.9008 5.44507 12.8446 5.94818 12.5 6.22421L8 9.8248L3.5 6.22421C3.15537 5.94818 3.09921 5.44507 3.375 5.10019C3.65101 4.75518 4.15499 4.69918 4.5 4.97519L8 7.77499L11.5 4.97519Z" fill="#17325E"/>
</svg>
