<svg width="34" height="24" viewBox="0 0 34 24" fill="none" xmlns="http://www.w3.org/2000/svg">
<path d="M2.7411 20.9489C2.532 20.9489 2.36211 20.78 2.36211 20.5722C2.36211 20.3644 2.532 20.1955 2.7411 20.1955H8.01L7.99378 20.0016C7.96764 19.6903 7.95502 19.4136 7.95502 19.1551C7.95502 14.2026 12.0081 10.1736 16.9895 10.1736C21.9709 10.1736 26.0239 14.2026 26.0239 19.1551C26.0239 19.4136 26.0113 19.6903 25.9852 20.0016L25.969 20.1955H31.2379C31.4546 20.1955 31.6245 20.3612 31.6245 20.5722C31.6245 20.7831 31.4546 20.9489 31.2455 20.9489H2.7411ZM28.2889 17.558C28.1019 17.558 27.9423 17.4259 27.9094 17.2445C27.8774 17.039 28.0077 16.8526 28.2132 16.8119L33.0062 16.4039L33.012 16.403C33.0332 16.3999 33.0544 16.3981 33.0756 16.3981C33.2644 16.3981 33.4199 16.527 33.4532 16.7116C33.4848 16.9104 33.3491 17.1043 33.1495 17.1442L28.3565 17.5522L28.3502 17.5531C28.3299 17.5562 28.3096 17.558 28.2893 17.558H28.2889ZM5.70857 17.5442C5.68604 17.5442 5.66306 17.5419 5.64008 17.5379L5.63512 17.537L0.917354 16.961C0.712312 16.9207 0.581176 16.7317 0.618128 16.5275C0.651025 16.3497 0.806046 16.2198 0.986302 16.2198C1.00883 16.2198 1.03182 16.222 1.0548 16.2261L1.05976 16.227L5.77752 16.8029C5.98256 16.8432 6.1137 17.0322 6.07675 17.236C6.04385 17.4138 5.88883 17.5437 5.70857 17.5437V17.5442ZM26.9257 13.8452C26.7918 13.8452 26.6657 13.7718 26.5958 13.654C26.4895 13.4739 26.5512 13.2482 26.7364 13.1398L33.4293 9.31189C33.4888 9.27696 33.5519 9.25994 33.6182 9.25994C33.752 9.25994 33.8782 9.33339 33.948 9.45118C34.0544 9.63122 33.9926 9.85695 33.8074 9.96533L27.1145 13.7933C27.055 13.8282 26.9919 13.8452 26.9257 13.8452ZM7.06861 13.8295C7.00327 13.8295 6.93883 13.8116 6.88114 13.7785L0.185513 9.93308C0.00480536 9.82739 -0.053778 9.60121 0.0539253 9.41938C0.123775 9.30159 0.249954 9.22814 0.383795 9.22814C0.449138 9.22814 0.51358 9.24605 0.571262 9.2792L7.25923 13.1241C7.44354 13.2321 7.50528 13.4578 7.39893 13.6378C7.32908 13.7556 7.2029 13.8291 7.06906 13.8291L7.06861 13.8295ZM24.3723 10.8051C24.2836 10.8051 24.1975 10.7742 24.1299 10.7182C23.9704 10.5861 23.9483 10.3492 24.0808 10.1893L27.8864 5.9072C27.9581 5.82165 28.064 5.77283 28.1776 5.77283C28.2663 5.77283 28.3524 5.80374 28.42 5.85972C28.5795 5.99184 28.6016 6.22877 28.4691 6.38865L24.6635 10.6707C24.5918 10.7563 24.4859 10.8051 24.3723 10.8051ZM9.62961 10.797C9.51604 10.797 9.41014 10.7478 9.33849 10.6627L9.33489 10.6586L5.28813 6.38686C5.15744 6.22697 5.17997 5.99184 5.33905 5.86017C5.40664 5.80419 5.49272 5.77328 5.58149 5.77328C5.69506 5.77328 5.80096 5.8221 5.87261 5.90764L5.87621 5.91167L9.92297 10.1834C10.0537 10.3433 10.0311 10.5785 9.87205 10.7101C9.80445 10.7661 9.71838 10.797 9.62961 10.797ZM20.9308 8.82237C20.8862 8.82237 20.8416 8.81476 20.7983 8.79953C20.6014 8.72563 20.5022 8.51379 20.5761 8.31941L23.2309 1.1065C23.2872 0.9587 23.4269 0.862408 23.586 0.862408C23.6306 0.862408 23.6752 0.870022 23.7185 0.885249C23.9104 0.957356 24.0091 1.17099 23.9388 1.36939L21.2854 8.57828C21.2291 8.72563 21.0894 8.82237 20.9303 8.82237H20.9308ZM13.0666 8.81789C12.9094 8.81789 12.7692 8.71936 12.7174 8.57291L10.078 1.35193C10.0032 1.15531 10.1023 0.943472 10.3033 0.86823C10.3466 0.852107 10.3916 0.843597 10.4367 0.843597C10.594 0.843597 10.7341 0.942128 10.786 1.08858L13.4249 8.30956C13.4619 8.40675 13.4583 8.50931 13.4154 8.60067C13.3731 8.6907 13.2978 8.75877 13.2036 8.79147C13.1563 8.80938 13.1113 8.81744 13.0662 8.81744L13.0666 8.81789ZM16.9971 8.13176C16.7844 8.13176 16.6182 7.96605 16.6182 7.7551L16.6105 2.67135C16.6105 2.46398 16.7804 2.29469 16.9895 2.29469C17.1986 2.29469 17.3685 2.46354 17.3685 2.67135L17.3761 7.7551C17.3761 7.96246 17.2062 8.13176 16.9971 8.13176Z" fill="#27549D"/>
<path d="M5.02864 23.1564C4.86641 23.1564 4.73438 23.0252 4.73438 22.8639C4.73438 22.7027 4.86641 22.5715 5.02864 22.5715H27.6774C27.8397 22.5715 27.9717 22.7027 27.9717 22.8639C27.9717 23.0252 27.8397 23.1564 27.6774 23.1564H5.02864Z" fill="#27549D"/>
</svg>
