<svg width="18" height="18" viewBox="0 0 18 18" fill="none" xmlns="http://www.w3.org/2000/svg">
<path fill-rule="evenodd" clip-rule="evenodd" d="M10.6193 2.43453C9.63219 1.60972 8.20999 1.60972 7.22287 2.43453L2.43629 6.43408C2.02348 6.77901 1.78422 7.29401 1.78422 7.8376V14.3682C1.78422 15.3711 2.58304 16.1841 3.56844 16.1841H14.2737C15.2591 16.1841 16.058 15.3711 16.058 14.3682V7.8376C16.058 7.29401 15.8187 6.77901 15.4059 6.43408L10.6193 2.43453ZM6.09071 1.03102C7.73592 -0.343674 10.1063 -0.343672 11.7515 1.03102L16.538 5.03057C17.3636 5.72042 17.8422 6.75042 17.8422 7.8376V14.3682C17.8422 16.374 16.2445 18 14.2737 18H3.56844C1.59764 18 0 16.374 0 14.3682V7.8376C0 6.75042 0.478535 5.72042 1.30414 5.03057L6.09071 1.03102Z" fill="#17325E"/>
<path fill-rule="evenodd" clip-rule="evenodd" d="M5.40039 13.4602C5.40039 11.4544 7.01217 9.82837 9.00039 9.82837C10.9886 9.82837 12.6004 11.4544 12.6004 13.4602V17.0921H10.8004V13.4602C10.8004 12.4573 9.9945 11.6443 9.00039 11.6443C8.00628 11.6443 7.20039 12.4573 7.20039 13.4602V17.0921H5.40039V13.4602Z" fill="#17325E"/>
</svg>
