<svg width="18" height="18" viewBox="0 0 18 18" fill="none" xmlns="http://www.w3.org/2000/svg">
<path fill-rule="evenodd" clip-rule="evenodd" d="M14.5391 3.46312C14.5951 3.54642 14.6483 3.62557 14.6984 3.69905C15.1302 4.33297 16.7668 6.56175 17.6075 7.7034C17.9307 8.14226 18.0605 8.69232 17.9682 9.22946L17.2077 13.6541C17.1595 13.9595 17.0052 14.2382 16.7721 14.4413C16.5389 14.6444 16.2417 14.7589 15.9325 14.7648H15.1098C14.9308 15.3564 14.5661 15.8747 14.0698 16.2431C13.5734 16.6115 12.9717 16.8104 12.3536 16.8104C11.7355 16.8104 11.1338 16.6115 10.6375 16.2431C10.1411 15.8747 9.77648 15.3564 9.59747 14.7648H7.70518C7.52617 15.3564 7.16154 15.8747 6.66519 16.2431C6.16885 16.6115 5.56714 16.8104 4.94903 16.8104C4.33092 16.8104 3.72922 16.6115 3.23287 16.2431C2.73653 15.8747 2.3719 15.3564 2.19288 14.7648H1.16447C0.999405 14.7621 0.836843 14.724 0.687797 14.6531C0.53875 14.5821 0.406701 14.4799 0.300598 14.3534C0.185352 14.227 0.0997133 14.0765 0.0499042 13.9128C9.51155e-05 13.7492 -0.012634 13.5765 0.0126417 13.4073L0.341734 11.6384C0.380198 11.4498 0.483593 11.2806 0.633921 11.1603C0.78425 11.0401 0.971991 10.9763 1.16447 10.9802H4.41426C4.70178 10.9747 4.97832 10.8688 5.19613 10.6811C5.41394 10.4933 5.55934 10.2354 5.60722 9.95181L6.5945 4.27496C6.62411 4.09997 6.61563 3.92065 6.56964 3.74923C6.52364 3.57782 6.44122 3.41834 6.32798 3.28167C6.21474 3.14501 6.07336 3.03438 5.91348 2.95733C5.7536 2.88027 5.57898 2.83861 5.40154 2.83518H2.39856C2.27931 2.83653 2.16118 2.81194 2.05237 2.7631C1.94356 2.71427 1.84667 2.64236 1.76841 2.55236C1.69015 2.46236 1.63239 2.35643 1.59914 2.24189C1.56589 2.12735 1.55793 2.00696 1.57583 1.88904C1.61452 1.68946 1.72236 1.50992 1.88037 1.38201C2.03838 1.25409 2.23644 1.186 2.4397 1.18972H12.2302C13.0099 1.18972 13.9364 2.56714 14.5391 3.46312ZM4.07639 14.8147C4.30783 15.0461 4.62173 15.1762 4.94903 15.1762C5.27634 15.1762 5.59023 15.0461 5.82167 14.8147C6.05311 14.5833 6.18313 14.2694 6.18313 13.9421C6.18313 13.6148 6.05311 13.3009 5.82167 13.0694C5.59023 12.838 5.27634 12.708 4.94903 12.708C4.62173 12.708 4.30783 12.838 4.07639 13.0694C3.84496 13.3009 3.71494 13.6148 3.71494 13.9421C3.71494 14.2694 3.84496 14.5833 4.07639 14.8147ZM11.481 14.8147C11.7124 15.0461 12.0263 15.1762 12.3536 15.1762C12.6809 15.1762 12.9948 15.0461 13.2263 14.8147C13.4577 14.5833 13.5877 14.2694 13.5877 13.9421C13.5877 13.6148 13.4577 13.3009 13.2263 13.0694C12.9948 12.838 12.6809 12.708 12.3536 12.708C12.0263 12.708 11.7124 12.838 11.481 13.0694C11.2495 13.3009 11.1195 13.6148 11.1195 13.9421C11.1195 14.2694 11.2495 14.5833 11.481 14.8147ZM12.9707 4.89201L12.3948 8.18294H15.9325L13.5054 4.89201H12.9707ZM4.94899 5.30338H0.835335C0.617133 5.30338 0.407868 5.2167 0.253576 5.06241C0.0992834 4.90812 0.012603 4.69885 0.012603 4.48065C0.012603 4.26245 0.0992834 4.05318 0.253576 3.89889C0.407868 3.7446 0.617133 3.65792 0.835335 3.65792H4.94899C5.1672 3.65792 5.37646 3.7446 5.53075 3.89889C5.68505 4.05318 5.77173 4.26245 5.77173 4.48065C5.77173 4.69885 5.68505 4.90812 5.53075 5.06241C5.37646 5.2167 5.1672 5.30338 4.94899 5.30338ZM5.36025 6.94887C5.36025 6.73067 5.27357 6.5214 5.11927 6.36711C4.96498 6.21282 4.75572 6.12614 4.53751 6.12614H1.24659C1.02838 6.12614 0.819119 6.21282 0.664827 6.36711C0.510535 6.5214 0.423854 6.73067 0.423854 6.94887C0.423854 7.16707 0.510535 7.37634 0.664827 7.53063C0.819119 7.68492 1.02838 7.7716 1.24659 7.7716H4.53751C4.75572 7.7716 4.96498 7.68492 5.11927 7.53063C5.27357 7.37634 5.36025 7.16707 5.36025 6.94887ZM1.07635 8.83528C1.23064 8.68098 1.4399 8.5943 1.65811 8.5943H4.1263C4.3445 8.5943 4.55377 8.68098 4.70806 8.83528C4.86235 8.98957 4.94903 9.19883 4.94903 9.41703C4.94903 9.63524 4.86235 9.8445 4.70806 9.99879C4.55377 10.1531 4.3445 10.2398 4.1263 10.2398H1.65811C1.4399 10.2398 1.23064 10.1531 1.07635 9.99879C0.922054 9.8445 0.835374 9.63524 0.835374 9.41703C0.835374 9.19883 0.922054 8.98957 1.07635 8.83528Z" fill="#17325E"/>
</svg>
