<svg width="18" height="18" viewBox="0 0 18 18" fill="none" xmlns="http://www.w3.org/2000/svg">
<path fill-rule="evenodd" clip-rule="evenodd" d="M4.5 0C2.01472 0 0 2.01472 0 4.5V13.5C0 15.9853 2.01472 18 4.5 18H13.5C15.9853 18 18 15.9853 18 13.5V4.5C18 2.01472 15.9853 0 13.5 0H4.5ZM1.8 4.5C1.8 3.00883 3.00883 1.8 4.5 1.8H13.5C14.9912 1.8 16.2 3.00883 16.2 4.5V13.5C16.2 14.9912 14.9912 16.2 13.5 16.2H4.5C3.00883 16.2 1.8 14.9912 1.8 13.5V4.5ZM6.3 8.10003C6.3 7.60297 5.89706 7.20003 5.4 7.20003C4.90294 7.20003 4.5 7.60297 4.5 8.10003V12.6C4.5 13.0971 4.90294 13.5 5.4 13.5C5.89706 13.5 6.3 13.0971 6.3 12.6V8.10003ZM12.6 9C13.0971 9 13.5 9.40294 13.5 9.9V12.6C13.5 13.0971 13.0971 13.5 12.6 13.5C12.103 13.5 11.7 13.0971 11.7 12.6V9.9C11.7 9.40294 12.103 9 12.6 9ZM9.90001 5.4C9.90001 4.90294 9.49707 4.5 9.00001 4.5C8.50296 4.5 8.10001 4.90294 8.10001 5.4V12.6C8.10001 13.0971 8.50296 13.5 9.00001 13.5C9.49707 13.5 9.90001 13.0971 9.90001 12.6V5.4Z" fill="#17325E"/>
</svg>
