<svg width="18" height="18" viewBox="0 0 18 18" fill="none" xmlns="http://www.w3.org/2000/svg">
<path fill-rule="evenodd" clip-rule="evenodd" d="M5.40078 1.8C4.40667 1.8 3.60078 2.60589 3.60078 3.6V14.4C3.60078 15.3941 4.40667 16.2 5.40078 16.2H12.6008C13.5949 16.2 14.4008 15.3941 14.4008 14.4V7.19997H13.5008C11.0155 7.19997 9.00076 5.18525 9.00076 2.69997V1.8H5.40078ZM10.8008 2.17277V2.69997C10.8008 4.19114 12.0096 5.39997 13.5008 5.39997H14.028L10.8008 2.17277ZM1.80078 3.6C1.80078 1.61178 3.41256 0 5.40078 0H10.0552C10.7713 0 11.458 0.284463 11.9644 0.790812L15.41 4.2364C15.9163 4.74274 16.2008 5.4295 16.2008 6.14558V14.4C16.2008 16.3882 14.589 18 12.6008 18H5.40078C3.41256 18 1.80078 16.3882 1.80078 14.4V3.6ZM6.30081 5.39997C5.80375 5.39997 5.40081 5.80291 5.40081 6.29997C5.40081 6.79703 5.80375 7.19997 6.30081 7.19997H7.20081C7.69786 7.19997 8.10081 6.79703 8.10081 6.29997C8.10081 5.80291 7.69786 5.39997 7.20081 5.39997H6.30081ZM5.40081 9.89999C5.40081 9.40294 5.80375 9 6.30081 9H11.7008C12.1979 9 12.6008 9.40294 12.6008 9.89999C12.6008 10.3971 12.1979 10.8 11.7008 10.8H6.30081C5.80375 10.8 5.40081 10.3971 5.40081 9.89999ZM5.40081 13.5C5.40081 13.003 5.80375 12.6 6.30081 12.6H11.7008C12.1979 12.6 12.6008 13.003 12.6008 13.5C12.6008 13.9971 12.1979 14.4 11.7008 14.4H6.30081C5.80375 14.4 5.40081 13.9971 5.40081 13.5Z" fill="#17325E"/>
</svg>
