<svg width="20" height="20" viewBox="0 0 20 20" fill="none" xmlns="http://www.w3.org/2000/svg">
<path fill-rule="evenodd" clip-rule="evenodd" d="M1.66602 5.83335C1.66602 3.53217 3.5315 1.66669 5.83268 1.66669H14.166C16.4672 1.66669 18.3327 3.53217 18.3327 5.83335V14.1667C18.3327 16.4679 16.4672 18.3334 14.166 18.3334H5.83268C3.5315 18.3334 1.66602 16.4679 1.66602 14.1667V5.83335ZM5.83268 3.33335C4.45197 3.33335 3.33268 4.45264 3.33268 5.83335V14.1667C3.33268 15.5474 4.45197 16.6667 5.83268 16.6667H14.166C15.5467 16.6667 16.666 15.5474 16.666 14.1667V5.83335C16.666 4.45264 15.5467 3.33335 14.166 3.33335H5.83268ZM9.99935 9.16669C10.4596 9.16669 10.8327 9.53978 10.8327 10V13.3334C10.8327 13.7936 10.4596 14.1667 9.99935 14.1667C9.53911 14.1667 9.16602 13.7936 9.16602 13.3334V10C9.16602 9.53978 9.53911 9.16669 9.99935 9.16669ZM9.99935 5.83335C9.53911 5.83335 9.16602 6.20645 9.16602 6.66669C9.16602 7.12692 9.53911 7.50002 9.99935 7.50002H10.0077C10.4679 7.50002 10.841 7.12692 10.841 6.66669C10.841 6.20645 10.4679 5.83335 10.0077 5.83335H9.99935Z" fill="#17325E"/>
</svg>
