<svg width="24" height="24" viewBox="0 0 24 24" fill="none" xmlns="http://www.w3.org/2000/svg">
<path fill-rule="evenodd" clip-rule="evenodd" d="M0 6.8C0 4.14903 2.14903 2 4.8 2H19.2C21.851 2 24 4.14903 24 6.8V16.4C24 19.051 21.851 21.2 19.2 21.2H4.8C2.14903 21.2 0 19.051 0 16.4V6.8ZM4.8 4.4C3.47452 4.4 2.4 5.47452 2.4 6.8V8H21.6V6.8C21.6 5.47452 20.5255 4.4 19.2 4.4H4.8ZM2.4 16.4V10.4H21.6V16.4C21.6 17.7255 20.5255 18.8 19.2 18.8H4.8C3.47452 18.8 2.4 17.7255 2.4 16.4ZM14.4 14C13.7373 14 13.2 14.5373 13.2 15.2C13.2 15.8627 13.7373 16.4 14.4 16.4L18 16.4C18.6627 16.4 19.2 15.8627 19.2 15.2C19.2 14.5373 18.6627 14 18 14H14.4Z" fill="#C6C6C6"/>
</svg>
