<svg width="20" height="20" viewBox="0 0 20 20" fill="none" xmlns="http://www.w3.org/2000/svg">
<path d="M15 0C17.7614 0 20 2.23913 20 5.00098V15.002C20 17.7638 17.7614 20.0029 15 20.0029H5C2.23858 20.0029 0 17.7638 0 15.002V5.00098C0 2.23913 2.23858 0 5 0H15ZM5 2C3.34315 2 2 3.34387 2 5.00098V15.002C2 16.6591 3.34315 18.0029 5 18.0029H15C16.6569 18.0029 18 16.6591 18 15.002V5.00098C18 3.34387 16.6569 2 15 2H5ZM6 11.002C6.55228 11.002 7 11.4496 7 12.002V14.002C7 14.5543 6.55228 15.002 6 15.002C5.44772 15.002 5 14.5543 5 14.002V12.002C5 11.4496 5.44772 11.002 6 11.002ZM10 8.00098C10.5522 8.00098 10.9998 8.44879 11 9.00098V14.002C11 14.5543 10.5523 15.002 10 15.002C9.44772 15.002 9 14.5543 9 14.002V9.00098C9.00021 8.44879 9.44785 8.00098 10 8.00098ZM14 5.00098C14.5523 5.00098 15 5.44861 15 6.00098V14.002C15 14.5543 14.5523 15.002 14 15.002C13.4477 15.002 13 14.5543 13 14.002V6.00098C13 5.44861 13.4477 5.00098 14 5.00098Z" fill="#27549D"/>
</svg>
