<svg width="20" height="20" viewBox="0 0 20 20" fill="none" xmlns="http://www.w3.org/2000/svg">
<path d="M3.49085 0.256892C6.33535 -0.69188 9.21 1.08988 10.0084 3.97467C10.5524 5.94035 10.0373 8.00176 8.78089 9.41314C9.03819 9.74636 9.31944 10.0667 9.62464 10.3721C9.92841 10.6761 10.2476 10.9565 10.5787 11.2129C11.9896 9.94664 14.0566 9.42535 16.028 9.97174C18.9122 10.7712 20.6911 13.6479 19.7438 16.4922C19.1223 18.3583 17.9631 19.492 16.4176 19.8653C14.9814 20.2121 13.4328 19.8432 12.067 19.2754C9.31629 18.132 6.5996 15.8802 5.35901 14.6387C4.08922 13.368 1.84666 10.6471 0.713507 7.90142C0.150884 6.53807 -0.211227 4.99503 0.136359 3.56549C0.510433 2.0278 1.63813 0.874972 3.49085 0.256892ZM7.74183 4.60162C7.25636 2.84786 5.64312 2.01912 4.23597 2.48834C2.99899 2.9009 2.56926 3.5145 2.42151 4.12213C2.24759 4.83811 2.3997 5.81997 2.88831 7.00396C3.85813 9.35384 5.86905 11.8208 7.02308 12.9756C8.14914 14.1025 10.6128 16.1239 12.9694 17.1036C14.1572 17.5974 15.1445 17.7521 15.8649 17.5782C16.4758 17.4307 17.0948 16.9996 17.5114 15.7491C17.9811 14.3386 17.151 12.7238 15.4 12.2383C14.097 11.8772 12.7571 12.2958 11.9596 13.1495C11.4447 13.7009 10.4627 14.0156 9.62757 13.4327C9.0401 13.0226 8.4819 12.5569 7.96058 12.0352C7.43844 11.5127 6.9723 10.9531 6.56214 10.3643C5.98291 9.53277 6.29202 8.55427 6.83948 8.03814C7.68693 7.23897 8.10174 5.90206 7.74183 4.60162Z" fill="#17325E"/>
</svg>
