<svg width="12" height="12" viewBox="0 0 12 12" fill="none" xmlns="http://www.w3.org/2000/svg">
<path d="M6 0C9.31371 0 12 2.68629 12 6C12 9.31371 9.31371 12 6 12C2.68629 12 0 9.31371 0 6C1.28855e-07 2.68629 2.68629 1.28851e-07 6 0ZM6 1.2002C3.34903 1.2002 1.2002 3.34903 1.2002 6C1.2002 8.65097 3.34903 10.7998 6 10.7998C8.65097 10.7998 10.7998 8.65097 10.7998 6C10.7998 3.34903 8.65097 1.2002 6 1.2002ZM4.2002 4.96094C4.2002 4.03718 5.2 3.46 6 3.92188L7.7998 4.96094C8.59981 5.42282 8.5998 6.57718 7.7998 7.03906L6 8.07812C5.2 8.54001 4.2002 7.96282 4.2002 7.03906V4.96094ZM5.40039 7.03906L7.2002 6L5.40039 4.96094V7.03906Z" fill="#27549D"/>
</svg>
