<svg width="16" height="16" viewBox="0 0 16 16" fill="none" xmlns="http://www.w3.org/2000/svg">
<rect width="16" height="16" fill="#424752"/>
<path d="M-3293 -569C-3293 -570.105 -3292.1 -571 -3291 -571H6545C6546.1 -571 6547 -570.105 6547 -569V4244C6547 4245.1 6546.1 4246 6545 4246H-3291C-3292.1 4246 -3293 4245.1 -3293 4244V-569Z" fill="#E8EAEE"/>
<path d="M-3291 -570H6545V-572H-3291V-570ZM6546 -569V4244H6548V-569H6546ZM6545 4245H-3291V4247H6545V4245ZM-3292 4244V-569H-3294V4244H-3292ZM-3291 4245C-3291.55 4245 -3292 4244.55 -3292 4244H-3294C-3294 4245.66 -3292.66 4247 -3291 4247V4245ZM6546 4244C6546 4244.55 6545.55 4245 6545 4245V4247C6546.66 4247 6548 4245.66 6548 4244H6546ZM6545 -570C6545.55 -570 6546 -569.552 6546 -569H6548C6548 -570.657 6546.66 -572 6545 -572V-570ZM-3291 -572C-3292.66 -572 -3294 -570.657 -3294 -569H-3292C-3292 -569.552 -3291.55 -570 -3291 -570V-572Z" fill="black" fill-opacity="0.1"/>
<g clip-path="url(#clip0_3624_12096)">
<rect width="1440" height="844" transform="translate(-1313 -182)" fill="#F7F9FD"/>
<g clip-path="url(#clip1_3624_12096)">
<path d="M-16 0C-16 -4.41828 -12.4183 -8 -8 -8H87C91.4183 -8 95 -4.41828 95 0V16C95 20.4183 91.4183 24 87 24H-8C-12.4183 24 -16 20.4183 -16 16V0Z" fill="#27549D"/>
<path fill-rule="evenodd" clip-rule="evenodd" d="M4 0C1.79086 0 0 1.79086 0 4V12C0 14.2091 1.79086 16 4 16H12C14.2091 16 16 14.2091 16 12V4C16 1.79086 14.2091 0 12 0H4ZM1.6 4C1.6 2.67452 2.67452 1.6 4 1.6H12C13.3255 1.6 14.4 2.67452 14.4 4V12C14.4 13.3255 13.3255 14.4 12 14.4H4C2.67452 14.4 1.6 13.3255 1.6 12V4ZM8.8 4.8C8.8 4.35817 8.44183 4 8 4C7.55817 4 7.2 4.35817 7.2 4.8V7.2H4.8C4.35817 7.2 4 7.55817 4 8C4 8.44183 4.35817 8.8 4.8 8.8H7.2V11.2C7.2 11.6418 7.55817 12 8 12C8.44183 12 8.8 11.6418 8.8 11.2L8.8 8.8H11.2C11.6418 8.8 12 8.44183 12 8C12 7.55817 11.6418 7.2 11.2 7.2H8.8V4.8Z" fill="#F1FF24"/>
</g>
</g>
<defs>
<clipPath id="clip0_3624_12096">
<rect width="1440" height="844" fill="white" transform="translate(-1313 -182)"/>
</clipPath>
<clipPath id="clip1_3624_12096">
<rect width="1184" height="844" fill="white" transform="translate(-1057 -182)"/>
</clipPath>
</defs>
</svg>
