<svg width="32" height="32" viewBox="0 0 32 32" fill="none" xmlns="http://www.w3.org/2000/svg">
<path d="M16 0.25C24.6985 0.25 31.75 7.30152 31.75 16C31.75 24.6985 24.6985 31.75 16 31.75C7.30152 31.75 0.25 24.6985 0.25 16C0.25 7.30152 7.30152 0.25 16 0.25Z" fill="white" fill-opacity="0.3"/>
<path d="M16 0.25C24.6985 0.25 31.75 7.30152 31.75 16C31.75 24.6985 24.6985 31.75 16 31.75C7.30152 31.75 0.25 24.6985 0.25 16C0.25 7.30152 7.30152 0.25 16 0.25Z" stroke="#DEE8F7" stroke-width="0.5"/>
<path d="M18.4003 16.7998C19.7303 16.7999 21.0091 17.407 21.7587 18.3203C22.1391 18.7839 22.4072 19.3575 22.4306 19.9932C22.4544 20.6425 22.2196 21.2771 21.7363 21.8301C20.5582 23.1776 18.6771 24 15.9999 24C13.3227 24 11.4417 23.1776 10.2636 21.8301C9.78022 21.2771 9.54548 20.6425 9.56927 19.9932C9.59265 19.3575 9.86074 18.7839 10.2411 18.3203C10.9907 17.407 12.2696 16.7999 13.5995 16.7998H18.4003ZM13.5995 18.4004C12.7208 18.4005 11.906 18.8129 11.4775 19.335C11.269 19.589 11.1768 19.8374 11.1689 20.0518C11.1615 20.2527 11.2251 20.4977 11.4687 20.7764C12.2681 21.6908 13.6569 22.4004 15.9999 22.4004C18.343 22.4004 19.7328 21.6909 20.5322 20.7764C20.7755 20.4979 20.8383 20.2526 20.831 20.0518C20.823 19.8374 20.7309 19.589 20.5224 19.335C20.0939 18.8129 19.2791 18.4005 18.4003 18.4004H13.5995ZM15.9999 8C18.2091 8 19.9999 9.79086 19.9999 12C19.9999 14.2091 18.2091 16 15.9999 16C13.7908 16 11.9999 14.2091 11.9999 12C11.9999 9.79088 13.7908 8.00003 15.9999 8ZM15.9999 9.59961C14.6745 9.59964 13.5995 10.6745 13.5995 12C13.5995 13.3255 14.6745 14.4004 15.9999 14.4004C17.3254 14.4004 18.4003 13.3255 18.4003 12C18.4003 10.6745 17.3254 9.59961 15.9999 9.59961Z" fill="#17325E"/>
</svg>
