<svg width="20" height="20" viewBox="0 0 20 20" fill="none" xmlns="http://www.w3.org/2000/svg">
<path d="M7.13745 5.9479V1.16308C7.13745 0.531046 6.62275 0.0186812 5.98784 0.0186812H1.18123C0.546322 0.0186812 0.0316247 0.531046 0.0316247 1.16308V5.9479C0.0316247 6.57993 0.546322 7.0923 1.18123 7.0923H5.98784C6.62275 7.0923 7.13745 6.57993 7.13745 5.9479Z" fill="#27549D"/>
<path d="M4.38019 2.04075H2.78923C2.38828 2.04075 2.06325 2.36431 2.06325 2.76344V4.34719C2.06325 4.74632 2.38828 5.06988 2.78923 5.06988H4.38019C4.78114 5.06988 5.10617 4.74632 5.10617 4.34719V2.76344C5.10617 2.36431 4.78114 2.04075 4.38019 2.04075Z" fill="white"/>
<path d="M7.10582 18.8556V14.0708C7.10582 13.4387 6.59112 12.9264 5.95621 12.9264H1.14961C0.514698 12.9264 0 13.4387 0 14.0708V18.8556C0 19.4876 0.514698 20 1.14961 20H5.95621C6.59112 20 7.10582 19.4876 7.10582 18.8556Z" fill="#27549D"/>
<path d="M4.34822 14.9488H2.75725C2.35631 14.9488 2.03128 15.2724 2.03128 15.6715V17.2552C2.03128 17.6544 2.35631 17.9779 2.75725 17.9779H4.34822C4.74917 17.9779 5.0742 17.6544 5.0742 17.2552V15.6715C5.0742 15.2724 4.74917 14.9488 4.34822 14.9488Z" fill="white"/>
<path d="M20 5.9479V1.16308C20 0.531046 19.4853 0.0186815 18.8504 0.0186815H14.0438C13.4089 0.0186815 12.8942 0.531046 12.8942 1.16308V5.9479C12.8942 6.57993 13.4089 7.0923 14.0438 7.0923H18.8504C19.4853 7.0923 20 6.57993 20 5.9479Z" fill="#27549D"/>
<path d="M17.2427 2.04075H15.6518C15.2508 2.04075 14.9258 2.36431 14.9258 2.76344V4.34719C14.9258 4.74632 15.2508 5.06988 15.6518 5.06988H17.2427C17.6437 5.06988 17.9687 4.74632 17.9687 4.34719V2.76344C17.9687 2.36431 17.6437 2.04075 17.2427 2.04075Z" fill="white"/>
<path d="M11.2952 1.1188C11.2952 0.500903 10.7921 0 10.1715 0C9.55089 0 9.04778 0.500903 9.04778 1.1188V1.32498C9.04778 1.94288 9.55089 2.44378 10.1715 2.44378C10.7921 2.44378 11.2952 1.94288 11.2952 1.32498V1.1188Z" fill="#27549D"/>
<path d="M2.28775 9.0182H1.66568C1.04497 9.0182 0.54179 9.51902 0.54179 10.1368C0.54179 10.7546 1.04497 11.2554 1.66568 11.2554H2.28775C2.90846 11.2554 3.41164 10.7546 3.41164 10.1368C3.41164 9.51902 2.90846 9.0182 2.28775 9.0182Z" fill="#27549D"/>
<path d="M11.2952 5.55905C11.2952 4.94116 10.7921 4.44026 10.1715 4.44026C9.55089 4.44026 9.04778 4.94116 9.04778 5.55905V7.8994C9.04778 8.51729 9.55089 9.0182 10.1715 9.0182C10.7921 9.0182 11.2952 8.51729 11.2952 7.8994V5.55905Z" fill="#27549D"/>
<path d="M11.2952 12.3742C11.2952 11.7564 10.7921 11.2554 10.1715 11.2554C9.55089 11.2554 9.04778 11.7564 9.04778 12.3742V16.5388C9.04778 17.1567 9.55089 17.6576 10.1715 17.6576C10.7921 17.6576 11.2952 17.1567 11.2952 16.5388V12.3742Z" fill="#27549D"/>
<path d="M15.2848 15.7338H14.8813C14.3721 15.7338 13.9593 16.1447 13.9593 16.6516C13.9593 17.1584 14.3721 17.5694 14.8813 17.5694H15.2848C15.794 17.5694 16.2068 17.1584 16.2068 16.6516C16.2068 16.1447 15.794 15.7338 15.2848 15.7338Z" fill="#27549D"/>
<path d="M16.2068 12.3742C16.2068 11.7564 15.7037 11.2554 15.0831 11.2554C14.4624 11.2554 13.9593 11.7564 13.9593 12.3742V12.3777C13.9593 12.9956 14.4624 13.4965 15.0831 13.4965C15.7037 13.4965 16.2068 12.9956 16.2068 12.3777V12.3742Z" fill="#27549D"/>
<path d="M18.6495 13.4965H17.3307C16.71 13.4965 16.2068 13.9973 16.2068 14.6151C16.2068 15.2329 16.71 15.7338 17.3307 15.7338H18.6495C19.2702 15.7338 19.7734 15.2329 19.7734 14.6151C19.7734 13.9973 19.2702 13.4965 18.6495 13.4965Z" fill="#27549D"/>
<path d="M16.2068 18.6747C16.2068 19.2801 16.6964 19.7731 17.3046 19.7796L18.719 19.7949C19.3366 19.8014 19.8412 19.305 19.8412 18.6899V18.6747C19.8412 18.0644 19.3442 17.5697 18.7312 17.5697H17.3168C16.7037 17.5697 16.2068 18.0644 16.2068 18.6747Z" fill="#27549D"/>
<path d="M13.9593 18.6747C13.9593 18.0644 13.4624 17.5697 12.8493 17.5697H12.4003C11.7873 17.5697 11.2904 18.0644 11.2904 18.6747V18.702C11.2904 19.3123 11.7873 19.807 12.4003 19.807H12.8219C13.4502 19.807 13.9593 19.2998 13.9593 18.6747Z" fill="#27549D"/>
<path d="M7.92389 9.0182H6.54109C5.92039 9.0182 5.4172 9.51902 5.4172 10.1368C5.4172 10.7546 5.92039 11.2554 6.54109 11.2554H7.92389C8.5446 11.2554 9.04778 10.7546 9.04778 10.1368C9.04778 9.51902 8.5446 9.0182 7.92389 9.0182Z" fill="#27549D"/>
<path d="M12.955 9.0182H12.4017C11.7906 9.0182 11.2952 9.51136 11.2952 10.1197V10.1539C11.2952 10.7623 11.7906 11.2554 12.4017 11.2554H12.955C13.5661 11.2554 14.0615 10.7623 14.0615 10.1539V10.1197C14.0615 9.51136 13.5661 9.0182 12.955 9.0182Z" fill="#27549D"/>
<path d="M18.2801 10.1197C18.2801 9.51136 17.7847 9.0182 17.1736 9.0182C16.5625 9.0182 16.0671 9.51136 16.0671 10.1197V10.1539C16.0671 10.7623 16.5625 11.2554 17.1736 11.2554C17.7847 11.2554 18.2801 10.7623 18.2801 10.1539V10.1197Z" fill="#27549D"/>
</svg>
