<svg width="47" height="34" viewBox="0 0 47 34" fill="none" xmlns="http://www.w3.org/2000/svg">
<g clip-path="url(#clip0_121_5030)">
<path d="M3.46094 8.58997V32.75" stroke="#27549D" stroke-width="1.5" stroke-linecap="round" stroke-linejoin="round"/>
<path d="M0.75 32.75H7.37H22.35H46.04" stroke="#27549D" stroke-width="1.5" stroke-linecap="round" stroke-linejoin="round"/>
<path d="M15.9095 24.33H10.9395V32.75H15.9095V24.33Z" stroke="#27549D" stroke-width="1.5" stroke-linecap="round" stroke-linejoin="round"/>
<path d="M9.71016 15.05H8.03016C7.82581 15.05 7.66016 15.2157 7.66016 15.42V17.35C7.66016 17.5544 7.82581 17.72 8.03016 17.72H9.71016C9.9145 17.72 10.0802 17.5544 10.0802 17.35V15.42C10.0802 15.2157 9.9145 15.05 9.71016 15.05Z" fill="#27549D"/>
<path d="M18.8293 15.05H17.1493C16.945 15.05 16.7793 15.2157 16.7793 15.42V17.35C16.7793 17.5544 16.945 17.72 17.1493 17.72H18.8293C19.0336 17.72 19.1993 17.5544 19.1993 17.35V15.42C19.1993 15.2157 19.0336 15.05 18.8293 15.05Z" fill="#27549D"/>
<path d="M3.46094 8.59L13.4309 0.75L23.4009 8.58" stroke="#27549D" stroke-width="1.5" stroke-linecap="round" stroke-linejoin="round"/>
<path d="M23.4004 8.57996V32.75" stroke="#27549D" stroke-width="1.5" stroke-linecap="round" stroke-linejoin="round"/>
<path d="M13.4306 9.75004C14.1431 9.75004 14.7206 9.17249 14.7206 8.46004C14.7206 7.7476 14.1431 7.17004 13.4306 7.17004C12.7182 7.17004 12.1406 7.7476 12.1406 8.46004C12.1406 9.17249 12.7182 9.75004 13.4306 9.75004Z" fill="#27549D"/>
<path d="M35.8391 24.33H30.8691V32.75H35.8391V24.33Z" stroke="#27549D" stroke-width="1.5" stroke-linecap="round" stroke-linejoin="round"/>
<path d="M29.6398 15.05H27.9598C27.7555 15.05 27.5898 15.2157 27.5898 15.42V17.35C27.5898 17.5544 27.7555 17.72 27.9598 17.72H29.6398C29.8442 17.72 30.0098 17.5544 30.0098 17.35V15.42C30.0098 15.2157 29.8442 15.05 29.6398 15.05Z" fill="#27549D"/>
<path d="M38.7609 15.05H37.0809C36.8766 15.05 36.7109 15.2157 36.7109 15.42V17.35C36.7109 17.5544 36.8766 17.72 37.0809 17.72H38.7609C38.9653 17.72 39.1309 17.5544 39.1309 17.35V15.42C39.1309 15.2157 38.9653 15.05 38.7609 15.05Z" fill="#27549D"/>
<path d="M23.4004 8.59L33.3604 0.75L43.3304 8.58" stroke="#27549D" stroke-width="1.5" stroke-linecap="round" stroke-linejoin="round"/>
<path d="M43.3301 8.57996V32.75" stroke="#27549D" stroke-width="1.5" stroke-linecap="round" stroke-linejoin="round"/>
<path d="M33.3603 9.75004C34.0728 9.75004 34.6503 9.17249 34.6503 8.46004C34.6503 7.7476 34.0728 7.17004 33.3603 7.17004C32.6479 7.17004 32.0703 7.7476 32.0703 8.46004C32.0703 9.17249 32.6479 9.75004 33.3603 9.75004Z" fill="#27549D"/>
</g>
<defs>
<clipPath id="clip0_121_5030">
<rect width="46.79" height="33.5" fill="white"/>
</clipPath>
</defs>
</svg>
