<svg width="20" height="20" viewBox="0 0 20 20" fill="none" xmlns="http://www.w3.org/2000/svg">
<path d="M10 0C15.5228 0 20 4.47827 20 10.002C19.9998 15.5254 15.5227 20.0029 10 20.0029C4.4773 20.0029 0.000233435 15.5254 0 10.002C0 4.47827 4.47715 0 10 0ZM10 2C5.58172 2 2 5.583 2 10.002C2.00023 14.4207 5.58187 18.0029 10 18.0029C14.4181 18.0029 17.9998 14.4207 18 10.002C18 5.583 14.4183 2 10 2ZM8.71484 5.19727C9.29783 4.22839 10.7022 4.22839 11.2852 5.19727L12.2842 6.85742L14.1719 7.29395C15.2731 7.54923 15.7069 8.88538 14.9658 9.73926L13.6963 11.2021L13.8633 13.1328C13.961 14.2593 12.8252 15.0845 11.7842 14.6436L10 13.8877L8.21582 14.6436C7.17481 15.0845 6.03897 14.2593 6.13672 13.1328L6.30371 11.2021L5.03418 9.73926C4.29314 8.88539 4.72687 7.54924 5.82812 7.29395L7.71582 6.85742L8.71484 5.19727ZM9.32031 8.07031C9.11087 8.41832 8.76871 8.66616 8.37305 8.75781L7.08887 9.05566L7.95312 10.0508C8.2193 10.3575 8.35043 10.7595 8.31543 11.1641L8.20117 12.4775L9.41504 11.9639C9.789 11.8054 10.211 11.8054 10.585 11.9639L11.7988 12.4775L11.6846 11.1641C11.6496 10.7595 11.7807 10.3575 12.0469 10.0508L12.9111 9.05566L11.627 8.75781C11.2313 8.66616 10.8891 8.41832 10.6797 8.07031L10 6.94043L9.32031 8.07031Z" fill="#27549D"/>
</svg>
