<svg width="12" height="12" viewBox="0 0 12 12" fill="none" xmlns="http://www.w3.org/2000/svg">
<path d="M6.70215 0C7.17948 2.57864e-05 7.63708 0.189826 7.97461 0.527344L10.2715 2.82422C10.609 3.1617 10.7987 3.61942 10.7988 4.09668V9.59961C10.7988 10.925 9.72471 11.9998 8.39941 12H3.59961C2.27415 12 1.19922 10.9251 1.19922 9.59961V2.40039C1.19922 1.07492 2.27415 0 3.59961 0H6.70215ZM3.59961 1.2002C2.93688 1.2002 2.39941 1.73766 2.39941 2.40039V9.59961C2.39941 10.2623 2.93688 10.7998 3.59961 10.7998H8.39941C9.06199 10.7996 9.59863 10.2622 9.59863 9.59961V4.7998H9C7.34324 4.79973 6 3.4566 6 1.7998V1.2002H3.59961ZM6.17969 5C7.12835 5 7.5307 5.67053 7.58887 6.24316C7.60959 6.46407 7.44372 6.669 7.21582 6.68945C6.99214 6.7098 6.78537 6.54622 6.76465 6.32129C6.74393 6.08811 6.62306 5.81445 6.17969 5.81445C5.95615 5.81453 5.79864 5.8754 5.71582 5.99805C5.59571 6.16982 5.5999 6.47664 5.71582 6.82422H6.54492C6.77268 6.82432 6.95889 7.00854 6.95898 7.2334C6.95898 7.45834 6.77274 7.64248 6.54492 7.64258H5.90234C5.91477 7.92476 5.87356 8.18661 5.77832 8.42383C5.94801 8.4361 6.13018 8.47277 6.31641 8.53809C6.4863 8.59945 6.85163 8.60818 7.19141 8.52637C7.37775 8.48151 7.56849 8.57932 7.65137 8.75098H7.65918C7.77106 8.98415 7.63873 9.26285 7.38184 9.32422C6.93442 9.43056 6.4249 9.44234 6.04785 9.31152C5.54647 9.13971 5.13133 9.30783 4.96973 9.38965C4.93668 9.41002 4.89923 9.4308 4.86621 9.45117C4.80425 9.4837 4.73403 9.49995 4.66797 9.5C4.52708 9.5 4.39416 9.43034 4.31543 9.30762C4.19943 9.12353 4.24933 8.8776 4.43164 8.75488C4.43696 8.7463 4.47791 8.72168 4.54297 8.68555C4.85374 8.48509 5.11932 8.1253 5.08203 7.64258H4.61426C4.38636 7.64258 4.19922 7.4584 4.19922 7.2334C4.19931 7.00848 4.38641 6.82422 4.61426 6.82422H4.8584C4.74246 6.32118 4.80027 5.87543 5.03223 5.54004C5.27249 5.19241 5.67849 5.00011 6.17969 5ZM7.2002 1.7998C7.2002 2.79386 8.00597 3.59954 9 3.59961H9.34961L7.2002 1.4502V1.7998Z" fill="#CDD1DA"/>
</svg>
