<svg width="32" height="32" viewBox="0 0 32 32" fill="none" xmlns="http://www.w3.org/2000/svg">
<path d="M16 0.25C24.6985 0.25 31.75 7.30152 31.75 16C31.75 24.6985 24.6985 31.75 16 31.75C7.30152 31.75 0.25 24.6985 0.25 16C0.25 7.30152 7.30152 0.25 16 0.25Z" fill="white" fill-opacity="0.3"/>
<path d="M16 0.25C24.6985 0.25 31.75 7.30152 31.75 16C31.75 24.6985 24.6985 31.75 16 31.75C7.30152 31.75 0.25 24.6985 0.25 16C0.25 7.30152 7.30152 0.25 16 0.25Z" stroke="#DEE8F7" stroke-width="0.5"/>
<path d="M16.6191 8C17.81 8.00011 18.7754 8.91057 18.7754 10.0332C18.7756 10.1959 18.8945 10.4131 19.1787 10.5586C19.2662 10.6034 19.3525 10.6499 19.4375 10.6982C19.7212 10.8595 19.9881 10.849 20.1445 10.7646C21.183 10.2047 22.5061 10.5391 23.1084 11.5137L23.706 12.4805C24.3095 13.457 23.9536 14.7102 22.9131 15.2715C22.7622 15.3529 22.62 15.5602 22.6269 15.8682C22.6279 15.912 22.6289 15.956 22.6289 16C22.6289 16.0442 22.6279 16.0888 22.6269 16.1328C22.6202 16.4405 22.7623 16.6472 22.9131 16.7285C23.9536 17.2898 24.3095 18.543 23.706 19.5195L23.1084 20.4863C22.5061 21.4609 21.183 21.7953 20.1445 21.2354C19.9881 21.151 19.7212 21.1405 19.4375 21.3018C19.3525 21.3501 19.2662 21.3966 19.1787 21.4414C18.8945 21.5869 18.7756 21.8041 18.7754 21.9668C18.7754 23.0894 17.81 23.9999 16.6191 24H15.3808C14.19 23.9999 13.2246 23.0894 13.2246 21.9668C13.2244 21.8041 13.1055 21.5869 12.8213 21.4414C12.7338 21.3966 12.6475 21.3501 12.5625 21.3018C12.2788 21.1405 12.0118 21.151 11.8555 21.2354C10.817 21.7953 9.49384 21.4609 8.89159 20.4863L8.29393 19.5195C7.69048 18.543 8.04642 17.2898 9.0869 16.7285C9.23767 16.6472 9.37978 16.4405 9.37303 16.1328C9.37204 16.0888 9.37108 16.0442 9.37108 16C9.37108 15.956 9.37205 15.912 9.37303 15.8682C9.37994 15.5602 9.23776 15.3529 9.0869 15.2715C8.0464 14.7102 7.69047 13.457 8.29393 12.4805L8.89159 11.5137C9.49384 10.5391 10.817 10.2047 11.8555 10.7646C12.0118 10.849 12.2788 10.8595 12.5625 10.6982C12.6475 10.6499 12.7338 10.6034 12.8213 10.5586C13.1055 10.4131 13.2244 10.1959 13.2246 10.0332C13.2246 8.91057 14.19 8.00011 15.3808 8H16.6191ZM15.3808 9.59961C15.1274 9.59972 14.9219 9.79422 14.9219 10.0332C14.9217 10.9179 14.3228 11.6096 13.6308 11.9639C13.5658 11.9972 13.5017 12.0324 13.4385 12.0684C12.7634 12.452 11.828 12.5931 11.0127 12.1533C10.7834 12.0298 10.4915 12.1034 10.3584 12.3184L9.76073 13.2861C9.63174 13.4949 9.70731 13.7628 9.92967 13.8828C10.7462 14.3233 11.0859 15.1588 11.0693 15.9014C11.0686 15.9341 11.0683 15.9671 11.0683 16C11.0683 16.0329 11.0686 16.0659 11.0693 16.0986C11.0859 16.8412 10.7463 17.6767 9.92967 18.1172C9.70732 18.2372 9.63175 18.5052 9.76073 18.7139L10.3584 19.6816C10.4915 19.8966 10.7834 19.9702 11.0127 19.8467C11.828 19.4069 12.7634 19.548 13.4385 19.9316C13.5017 19.9676 13.5658 20.0028 13.6308 20.0361C14.3228 20.3904 14.9217 21.0821 14.9219 21.9668C14.9219 22.2058 15.1274 22.4003 15.3808 22.4004H16.6191C16.8726 22.4003 17.0781 22.2058 17.0781 21.9668C17.0783 21.0821 17.6772 20.3904 18.3691 20.0361C18.4342 20.0028 18.4982 19.9676 18.5615 19.9316C19.2365 19.5481 20.172 19.4069 20.9873 19.8467C21.2166 19.9702 21.5085 19.8966 21.6416 19.6816L22.2392 18.7139C22.3682 18.5052 22.2926 18.2372 22.0703 18.1172C21.2537 17.6767 20.914 16.8412 20.9306 16.0986C20.9314 16.0659 20.9316 16.0329 20.9316 16C20.9316 15.9671 20.9314 15.9341 20.9306 15.9014C20.914 15.1588 21.2537 14.3233 22.0703 13.8828C22.2927 13.7628 22.3682 13.4949 22.2392 13.2861L21.6416 12.3184C21.5085 12.1034 21.2166 12.0298 20.9873 12.1533C20.172 12.5931 19.2366 12.452 18.5615 12.0684C18.4982 12.0324 18.4342 11.9972 18.3691 11.9639C17.6772 11.6096 17.0783 10.9179 17.0781 10.0332C17.0781 9.79422 16.8726 9.59972 16.6191 9.59961H15.3808ZM16 12.7998C17.8747 12.7998 19.3945 14.2327 19.3945 16C19.3945 17.7673 17.8747 19.2002 16 19.2002C14.1253 19.2002 12.6055 17.7673 12.6055 16C12.6055 14.2327 14.1253 12.7998 16 12.7998ZM16 14.4004C15.0626 14.4004 14.3027 15.1163 14.3027 16C14.3027 16.8837 15.0626 17.5996 16 17.5996C16.9373 17.5996 17.6973 16.8837 17.6973 16C17.6972 15.1164 16.9373 14.4004 16 14.4004Z" fill="#17325E"/>
</svg>
