<svg width="12" height="12" viewBox="0 0 12 12" fill="none" xmlns="http://www.w3.org/2000/svg">
<path d="M6.70117 10.4658C6.88578 10.1907 7.25902 10.1172 7.53418 10.3018C7.80925 10.4864 7.88277 10.8596 7.69824 11.1348C7.51401 11.4095 7.25651 11.6276 6.95996 11.7754C6.66359 11.923 6.33259 11.998 6 11.998C5.66725 11.998 5.33557 11.9231 5.03906 11.7754C4.74253 11.6276 4.485 11.4095 4.30078 11.1348C4.11626 10.8596 4.1898 10.4864 4.46484 10.3018C4.74 10.1172 5.11324 10.1908 5.29785 10.4658C5.35744 10.5547 5.4498 10.6391 5.57422 10.7012C5.69893 10.7633 5.84666 10.7979 6 10.7979C6.15317 10.7978 6.30022 10.7632 6.4248 10.7012C6.54925 10.6391 6.64158 10.5547 6.70117 10.4658ZM6 0C7.21808 0.00011013 8.19016 0.435586 8.85059 1.18848C9.50112 1.93014 9.79978 2.92233 9.7998 3.95996V5C9.7998 5.14642 9.8658 5.32251 10.0371 5.5498C10.2013 5.76765 10.414 5.97254 10.6494 6.19824C10.6626 6.21091 10.6761 6.22352 10.6895 6.23633C11.0996 6.62985 11.3993 7.19983 11.3994 7.87988C11.3994 8.80178 10.6809 9.60035 9.7334 9.60059H2.26562C1.3181 9.60032 0.599609 8.80176 0.599609 7.87988C0.599712 7.19984 0.89942 6.62985 1.30957 6.23633C1.32291 6.22353 1.33641 6.2109 1.34961 6.19824C1.5851 5.97251 1.79868 5.76768 1.96289 5.5498C2.13399 5.32269 2.19922 5.14635 2.19922 5V3.95996C2.19925 2.92233 2.4979 1.93014 3.14844 1.18848C3.80894 0.435475 4.78169 0 6 0ZM6 1.2002C5.08514 1.2002 4.45698 1.51657 4.05078 1.97949C3.63468 2.45388 3.39944 3.14199 3.39941 3.95996V5C3.39941 5.51634 3.16724 5.94562 2.9209 6.27246C2.69561 6.57136 2.41465 6.84004 2.19434 7.05078C2.17595 7.06836 2.1581 7.08577 2.14062 7.10254C1.93463 7.30019 1.79991 7.56824 1.7998 7.87988C1.7998 8.19479 2.03528 8.40011 2.26562 8.40039H9.7334C9.96376 8.40014 10.1992 8.19481 10.1992 7.87988C10.1991 7.56822 10.0644 7.30019 9.8584 7.10254C9.84091 7.08577 9.82308 7.06837 9.80469 7.05078C9.58437 6.84003 9.30341 6.57137 9.07812 6.27246C8.83179 5.94562 8.59961 5.51634 8.59961 5V3.95996C8.59958 3.14199 8.36435 2.45388 7.94824 1.97949C7.54211 1.51666 6.91459 1.2003 6 1.2002Z" fill="#CDD1DA"/>
</svg>
