<svg width="12" height="12" viewBox="0 0 12 12" fill="none" xmlns="http://www.w3.org/2000/svg">
<path fill-rule="evenodd" clip-rule="evenodd" d="M5.82967 1.25708C5.94038 1.22545 6.05773 1.22545 6.16844 1.25708L9.25135 2.13791C9.51605 2.21354 9.69854 2.45548 9.69854 2.73077V6.04456C9.69854 7.43844 9.02538 8.74651 7.89114 9.55669L6.35744 10.6522C6.14305 10.8053 5.85506 10.8053 5.64067 10.6522L4.10697 9.55669C2.97273 8.74651 2.29957 7.43844 2.29957 6.04456V2.73077C2.29957 2.45548 2.48206 2.21354 2.74676 2.13791L5.82967 1.25708ZM6.50722 0.0713691C6.17509 -0.0235253 5.82302 -0.0235252 5.49089 0.0713692L2.40799 0.952199C1.61389 1.17908 1.06641 1.9049 1.06641 2.73077V6.04456C1.06641 7.83669 1.9319 9.5185 3.39021 10.5602L4.92391 11.6557C5.56706 12.115 6.43105 12.115 7.0742 11.6557L8.6079 10.5602C10.0662 9.5185 10.9317 7.83669 10.9317 6.04456V2.73077C10.9317 1.9049 10.3842 1.17908 9.59012 0.952199L6.50722 0.0713691ZM8.29862 4.68863C8.53152 4.4402 8.51893 4.05001 8.27051 3.8171C8.02208 3.5842 7.63188 3.59679 7.39898 3.84522L5.4786 5.89363L4.53685 5.13262C4.27199 4.91859 3.88377 4.9598 3.66974 5.22466C3.45571 5.48952 3.49692 5.87773 3.76178 6.09176L5.14909 7.21282C5.40029 7.41581 5.76555 7.39056 5.98644 7.15495L8.29862 4.68863Z" fill="#CDD1DA"/>
</svg>
