<svg width="12" height="12" viewBox="0 0 12 12" fill="none" xmlns="http://www.w3.org/2000/svg">
<path fill-rule="evenodd" clip-rule="evenodd" d="M2.75 1C2.33579 1 2 1.33579 2 1.75C2 2.16421 2.33579 2.5 2.75 2.5C3.16421 2.5 3.5 2.16421 3.5 1.75C3.5 1.33579 3.16421 1 2.75 1ZM2.75 0C1.7835 0 1 0.783502 1 1.75C1 2.7165 1.7835 3.5 2.75 3.5C3.7165 3.5 4.5 2.7165 4.5 1.75C4.5 0.783502 3.7165 0 2.75 0ZM7.5 5.5C7.5 4.94772 7.94772 4.5 8.5 4.5C9.05228 4.5 9.5 4.94772 9.5 5.5C9.5 6.05228 9.05228 6.5 8.5 6.5C7.94772 6.5 7.5 6.05228 7.5 5.5ZM6.5 5.5C6.5 4.39543 7.39543 3.5 8.5 3.5C9.60457 3.5 10.5 4.39543 10.5 5.5C10.5 6.60457 9.60457 7.5 8.5 7.5C7.39543 7.5 6.5 6.60457 6.5 5.5ZM6.07147 10.1236C6.42535 9.50934 7.12476 9 8.5 9C9.87524 9 10.5747 9.50934 10.9285 10.1236C10.9965 10.2416 11.0062 10.3359 10.9972 10.4115C10.9871 10.4957 10.9488 10.5906 10.8764 10.6798C10.7263 10.8647 10.4595 11 10.1765 11H6.82348C6.54052 11 6.27371 10.8647 6.12361 10.6798C6.05121 10.5906 6.01288 10.4957 6.00284 10.4115C5.99382 10.3359 6.0035 10.2416 6.07147 10.1236ZM5.20497 9.62446C5.7705 8.64276 6.83892 8 8.5 8C10.1611 8 11.2295 8.64276 11.795 9.62446C12.146 10.2338 12.0117 10.8678 11.6528 11.31C11.3086 11.7341 10.754 12 10.1765 12H6.82348C6.24604 12 5.6914 11.7341 5.34716 11.31C4.98831 10.8678 4.85397 10.2338 5.20497 9.62446ZM1.01721 5.73505C1.24025 5.36548 1.70949 5 2.75 5C3.79051 5 4.25975 5.36548 4.48279 5.73505C4.49684 5.75833 4.49947 5.77052 4.49977 5.77193L4.5 5.77311L4.49995 5.77349C4.49973 5.7753 4.49556 5.79923 4.46539 5.83472C4.3951 5.91739 4.24375 6 4.06726 6H1.43274C1.25625 6 1.1049 5.91739 1.03461 5.83472C1.00444 5.79923 1.00027 5.7753 1.00005 5.77349C1.00001 5.7732 0.999893 5.77348 1.00023 5.77193C1.00053 5.77052 1.00316 5.75833 1.01721 5.73505ZM0.161045 5.21835C0.605393 4.48207 1.44487 4 2.75 4C4.05513 4 4.89461 4.48207 5.33895 5.21835C5.61474 5.67532 5.50918 6.15087 5.22723 6.48248C4.95676 6.80059 4.52097 7 4.06726 7H1.43274C0.979028 7 0.54324 6.80059 0.272767 6.48248C-0.00918346 6.15087 -0.114739 5.67532 0.161045 5.21835Z" fill="#CDD1DA"/>
</svg>
