<svg width="12" height="10" viewBox="0 0 12 10" fill="none" xmlns="http://www.w3.org/2000/svg">
<path fill-rule="evenodd" clip-rule="evenodd" d="M0 2.4C0 1.07452 1.07452 0 2.4 0H9.6C10.9255 0 12 1.07452 12 2.4V7.2C12 8.52548 10.9255 9.6 9.6 9.6H2.4C1.07452 9.6 0 8.52548 0 7.2V2.4ZM2.4 1.2C1.73726 1.2 1.2 1.73726 1.2 2.4V3H10.8V2.4C10.8 1.73726 10.2627 1.2 9.6 1.2H2.4ZM1.2 7.2V4.2H10.8V7.2C10.8 7.86274 10.2627 8.4 9.6 8.4H2.4C1.73726 8.4 1.2 7.86274 1.2 7.2ZM7.2 6C6.86863 6 6.6 6.26863 6.6 6.6C6.6 6.93137 6.86863 7.2 7.2 7.2H9C9.33137 7.2 9.6 6.93137 9.6 6.6C9.6 6.26863 9.33137 6 9 6H7.2Z" fill="#CDD1DA"/>
</svg>
