<svg width="32" height="32" viewBox="0 0 32 32" fill="none" xmlns="http://www.w3.org/2000/svg">
<path d="M16 0.5C24.5604 0.5 31.5 7.43959 31.5 16C31.5 24.5604 24.5604 31.5 16 31.5C7.43959 31.5 0.5 24.5604 0.5 16C0.5 7.43959 7.43959 0.5 16 0.5Z" stroke="#27549D"/>
<path d="M16.6192 8C17.81 8.00011 18.7754 8.91057 18.7754 10.0332C18.7756 10.1959 18.8945 10.4131 19.1788 10.5586C19.2662 10.6034 19.3525 10.6499 19.4375 10.6982C19.7213 10.8595 19.9882 10.849 20.1446 10.7646C21.1831 10.2047 22.5062 10.5391 23.1084 11.5137L23.7061 12.4805C24.3096 13.457 23.9536 14.7102 22.9131 15.2715C22.7623 15.3529 22.6201 15.5602 22.627 15.8682C22.628 15.912 22.629 15.956 22.629 16C22.629 16.0442 22.628 16.0888 22.627 16.1328C22.6202 16.4405 22.7624 16.6472 22.9131 16.7285C23.9536 17.2898 24.3096 18.543 23.7061 19.5195L23.1084 20.4863C22.5062 21.4609 21.1831 21.7953 20.1446 21.2354C19.9882 21.151 19.7213 21.1405 19.4375 21.3018C19.3525 21.3501 19.2662 21.3966 19.1788 21.4414C18.8945 21.5869 18.7756 21.8041 18.7754 21.9668C18.7754 23.0894 17.81 23.9999 16.6192 24H15.3809C14.1901 23.9999 13.2247 23.0894 13.2247 21.9668C13.2245 21.8041 13.1056 21.5869 12.8213 21.4414C12.7338 21.3966 12.6476 21.3501 12.5625 21.3018C12.2788 21.1405 12.0119 21.151 11.8555 21.2354C10.817 21.7953 9.4939 21.4609 8.89165 20.4863L8.29399 19.5195C7.69054 18.543 8.04648 17.2898 9.08696 16.7285C9.23773 16.6472 9.37984 16.4405 9.37309 16.1328C9.37211 16.0888 9.37114 16.0442 9.37114 16C9.37114 15.956 9.37211 15.912 9.37309 15.8682C9.38 15.5602 9.23782 15.3529 9.08696 15.2715C8.04646 14.7102 7.69053 13.457 8.29399 12.4805L8.89165 11.5137C9.4939 10.5391 10.817 10.2047 11.8555 10.7646C12.0119 10.849 12.2788 10.8595 12.5625 10.6982C12.6476 10.6499 12.7339 10.6034 12.8213 10.5586C13.1056 10.4131 13.2245 10.1959 13.2247 10.0332C13.2247 8.91057 14.1901 8.00011 15.3809 8H16.6192ZM15.3809 9.59961C15.1274 9.59972 14.9219 9.79422 14.9219 10.0332C14.9218 10.9179 14.3228 11.6096 13.6309 11.9639C13.5658 11.9972 13.5018 12.0324 13.4385 12.0684C12.7635 12.452 11.828 12.5931 11.0127 12.1533C10.7835 12.0298 10.4916 12.1034 10.3584 12.3184L9.76079 13.2861C9.6318 13.4949 9.70737 13.7628 9.92973 13.8828C10.7463 14.3233 11.086 15.1588 11.0694 15.9014C11.0686 15.9341 11.0684 15.9671 11.0684 16C11.0684 16.0329 11.0686 16.0659 11.0694 16.0986C11.086 16.8412 10.7463 17.6767 9.92973 18.1172C9.70738 18.2372 9.63181 18.5052 9.76079 18.7139L10.3584 19.6816C10.4916 19.8966 10.7835 19.9702 11.0127 19.8467C11.828 19.4069 12.7635 19.548 13.4385 19.9316C13.5018 19.9676 13.5658 20.0028 13.6309 20.0361C14.3228 20.3904 14.9218 21.0821 14.9219 21.9668C14.9219 22.2058 15.1274 22.4003 15.3809 22.4004H16.6192C16.8727 22.4003 17.0782 22.2058 17.0782 21.9668C17.0783 21.0821 17.6773 20.3904 18.3692 20.0361C18.4343 20.0028 18.4983 19.9676 18.5616 19.9316C19.2366 19.5481 20.1721 19.4069 20.9874 19.8467C21.2166 19.9702 21.5085 19.8966 21.6416 19.6816L22.2393 18.7139C22.3683 18.5052 22.2927 18.2372 22.0704 18.1172C21.2538 17.6767 20.9141 16.8412 20.9307 16.0986C20.9314 16.0659 20.9317 16.0329 20.9317 16C20.9317 15.9671 20.9314 15.9341 20.9307 15.9014C20.9141 15.1588 21.2538 14.3233 22.0704 13.8828C22.2927 13.7628 22.3683 13.4949 22.2393 13.2861L21.6416 12.3184C21.5085 12.1034 21.2166 12.0298 20.9874 12.1533C20.1721 12.5931 19.2366 12.452 18.5616 12.0684C18.4983 12.0324 18.4343 11.9972 18.3692 11.9639C17.6773 11.6096 17.0783 10.9179 17.0782 10.0332C17.0782 9.79422 16.8727 9.59972 16.6192 9.59961H15.3809ZM16 12.7998C17.8748 12.7998 19.3946 14.2327 19.3946 16C19.3946 17.7673 17.8748 19.2002 16 19.2002C14.1253 19.2002 12.6055 17.7673 12.6055 16C12.6055 14.2327 14.1253 12.7998 16 12.7998ZM16 14.4004C15.0627 14.4004 14.3028 15.1163 14.3028 16C14.3028 16.8837 15.0627 17.5996 16 17.5996C16.9374 17.5996 17.6973 16.8837 17.6973 16C17.6973 15.1164 16.9374 14.4004 16 14.4004Z" fill="#17325E"/>
</svg>
