<svg width="12" height="12" viewBox="0 0 12 12" fill="none" xmlns="http://www.w3.org/2000/svg">
<path fill-rule="evenodd" clip-rule="evenodd" d="M3.35939 2.30747C4.06538 1.59451 5.01594 1.20001 6 1.20001C6.98406 1.20001 7.93462 1.59451 8.64061 2.30747C9.34762 3.02146 9.75 3.99604 9.75 5.01823C9.75 6.50647 8.7898 7.95918 7.72308 9.09629C7.20069 9.65314 6.67642 10.1092 6.28226 10.4262C6.17787 10.5102 6.08295 10.5841 6 10.6473C5.91705 10.5841 5.82213 10.5102 5.71774 10.4262C5.32358 10.1092 4.79931 9.65314 4.27692 9.09629C3.2102 7.95918 2.25 6.50647 2.25 5.01823C2.25 3.99604 2.65238 3.02146 3.35939 2.30747ZM5.64082 11.8911C5.64099 11.8912 5.64114 11.8913 6 11.4001L6.35886 11.8913C6.14346 12.0364 5.85621 12.0361 5.64082 11.8911ZM5.64082 11.8911L6 11.4001C6.35886 11.8913 6.35944 11.891 6.35961 11.8908L6.36076 11.8901L6.36425 11.8877L6.3759 11.8797L6.41717 11.8511C6.45241 11.8265 6.50276 11.7908 6.56608 11.7446C6.69266 11.6523 6.8714 11.5179 7.08493 11.3461C7.51108 11.0034 8.08056 10.5084 8.65192 9.89934C9.7727 8.70461 11 6.96638 11 5.01823C11 3.69684 10.4805 2.42384 9.54658 1.48068C8.61162 0.536485 7.33659 0 6 0C4.66341 0 3.38838 0.536485 2.45342 1.48068C1.51949 2.42384 1 3.69684 1 5.01823C1 6.96638 2.2273 8.70461 3.34808 9.89934C3.91944 10.5084 4.48892 11.0034 4.91507 11.3461C5.1286 11.5179 5.30734 11.6523 5.43392 11.7446C5.49724 11.7908 5.54759 11.8265 5.58283 11.8511L5.6241 11.8797L5.63575 11.8877L5.63924 11.8901L5.64082 11.8911ZM4.75 4.75C4.75 4.12868 5.30964 3.625 6 3.625C6.69036 3.625 7.25 4.12868 7.25 4.75C7.25 5.37132 6.69036 5.875 6 5.875C5.30964 5.875 4.75 5.37132 4.75 4.75ZM6 2.5C4.61929 2.5 3.5 3.50736 3.5 4.75C3.5 5.99264 4.61929 7 6 7C7.38071 7 8.5 5.99264 8.5 4.75C8.5 3.50736 7.38071 2.5 6 2.5Z" fill="#CDD1DA"/>
</svg>
