<svg width="20" height="20" viewBox="0 0 20 20" fill="none" xmlns="http://www.w3.org/2000/svg">
<path d="M3.55574 10.3314C4.72169 9.86154 5.69641 9.94587 6.52238 10.1573C6.90967 10.2565 7.29054 10.3913 7.58689 10.4875C7.90496 10.5908 8.15829 10.6614 8.39361 10.6884H8.39686L8.78151 10.7331C9.23554 10.7822 9.88929 10.8364 10.6438 10.8079C11.3241 10.7787 12.0024 10.8989 12.5288 11.2967C12.9416 11.6086 13.1891 12.0358 13.2908 12.5189C13.7536 12.1861 14.1713 11.8498 14.6009 11.5398C16.0394 10.4961 17.5963 10.6082 18.506 11.5715C19.4068 12.5259 19.3976 14.0662 18.1986 15.127L18.1954 15.1302C17.845 15.4371 16.9568 16.1707 16.0119 16.8973C15.091 17.6055 14.0261 18.3779 13.3567 18.7019L13.3559 18.7027C12.5783 19.0781 11.1597 20.0028 9.23611 20.003C7.88237 20.003 6.05323 19.5718 5.57985 19.4891L5.57579 19.4883C4.47728 19.292 3.35316 19.3638 2.48554 19.4932C2.05597 19.5572 1.69811 19.6339 1.4503 19.694C1.32687 19.724 1.23044 19.7503 1.1673 19.768C1.13629 19.7767 1.11271 19.7832 1.09818 19.7875C1.09126 19.7896 1.08563 19.7915 1.08273 19.7924L1.08029 19.7932C0.641673 19.9297 0.175694 19.6845 0.0385461 19.2459C-0.098384 18.8072 0.145543 18.3398 0.584219 18.2026H0.586659L0.589098 18.2018C0.591147 18.2011 0.594228 18.2002 0.597231 18.1993C0.603782 18.1973 0.613151 18.1944 0.624067 18.1912C0.64654 18.1845 0.678525 18.1747 0.718401 18.1635C0.798704 18.1411 0.913766 18.1106 1.05752 18.0757C1.34512 18.0059 1.75276 17.9182 2.23994 17.8456C3.20583 17.7015 4.52515 17.6091 5.86529 17.848C6.52507 17.9632 8.07432 18.3376 9.23611 18.3376C10.3135 18.3374 11.125 17.9697 11.8831 17.5829L12.6313 17.2023C13.1192 16.9661 14.0474 16.3063 14.9962 15.5767C15.9183 14.8675 16.7758 14.1589 17.0951 13.8795C17.6259 13.4098 17.5167 12.95 17.2952 12.7149C17.0823 12.4896 16.4942 12.2231 15.5776 12.889L15.5752 12.8906C15.1078 13.2278 14.3519 13.8448 13.5909 14.3284C12.8106 14.8242 11.8544 15.3005 10.8178 15.3677C10.8109 15.3681 10.8036 15.3674 10.7967 15.3677C10.6305 15.3866 10.4618 15.3964 10.2925 15.3929C9.06278 15.3691 8.0283 15.4609 7.30551 15.5571C6.94471 15.6052 6.66131 15.6548 6.47196 15.6913C6.378 15.7095 6.3066 15.7243 6.26052 15.7344C6.23779 15.7394 6.22037 15.7434 6.2101 15.7458C6.2054 15.7469 6.20076 15.7471 6.19872 15.7474L6.19953 15.7483C5.75285 15.8576 5.30218 15.5842 5.19276 15.1375C5.08362 14.6909 5.3569 14.2401 5.80349 14.1308H5.80511L5.80674 14.1299C5.80836 14.1295 5.81098 14.1289 5.81325 14.1283C5.81808 14.1272 5.82495 14.1261 5.83276 14.1242C5.84937 14.1204 5.87322 14.1145 5.9027 14.108C5.96213 14.0949 6.04761 14.0769 6.15643 14.0559C6.37477 14.0138 6.68966 13.959 7.08513 13.9063C7.77718 13.8141 8.72125 13.7272 9.83626 13.7241L10.3242 13.7282L10.3258 13.729L10.4828 13.7258C10.8418 13.7064 11.1607 13.5967 11.3814 13.4493C11.6383 13.2774 11.6798 13.1229 11.6798 13.0549C11.6798 12.776 11.5934 12.6776 11.5245 12.6255C11.4218 12.548 11.1829 12.4509 10.7154 12.471H10.7113C9.55894 12.5148 8.61407 12.3919 8.20006 12.3425C7.79089 12.2952 7.40654 12.18 7.07293 12.0717C6.71674 11.956 6.42872 11.8526 6.10926 11.7708C5.52153 11.6203 4.92574 11.5741 4.17623 11.8765L4.17379 11.8773C3.69701 12.068 3.41644 12.3415 3.01738 12.7637C2.61278 13.1918 2.10622 13.7492 1.23968 14.234L1.16323 14.2723C0.776045 14.44 0.316608 14.2905 0.106044 13.9144C-0.118425 13.5131 0.0251411 13.0053 0.426454 12.7808L0.646837 12.6491C1.13428 12.3382 1.44847 11.9992 1.80731 11.6195C2.22291 11.1798 2.71561 10.6673 3.55574 10.3314Z" fill="#27549D"/>
<path d="M6.76635 0.945962C8.30826 -0.315265 10.5308 -0.315376 12.0726 0.945962L16.5584 4.61604C17.3317 5.24897 17.7804 6.19505 17.7806 7.19233V10.4094C17.2876 10.1755 16.7118 10.1072 16.1087 10.2248V7.19233C16.1084 6.69395 15.8844 6.22057 15.4979 5.90419L11.0114 2.23411C10.0864 1.47741 8.75355 1.47776 7.82842 2.23411L3.34105 5.90419C2.95455 6.22057 2.73055 6.6939 2.73032 7.19233V9.56938C2.35057 9.83793 2.06428 10.1376 1.80731 10.4094C1.56045 10.6706 1.3338 10.9114 1.05833 11.1381V7.19233C1.05856 6.195 1.50715 5.24897 2.2806 4.61604L6.76635 0.945962Z" fill="#27549D"/>
</svg>
