<svg width="16" height="16" viewBox="0 0 16 16" fill="none" xmlns="http://www.w3.org/2000/svg">
<path d="M4.3335 0.666992C4.52793 0.667036 4.71456 0.744348 4.85205 0.881836L7.78564 3.81445C8.07185 4.10072 8.07164 4.56516 7.78564 4.85156C7.49928 5.13793 7.03492 5.1379 6.74854 4.85156L5.06689 3.1709V10.0664C5.06689 10.4714 4.73843 10.7997 4.3335 10.7998C3.92849 10.7998 3.6001 10.4714 3.6001 10.0664V3.1709L1.91846 4.85156C1.63207 5.13795 1.16773 5.13795 0.881348 4.85156C0.595172 4.56516 0.595033 4.10077 0.881348 3.81445L3.81494 0.881836C3.95247 0.744309 4.139 0.666992 4.3335 0.666992Z" fill="#17325E"/>
<path d="M11.6671 5.33301C12.0718 5.33323 12.4003 5.66165 12.4005 6.06641V12.9629L14.0811 11.2812C14.3674 10.9949 14.8319 10.9951 15.1183 11.2812C15.4046 11.5676 15.4046 12.032 15.1183 12.3184L12.1856 15.252C12.0482 15.3894 11.8614 15.4667 11.6671 15.4668C11.4727 15.4668 11.286 15.3893 11.1485 15.252L8.21494 12.3184C7.92857 12.032 7.92856 11.5676 8.21494 11.2812C8.50133 10.995 8.96572 10.9949 9.25204 11.2812L10.9337 12.9629V6.06641C10.9338 5.66152 11.2622 5.33301 11.6671 5.33301Z" fill="#17325E"/>
</svg>
