<svg width="24" height="24" viewBox="0 0 24 24" fill="none" xmlns="http://www.w3.org/2000/svg">
<path d="M16.4121 14.0107C18.0305 14.0929 19.5218 14.6565 20.7461 15.5605C21.4207 16.059 20.9991 17 20.1602 17H19.9189C19.5253 16.9999 19.1449 16.8753 18.7969 16.6914C18.0474 16.2954 17.204 16.0532 16.3086 16.0078L16 16H8.57129C5.13463 16.0001 2.31601 18.6384 2.02637 22H10C10.5523 22 11 22.4477 11 23C11 23.5523 10.5523 24 10 24H1.42871L1.28223 23.9922C0.610145 23.9238 0.0762199 23.3899 0.0078125 22.7178L0 22.5713C7.30055e-05 17.9856 3.60125 14.2405 8.12988 14.0107L8.57129 14H16L16.4121 14.0107ZM22.2041 18.0107C23.2128 18.113 24 18.9643 24 20V22L23.9893 22.2041C23.8938 23.1457 23.1457 23.8938 22.2041 23.9893L22 24H15L14.7959 23.9893C13.8543 23.8938 13.1062 23.1457 13.0107 22.2041L13 22V20C13 18.9643 13.7872 18.113 14.7959 18.0107L15 18H22L22.2041 18.0107ZM15 22H22V20H15V22ZM12.3828 0.0078125C15.3551 0.1683 17.7188 2.7897 17.7188 6L17.7119 6.30859C17.5613 9.4789 15.1033 12 12.0938 12L11.8047 11.9922C8.83242 11.8317 6.46875 9.2103 6.46875 6C6.46875 2.68629 8.98715 0 12.0938 0L12.3828 0.0078125ZM12.0938 2C10.2702 2 8.57766 3.56469 8.47363 5.7832L8.46875 6C8.46875 8.33269 10.2113 10 12.0938 10C13.9173 10 15.6098 8.43531 15.7139 6.2168L15.7188 6C15.7188 3.74011 14.0832 2.10476 12.2695 2.00488L12.0938 2Z" fill="#C6C6C6"/>
</svg>
