<svg width="128" height="91" viewBox="0 0 128 91" fill="none" xmlns="http://www.w3.org/2000/svg">
<g opacity="0.5">
<path d="M107.515 6.59927V52.2372L89.1993 70.9312H6.60452C6.17545 70.9312 5.74638 70.8559 5.36815 70.7034C4.0057 70.1991 3.02148 68.8875 3.02148 67.3238V6.59927C3.02148 4.60643 4.61168 2.96743 6.60452 2.96743H103.932C105.901 2.96743 107.515 4.60643 107.515 6.59927Z" fill="#A5BFE9"/>
<path d="M89.2014 73.4527H6.60458C5.85625 73.4527 5.10589 73.3145 4.4389 73.0481C2.1024 72.1818 0.5 69.8717 0.5 67.3217V6.59928C0.5 3.20536 3.23913 0.443863 6.60458 0.443863H103.932C107.298 0.443863 110.037 3.20536 110.037 6.59928V52.2352C110.037 52.896 109.778 53.5285 109.315 54.0002L91.0011 72.6942C90.5273 73.1782 89.8786 73.4527 89.1994 73.4527H89.2014ZM6.60458 5.48898C6.02096 5.48898 5.54512 5.98719 5.54512 6.59928V67.3217C5.54512 67.8789 5.92132 68.2185 6.24465 68.3385C6.32599 68.369 6.43376 68.4076 6.60458 68.4076H88.142L104.994 51.2062V6.59928C104.994 5.99736 104.508 5.48898 103.934 5.48898H6.60458Z" fill="#17325E"/>
<path d="M59.7738 20.438C61.2759 16.8116 59.5539 12.6542 55.9275 11.1521C52.3012 9.65002 48.1437 11.3721 46.6416 14.9984C45.1396 18.6248 46.8616 22.7822 50.488 24.2843C54.1143 25.7864 58.2718 24.0643 59.7738 20.438Z" fill="#F1FF24"/>
<path d="M67.4541 70.9292H6.60356C6.17449 70.9292 5.74542 70.8539 5.36719 70.7014L34.7818 29.0248L67.4521 70.9271L67.4541 70.9292Z" fill="#1F447F"/>
<path d="M67.4564 73.4527H6.60582C5.85749 73.4527 5.10713 73.3145 4.44014 73.0481C3.72028 72.7634 3.17124 72.1655 2.95162 71.4233C2.72996 70.6811 2.86011 69.8799 3.30545 69.2475L32.7221 27.5708C33.1837 26.9181 33.9259 26.5236 34.7251 26.5032C35.5304 26.4564 36.2828 26.8448 36.7749 27.4732L69.4452 69.3756C70.0369 70.1361 70.1447 71.1671 69.7217 72.0334C69.2987 72.8996 68.4182 73.4487 67.4544 73.4487L67.4564 73.4527ZM10.077 68.4076H62.2893L34.8858 33.2606L10.077 68.4076Z" fill="#17325E"/>
<path d="M104.564 65.758L89.201 70.9292H35.7422L55.2699 51.3526L77.5205 29.0268L100.351 53.3719L104.564 65.758Z" fill="#27549D"/>
<path d="M89.2012 73.4527H35.7424C34.7216 73.4527 33.8045 72.8386 33.412 71.8971C33.0236 70.9556 33.2371 69.8717 33.957 69.1498L75.7353 27.2475C76.2091 26.7716 76.8517 26.5052 77.5207 26.5052H77.5594C78.2426 26.5154 78.8913 26.8042 79.3611 27.3024L102.191 51.6475C102.437 51.9098 102.624 52.2209 102.738 52.5605L106.952 64.9466C107.169 65.5811 107.124 66.2765 106.826 66.8764C106.527 67.4763 106.006 67.9338 105.37 68.1494L90.0064 73.3226C89.7462 73.41 89.4737 73.4548 89.2012 73.4548V73.4527ZM41.8226 68.4076H88.7863L101.362 64.1759L98.1384 54.6998L77.4658 32.6566L41.8226 68.4076Z" fill="#17325E"/>
<path d="M110.444 86.7434C119.864 84.6378 125.794 75.2941 123.688 65.8737C121.583 56.4534 112.239 50.5237 102.819 52.6294C93.3984 54.7351 87.4687 64.0788 89.5744 73.4991C91.6801 82.9194 101.024 88.8491 110.444 86.7434Z" fill="#27549D"/>
<path d="M106.63 89.6862C95.6007 89.6862 86.6289 80.7144 86.6289 69.6847C86.6289 58.6549 95.6007 49.6831 106.63 49.6831C117.66 49.6831 126.632 58.6549 126.632 69.6847C126.632 80.7144 117.66 89.6862 106.63 89.6862ZM106.63 54.7282C98.3826 54.7282 91.674 61.4388 91.674 69.6847C91.674 77.9305 98.3826 84.6411 106.63 84.6411C114.878 84.6411 121.587 77.9325 121.587 69.6847C121.587 61.4368 114.878 54.7282 106.63 54.7282Z" fill="#17325E"/>
<path d="M106.635 77.7557C105.484 77.7557 104.555 76.8243 104.555 75.6754V63.694C104.555 62.545 105.486 61.6137 106.635 61.6137C107.784 61.6137 108.715 62.545 108.715 63.694V75.6754C108.715 76.8243 107.784 77.7557 106.635 77.7557Z" fill="#F1FF24"/>
<path d="M110.493 69.6318C109.96 69.6318 109.427 69.4284 109.02 69.0217L106.633 66.6344L104.248 69.0217C103.434 69.8351 102.119 69.8351 101.305 69.0217C100.492 68.2104 100.492 66.8927 101.305 66.0793L105.163 62.2217C105.942 61.4429 107.322 61.4408 108.105 62.2217L111.965 66.0793C112.778 66.8906 112.778 68.2083 111.965 69.0217C111.558 69.4284 111.026 69.6318 110.493 69.6318Z" fill="#F1FF24"/>
</g>
</svg>
