<svg width="24" height="24" viewBox="0 0 24 24" fill="none" xmlns="http://www.w3.org/2000/svg">
<path fill-rule="evenodd" clip-rule="evenodd" d="M8.4 6C8.4 4.01178 10.0118 2.4 12 2.4C13.9882 2.4 15.6 4.01178 15.6 6C15.6 7.98823 13.9882 9.6 12 9.6C10.0118 9.6 8.4 7.98823 8.4 6ZM12 0C8.68629 0 6 2.68629 6 6C6 9.31371 8.68629 12 12 12C15.3137 12 18 9.31371 18 6C18 2.68629 15.3137 0 12 0ZM4.62947 18.7416C5.71057 16.9353 7.87762 15.4444 12 15.4444C16.1224 15.4444 18.2894 16.9353 19.3705 18.7416C19.7468 19.3702 19.6521 19.9632 19.1928 20.5079C18.6917 21.1021 17.7857 21.5556 16.7901 21.5556H7.20995C6.21432 21.5556 5.30826 21.1021 4.8072 20.5079C4.34787 19.9632 4.25324 19.3702 4.62947 18.7416ZM12 13C7.25406 13 4.20143 14.7676 2.58562 17.4673C1.58277 19.1428 1.96661 20.8865 2.99188 22.1024C3.97542 23.2688 5.5601 24 7.20995 24H16.7901C18.4399 24 20.0246 23.2688 21.0081 22.1024C22.0334 20.8865 22.4172 19.1428 21.4144 17.4673C19.7986 14.7676 16.7459 13 12 13Z" fill="#C6C6C6"/>
</svg>
