<svg width="20" height="18" viewBox="0 0 20 18" fill="none" xmlns="http://www.w3.org/2000/svg">
<path fill-rule="evenodd" clip-rule="evenodd" d="M16.054 2.51043L16.0542 2.51071C16.116 2.60259 16.1747 2.68989 16.2299 2.77095C16.7157 3.48419 18.5829 6.0259 19.494 7.26293C19.8172 7.70176 19.9478 8.25285 19.8555 8.78999L19.0007 13.7633C18.9474 14.1005 18.7771 14.4083 18.5196 14.6325C18.2622 14.8567 17.934 14.9832 17.5926 14.9897H16.6841C16.4865 15.643 16.0838 16.2153 15.5358 16.622C14.9877 17.0288 14.3233 17.2484 13.6408 17.2484C12.9583 17.2484 12.2939 17.0288 11.7458 16.622C11.1978 16.2153 10.7951 15.643 10.5975 14.9897H8.50803C8.31036 15.643 7.90773 16.2153 7.35967 16.622C6.81161 17.0288 6.14721 17.2484 5.4647 17.2484C4.78218 17.2484 4.11778 17.0288 3.56972 16.622C3.02166 16.2153 2.61904 15.643 2.42137 14.9897H1.2858C1.10354 14.9868 0.924038 14.9447 0.759462 14.8663C0.594885 14.7879 0.449077 14.6751 0.331919 14.5355C0.204664 14.3959 0.110103 14.2297 0.055104 14.049C0.000105025 13.8683 -0.0139504 13.6776 0.0139589 13.4907L0.377341 11.5376C0.419813 11.3293 0.533981 11.1425 0.699973 11.0097C0.865965 10.8769 1.07327 10.8065 1.2858 10.8108H4.8742C5.19168 10.8046 5.49704 10.6878 5.73755 10.4805C5.97805 10.2731 6.1386 9.98833 6.19146 9.67522L7.28161 3.40687C7.31431 3.21365 7.30495 3.01564 7.25416 2.82636C7.20337 2.63709 7.11236 2.46099 6.98732 2.31009C6.86229 2.15918 6.70618 2.03702 6.52964 1.95194C6.3531 1.86686 6.16028 1.82086 5.96435 1.81707H2.64848C2.5168 1.81856 2.38636 1.79141 2.26622 1.73748C2.14607 1.68356 2.03908 1.60416 1.95267 1.50478C1.86626 1.40541 1.80248 1.28843 1.76576 1.16196C1.72905 1.03549 1.72026 0.902549 1.74003 0.772347C1.78275 0.551972 1.90182 0.353723 2.07629 0.212482C2.25077 0.0712404 2.46946 -0.00394307 2.69391 0.000159438H13.5045C14.3655 0.000159438 15.3885 1.5211 16.054 2.51043ZM4.50113 15.0448C4.75669 15.3003 5.10329 15.4439 5.4647 15.4439C5.8261 15.4439 6.17271 15.3003 6.42826 15.0448C6.68381 14.7892 6.82738 14.4426 6.82738 14.0812C6.82738 13.7198 6.68381 13.3732 6.42826 13.1177C6.17271 12.8621 5.8261 12.7185 5.4647 12.7185C5.10329 12.7185 4.75669 12.8621 4.50113 13.1177C4.24558 13.3732 4.10201 13.7198 4.10201 14.0812C4.10201 14.4426 4.24558 14.7892 4.50113 15.0448ZM12.6772 15.0448C12.9328 15.3003 13.2794 15.4439 13.6408 15.4439C14.0022 15.4439 14.3488 15.3003 14.6044 15.0448C14.8599 14.7892 15.0035 14.4426 15.0035 14.0812C15.0035 13.7198 14.8599 13.3732 14.6044 13.1177C14.3488 12.8621 14.0022 12.7185 13.6408 12.7185C13.2794 12.7185 12.9328 12.8621 12.6772 13.1177C12.4217 13.3732 12.2781 13.7198 12.2781 14.0812C12.2781 14.4426 12.4217 14.7892 12.6772 15.0448ZM14.3221 4.08821L13.6862 7.72204H17.5926L14.9126 4.08821H14.3221ZM5.46465 4.54244H0.922372C0.681435 4.54244 0.450365 4.44673 0.279997 4.27636C0.109628 4.10599 0.013916 3.87492 0.013916 3.63398C0.013916 3.39304 0.109628 3.16197 0.279997 2.99161C0.450365 2.82124 0.681435 2.72552 0.922372 2.72552H5.46465C5.70559 2.72552 5.93666 2.82124 6.10703 2.99161C6.2774 3.16197 6.37311 3.39304 6.37311 3.63398C6.37311 3.87492 6.2774 4.10599 6.10703 4.27636C5.93666 4.44673 5.70559 4.54244 5.46465 4.54244ZM5.91876 6.35935C5.91876 6.11842 5.82304 5.88735 5.65268 5.71698C5.48231 5.54661 5.25124 5.4509 5.0103 5.4509H1.37647C1.13554 5.4509 0.904467 5.54661 0.734098 5.71698C0.56373 5.88735 0.468018 6.11842 0.468018 6.35935C0.468018 6.60029 0.56373 6.83136 0.734098 7.00173C0.904467 7.1721 1.13554 7.26781 1.37647 7.26781H5.0103C5.25124 7.26781 5.48231 7.1721 5.65268 7.00173C5.82304 6.83136 5.91876 6.60029 5.91876 6.35935ZM1.1885 8.44235C1.35887 8.27198 1.58994 8.17627 1.83088 8.17627H4.55625C4.79719 8.17627 5.02826 8.27198 5.19863 8.44235C5.36899 8.61272 5.46471 8.84379 5.46471 9.08473C5.46471 9.32566 5.36899 9.55673 5.19863 9.7271C5.02826 9.89747 4.79719 9.99318 4.55625 9.99318H1.83088C1.58994 9.99318 1.35887 9.89747 1.1885 9.7271C1.01814 9.55673 0.922424 9.32566 0.922424 9.08473C0.922424 8.84379 1.01814 8.61272 1.1885 8.44235Z" fill="#C6C6C6"/>
</svg>
