<svg width="20" height="20" viewBox="0 0 20 20" fill="none" xmlns="http://www.w3.org/2000/svg">
<path d="M15 0C17.7614 0 20 2.23913 20 5.00098V15.002C20 17.7638 17.7614 20.0029 15 20.0029H5C2.23858 20.0029 0 17.7638 0 15.002V5.00098C0 2.23913 2.23858 0 5 0H15ZM5 2C3.34315 2 2 3.34387 2 5.00098V15.002C2 16.6591 3.34315 18.0029 5 18.0029H15C16.6569 18.0029 18 16.6591 18 15.002V14.002H13C10.791 14.002 9.00023 12.2112 9 10.002C9 7.79248 10.7909 6.00098 13 6.00098H18V5.00098C18 3.34387 16.6569 2 15 2H5ZM13 8.00098C11.8954 8.00098 11 8.89722 11 10.002C11.0002 11.1065 11.8956 12.002 13 12.002H18V8.00098H13ZM13.0996 9.00098C13.6519 9.00098 14.0996 9.44958 14.0996 10.002C14.0994 10.5541 13.6518 11.002 13.0996 11.002H13C12.4479 11.002 12.0002 10.5541 12 10.002C12 9.44958 12.4477 9.00098 13 9.00098H13.0996Z" fill="#27549D"/>
</svg>
