<svg width="13" height="12" viewBox="0 0 13 12" fill="none" xmlns="http://www.w3.org/2000/svg">
<g clip-path="url(#clip0_19038_33733)">
<path d="M3.62494 0.693359C4.64631 -0.262241 6.23613 -0.230459 7.21967 0.789062L7.26947 0.844727C7.44332 1.05418 7.5209 1.32312 7.4931 1.58789L8.22162 0.864258L8.31635 0.77832C8.77454 0.40671 9.43536 0.406588 9.89349 0.77832L9.98822 0.864258L11.871 2.7373L11.9345 2.80566C12.0555 2.94554 12.1438 3.10998 12.1933 3.28613L12.2148 3.375V3.37695L12.4755 4.67383L12.4892 4.75195C12.5385 5.11416 12.426 5.47876 12.1855 5.75L12.1318 5.80664L11.8007 6.13574C11.343 6.59105 10.6198 6.61999 10.1288 6.22168L10.0341 6.13574L9.7099 5.81348L8.93451 6.51855C9.21081 6.76675 9.48959 7.01208 9.77338 7.25098L10.1904 7.59766L11.2744 8.48145C12.1404 9.18797 12.241 10.4957 11.5234 11.335L11.4511 11.415L11.2919 11.5635C10.471 12.2518 9.24487 12.1158 8.58783 11.2305L7.74603 10.0947L7.41498 9.65625C7.18977 9.36221 6.95852 9.07334 6.72455 8.78711C6.47563 9.06626 6.23121 9.34945 5.99115 9.63574L5.62299 10.082L4.68451 11.2373V11.2383C3.94514 12.1482 2.57419 12.2537 1.69525 11.499L1.61224 11.4229C0.72245 10.57 0.817462 9.15755 1.80463 8.42188L3.01068 7.52344L3.47748 7.16992C3.83674 6.89367 4.18861 6.60876 4.53705 6.32031L3.8974 5.61816L3.87103 5.64941L3.39349 6.14453C2.96524 6.58858 2.27355 6.61615 1.81244 6.22754L1.72357 6.14453L0.828064 5.21582C0.391132 4.76254 0.391015 4.04208 0.828064 3.58887L1.29681 3.10352L1.39349 3.01172C1.505 2.91772 1.62948 2.84733 1.7597 2.79785C1.82061 2.62296 1.91836 2.45777 2.05463 2.31641L3.52826 0.789062L3.62494 0.693359ZM7.25482 5.24316C6.25093 6.20401 5.19349 7.11195 4.08685 7.96289L3.60834 8.3252L2.40228 9.22363C1.90594 9.59346 1.86468 10.2804 2.30365 10.7012C2.75902 11.1373 3.51696 11.0887 3.90814 10.6074L4.8476 9.45117L5.22552 8.99316C6.1161 7.93106 7.06637 6.9164 8.0722 5.95312L8.07611 5.94824L8.08099 5.94434L8.99994 5.10742L8.23431 4.3457L7.25482 5.24316ZM8.039 7.3877C7.82549 7.60357 7.61508 7.82222 7.40717 8.04297C7.6795 8.3736 7.94796 8.70808 8.20892 9.04883L8.54877 9.49902L9.39154 10.6348C9.72701 11.0865 10.3469 11.1231 10.7275 10.7246L10.7968 10.6436C11.1178 10.2226 11.0528 9.59067 10.6425 9.25586L9.55853 8.37207L9.12885 8.0166C8.81879 7.75559 8.51512 7.48663 8.21381 7.21484L8.039 7.3877ZM4.68646 4.80469C4.65571 4.83657 4.62173 4.86438 4.58881 4.89258L5.29877 5.67188C5.53746 5.46336 5.77365 5.25235 6.00677 5.03809L5.25775 4.21094L4.68646 4.80469ZM6.49994 1.4834C5.8781 0.838764 4.87016 0.838783 4.24799 1.4834L2.77435 3.01074C2.65532 3.13451 2.65543 3.33514 2.77435 3.45898L2.83978 3.52734L2.49115 3.88867L2.40326 3.79688C2.29671 3.68649 2.1232 3.68668 2.01654 3.79688L1.54779 4.2832C1.48456 4.34898 1.48466 4.45564 1.54779 4.52148L2.4433 5.4502C2.49888 5.50782 2.58523 5.51488 2.64838 5.47168L2.67377 5.4502L3.15131 4.95508C3.25294 4.84932 3.25301 4.67862 3.15131 4.57324L3.05365 4.47168L3.40326 4.11035C3.55859 4.27123 3.81041 4.2712 3.96576 4.11035L5.09271 2.94238C5.2478 2.78124 5.248 2.51941 5.09271 2.3584L5.539 1.89648C5.79375 1.63237 6.13956 1.48346 6.49994 1.4834ZM9.28314 1.57324C9.18493 1.47554 9.02496 1.47562 8.9267 1.57324L8.07416 2.42188C7.97615 2.51961 7.97603 2.67772 8.07416 2.77539L10.7392 5.42676C10.8251 5.51218 10.9579 5.52292 11.0556 5.45898L11.0956 5.42676L11.4267 5.09766C11.4786 5.04601 11.5051 4.97434 11.4999 4.90234L11.4951 4.87109L11.2343 3.57422C11.2269 3.53798 11.2114 3.50419 11.1894 3.47461L11.166 3.44629L9.28314 1.57324ZM7.03021 2.32812C6.87417 2.42601 6.69211 2.4834 6.49994 2.4834C6.43733 2.48344 6.37248 2.5028 6.31439 2.54297L6.25873 2.58984L6.20892 2.6416C6.21081 2.9355 6.12078 3.22865 5.94232 3.47754L6.7392 4.35742L7.52435 3.63867L7.36908 3.48438C7.05401 3.17096 6.94116 2.7318 7.03021 2.32812Z" fill="#27549D"/>
</g>
<defs>
<clipPath id="clip0_19038_33733">
<rect width="12" height="12" fill="white" transform="translate(0.5)"/>
</clipPath>
</defs>
</svg>
