<svg width="18" height="18" viewBox="0 0 18 18" fill="none" xmlns="http://www.w3.org/2000/svg">
<path d="M12.2304 1.18973C13.0826 1.19007 14.1099 2.83572 14.6982 3.6995C15.1301 4.33355 16.7667 6.56178 17.6074 7.7034C17.9306 8.14226 18.0601 8.69263 17.9678 9.22977L17.208 13.6546C17.1597 13.9598 17.0055 14.2387 16.7724 14.4417C16.5393 14.6447 16.2417 14.759 15.9326 14.7649H15.1094C14.9303 15.3565 14.5656 15.8751 14.0693 16.2434C13.573 16.6116 12.9715 16.8108 12.3535 16.8108C11.7355 16.8108 11.1339 16.6117 10.6377 16.2434C10.1413 15.8751 9.77666 15.3565 9.59764 14.7649H7.70506C7.52604 15.3565 7.16136 15.8751 6.66502 16.2434C6.16876 16.6117 5.56717 16.8108 4.9492 16.8108C4.33109 16.8108 3.72875 16.6118 3.2324 16.2434C2.7362 15.8751 2.37234 15.3564 2.19334 14.7649H1.16404C0.999121 14.7622 0.836406 14.7245 0.687481 14.6536C0.538555 14.5827 0.406813 14.4801 0.300762 14.3538C0.185588 14.2274 0.0996082 14.0769 0.0497853 13.9134C-1.87502e-05 13.7497 -0.0125895 13.5767 0.0126759 13.4075L0.341777 11.639C0.380237 11.4503 0.483467 11.2807 0.63377 11.1604C0.783995 11.0403 0.971707 10.977 1.16404 10.9807H4.41404C4.70156 10.9752 4.97846 10.8687 5.19627 10.6809C5.41385 10.4933 5.55947 10.2357 5.6074 9.95243L6.59471 4.27469C6.62423 4.09984 6.61527 3.92057 6.56932 3.7493C6.52331 3.57795 6.44131 3.41815 6.32811 3.28153C6.21489 3.14492 6.07291 3.03434 5.91307 2.95731C5.75329 2.88038 5.57865 2.83867 5.40135 2.83524H2.39842C2.27927 2.83657 2.16143 2.81173 2.05272 2.76297C1.94391 2.71414 1.84679 2.64204 1.76854 2.55204C1.69048 2.46222 1.63284 2.35672 1.59959 2.24247C1.56634 2.12793 1.55825 2.00687 1.57615 1.88895C1.61487 1.68961 1.72208 1.50995 1.87986 1.38211C2.03781 1.25425 2.23626 1.18608 2.43943 1.18973H12.2304ZM4.9492 12.7083C4.6219 12.7083 4.30759 12.8382 4.07615 13.0696C3.84479 13.301 3.71482 13.6154 3.71482 13.9427C3.71494 14.2697 3.84493 14.5834 4.07615 14.8147C4.30759 15.0462 4.6219 15.1761 4.9492 15.1761C5.27637 15.176 5.58989 15.046 5.82127 14.8147C6.0526 14.5834 6.18346 14.2698 6.18357 13.9427C6.18357 13.6154 6.05271 13.3011 5.82127 13.0696C5.58989 12.8383 5.27635 12.7083 4.9492 12.7083ZM12.3535 12.7083C12.0263 12.7083 11.7128 12.8383 11.4814 13.0696C11.25 13.3011 11.1191 13.6154 11.1191 13.9427C11.1192 14.2698 11.2501 14.5834 11.4814 14.8147C11.7128 15.046 12.0263 15.176 12.3535 15.1761C12.6808 15.1761 12.9951 15.0462 13.2265 14.8147C13.4577 14.5834 13.5878 14.2697 13.5879 13.9427C13.5879 13.6154 13.4579 13.301 13.2265 13.0696C12.9951 12.8382 12.6808 12.7083 12.3535 12.7083ZM4.12596 8.59403C4.3441 8.59403 4.55371 8.68102 4.70799 8.83524C4.86228 8.98953 4.9492 9.19907 4.9492 9.41727C4.94918 9.63544 4.86226 9.84503 4.70799 9.9993C4.55372 10.1535 4.34406 10.2395 4.12596 10.2395H1.65818C1.44002 10.2395 1.23044 10.1535 1.07615 9.9993C0.921879 9.84503 0.834963 9.63544 0.834942 9.41727C0.834942 9.19907 0.92186 8.98953 1.07615 8.83524C1.23044 8.68095 1.43999 8.59403 1.65818 8.59403H4.12596ZM12.3945 8.1829H15.9326L13.5058 4.89188H12.9707L12.3945 8.1829ZM4.53709 6.12626C4.75529 6.12626 4.96483 6.21317 5.11912 6.36747C5.27339 6.52176 5.36033 6.73131 5.36033 6.9495C5.36021 7.16751 5.27327 7.37638 5.11912 7.53055C4.96483 7.68484 4.75529 7.77176 4.53709 7.77176H1.24705C1.02885 7.77176 0.819312 7.68484 0.66502 7.53055C0.510845 7.37637 0.423933 7.16753 0.423809 6.9495C0.423809 6.7313 0.510727 6.52176 0.66502 6.36747C0.819311 6.21318 1.02885 6.12626 1.24705 6.12626H4.53709ZM4.9492 3.65848C5.16713 3.65854 5.37605 3.74473 5.53025 3.89872C5.68453 4.05299 5.77145 4.26257 5.77146 4.48075C5.77146 4.69895 5.68455 4.90849 5.53025 5.06278C5.37605 5.2168 5.16716 5.30393 4.9492 5.30399H0.834942C0.617003 5.30389 0.408065 5.21681 0.253887 5.06278C0.0995947 4.90849 0.0126759 4.69895 0.0126759 4.48075C0.0126913 4.26257 0.0996084 4.05299 0.253887 3.89872C0.408059 3.74472 0.61703 3.65858 0.834942 3.65848H4.9492Z" fill="#17325E"/>
</svg>
