<svg width="18" height="18" viewBox="0 0 18 18" fill="none" xmlns="http://www.w3.org/2000/svg">
<path d="M13.5 0C15.9853 1.9328e-07 18 2.01472 18 4.5V13.5C18 15.9853 15.9853 18 13.5 18H4.5C2.01472 18 1.93277e-07 15.9853 0 13.5V4.5C0 2.01472 2.01472 0 4.5 0H13.5ZM4.5 1.7998C3.00883 1.7998 1.7998 3.00883 1.7998 4.5V13.5C1.7998 14.9912 3.00883 16.2002 4.5 16.2002H13.5C14.9912 16.2002 16.2002 14.9912 16.2002 13.5V4.5C16.2002 3.00883 14.9912 1.7998 13.5 1.7998H4.5ZM5.40039 7.2002C5.89713 7.20041 6.29958 7.60288 6.2998 8.09961V12.5996C6.2998 13.0965 5.89727 13.4998 5.40039 13.5C4.90333 13.5 4.5 13.0967 4.5 12.5996V8.09961C4.50023 7.60275 4.90347 7.2002 5.40039 7.2002ZM9 4.5C9.49706 4.5 9.90039 4.90333 9.90039 5.40039V12.5996C9.90039 13.0967 9.49706 13.5 9 13.5C8.50295 13.5 8.09961 13.0967 8.09961 12.5996V5.40039C8.09961 4.90334 8.50295 4.50001 9 4.5ZM12.5996 9C13.0967 9 13.5 9.40333 13.5 9.90039V12.5996C13.5 13.0967 13.0967 13.5 12.5996 13.5C12.1027 13.4998 11.7002 13.0965 11.7002 12.5996V9.90039C11.7002 9.40347 12.1027 9.00023 12.5996 9Z" fill="#17325E"/>
</svg>
