<svg width="18" height="18" viewBox="0 0 18 18" fill="none" xmlns="http://www.w3.org/2000/svg">
<path d="M10.0549 0C10.7708 0.000123666 11.4579 0.284777 11.9641 0.791016L15.4094 4.23633C15.9157 4.74265 16.2004 5.42948 16.2004 6.14551V14.4004C16.2002 16.3884 14.5879 18 12.5999 18H5.39966C3.41174 17.9998 1.80026 16.3883 1.80005 14.4004V3.59961C1.80026 1.61169 3.41174 0.000211156 5.39966 0H10.0549ZM5.39966 1.7998C4.40586 1.80002 3.60006 2.60581 3.59985 3.59961V14.4004C3.60006 15.3942 4.40586 16.2 5.39966 16.2002H12.5999C13.5938 16.2002 14.3994 15.3943 14.3997 14.4004V7.2002H13.5002C11.015 7.2002 9.00036 5.18537 9.00024 2.7002V1.7998H5.39966ZM11.7004 12.5996C12.1973 12.5998 12.5998 13.0031 12.5999 13.5C12.5999 13.9969 12.1973 14.4002 11.7004 14.4004H6.30005C5.803 14.4004 5.39966 13.997 5.39966 13.5C5.39967 13.003 5.80301 12.5996 6.30005 12.5996H11.7004ZM11.7004 9C12.1973 9.0002 12.5999 9.40346 12.5999 9.90039C12.5996 10.3971 12.1972 10.7996 11.7004 10.7998H6.30005C5.80314 10.7998 5.39987 10.3973 5.39966 9.90039C5.39966 9.40334 5.803 9.00001 6.30005 9H11.7004ZM7.20044 5.40039C7.69727 5.40059 8.09976 5.80295 8.09985 6.2998C8.09985 6.79674 7.69733 7.2 7.20044 7.2002H6.30005C5.803 7.20018 5.39966 6.79685 5.39966 6.2998C5.39975 5.80283 5.80306 5.4004 6.30005 5.40039H7.20044ZM10.8 2.7002C10.8002 4.19126 12.0091 5.40039 13.5002 5.40039H14.0276L10.8 2.17285V2.7002Z" fill="#17325E"/>
</svg>
