<svg width="10" height="10" viewBox="0 0 10 10" fill="none" xmlns="http://www.w3.org/2000/svg">
<path d="M4.16674 7.25016C4.16674 6.92793 4.42762 6.66675 4.74983 6.66667C5.07207 6.66667 5.33333 6.92801 5.33333 7.25016C5.33331 7.30686 5.32552 7.36065 5.31095 7.4113L5.31054 7.4117C5.24057 7.65537 5.01508 7.83325 4.74983 7.83325C4.48459 7.83318 4.25986 7.65591 4.18953 7.41252C4.17478 7.36143 4.16676 7.30716 4.16674 7.25016ZM3.33341 7.25016C3.33342 7.38616 3.35255 7.51822 3.38875 7.64364C3.55929 8.23423 4.10358 8.66651 4.74983 8.66658C5.35581 8.66658 5.87325 8.28589 6.07552 7.75065L6.11173 7.6416C6.1477 7.51655 6.16665 7.38528 6.16666 7.25016C6.16666 6.46787 5.5324 5.83333 4.74983 5.83333C3.96738 5.83342 3.33341 6.46769 3.33341 7.25016Z" fill="#1C6E29"/>
<path d="M1.32936 2.08333L1.28663 2.08537C1.07659 2.10677 0.91269 2.28431 0.91269 2.5C0.91269 2.71569 1.07659 2.89323 1.28663 2.91463L1.32936 2.91667H1.64226C1.71957 2.91667 1.80602 2.92539 1.87949 2.94515C1.91537 2.95481 1.94266 2.96568 1.96168 2.97567C1.97968 2.98512 1.98609 2.99154 1.98609 2.99154C1.99645 3.00271 2.00753 3.0133 2.01905 3.02327L2.85808 3.75H0.496023L0.453298 3.75203C0.24326 3.77344 0.079356 3.95098 0.079356 4.16667C0.079356 4.38235 0.24326 4.5599 0.453298 4.5813L0.496023 4.58333H3.63608C3.91161 4.58324 4.07851 4.38567 4.13575 4.21916C4.19323 4.05192 4.17774 3.82785 4.01938 3.65682L3.98642 3.62467L2.57081 2.39909C2.42482 2.25488 2.24385 2.18043 2.09636 2.14071C1.93489 2.09722 1.77239 2.08334 1.64226 2.08333H1.32936Z" fill="#1C6E29"/>
<path d="M1.25015 6.66667C1.02003 6.66667 0.833486 6.85321 0.833486 7.08333C0.833486 7.31345 1.02003 7.5 1.25015 7.5H3.58332C3.81344 7.5 3.99999 7.31345 3.99999 7.08333C3.99999 6.85321 3.81344 6.66667 3.58332 6.66667H1.25015Z" fill="#1C6E29"/>
<path d="M2.58586 0.833333C2.35574 0.833333 2.16919 1.01988 2.16919 1.25C2.16919 1.48012 2.35574 1.66667 2.58586 1.66667C2.66724 1.66667 2.70037 1.6745 2.70955 1.67725C2.71111 1.6777 2.70846 1.6757 2.71322 1.67969C2.72919 1.69307 2.74677 1.71196 2.80273 1.77368C2.85301 1.82913 2.9206 1.9028 3.0127 1.98568L4.82747 3.61816C4.93616 3.71573 5.0672 3.78541 5.20833 3.82121L5.26937 3.83464C6.18608 4.00076 6.67108 4.3351 6.93156 4.62565C7.19491 4.91943 7.26081 5.2047 7.27742 5.32104C7.29927 5.4735 7.36959 5.61702 7.48047 5.73039C7.51164 5.91907 7.50208 6.0671 7.4764 6.18205L7.45239 6.26139C7.39308 6.41633 7.26741 6.54622 7.10042 6.61784L7.01375 6.64876L6.94824 6.66219C6.92475 6.66526 6.89952 6.66667 6.87297 6.66667H5.9436L5.90129 6.6687C5.69112 6.68999 5.52694 6.86756 5.52694 7.08333C5.52694 7.29911 5.69112 7.47668 5.90129 7.49797L5.9436 7.5H6.87297C6.99227 7.5 7.11777 7.48552 7.24243 7.44995C7.71706 7.31457 8.11544 6.95419 8.26335 6.46403L8.28979 6.36434C8.34295 6.12664 8.35041 5.85623 8.29508 5.55298C8.26844 5.40848 8.1992 5.27522 8.09692 5.17008C8.05774 4.92992 7.93536 4.49699 7.55208 4.06942C7.14763 3.61826 6.48458 3.20801 5.41829 3.01473L5.39917 3.00822C5.39354 3.00546 5.38864 3.00214 5.38452 2.99845L3.57015 1.36597C3.51031 1.31211 3.46534 1.2642 3.42 1.21419C3.38036 1.17047 3.31858 1.09973 3.24829 1.04085C3.06304 0.885726 2.85529 0.833349 2.58586 0.833333Z" fill="#1C6E29"/>
<path d="M6.03516 3.75C5.75817 3.75 5.56948 3.93132 5.48503 4.10685C5.4001 4.28344 5.38748 4.5076 5.48543 4.71029L5.56274 4.8702C5.75919 5.27729 6.11711 5.58844 6.56128 5.66935L7.42554 5.82642C7.65188 5.86755 7.86853 5.71748 7.90975 5.49113C7.95088 5.26479 7.80081 5.04813 7.57446 5.00692L6.71061 4.84945C6.5876 4.82704 6.4536 4.74179 6.35498 4.58333H6.90348C7.13353 4.58325 7.32015 4.39673 7.32015 4.16667C7.32015 3.9366 7.13353 3.75009 6.90348 3.75H6.03516Z" fill="#1C6E29"/>
<path d="M9.16667 5C9.16667 2.69881 7.30119 0.833333 5 0.833333C2.69881 0.833333 0.833333 2.69881 0.833333 5C0.833333 7.30119 2.69881 9.16667 5 9.16667V10C2.23858 10 0 7.76142 0 5C0 2.23858 2.23858 0 5 0C7.76142 0 10 2.23858 10 5C10 7.76142 7.76142 10 5 10V9.16667C7.30119 9.16667 9.16667 7.30119 9.16667 5Z" fill="#1C6E29"/>
</svg>
