<svg width="10" height="10" viewBox="0 0 10 10" fill="none" xmlns="http://www.w3.org/2000/svg">
<path d="M5 0C7.76142 0 10 2.23858 10 5C10 7.76142 7.76142 10 5 10C2.23858 10 0 7.76142 0 5C0 2.23858 2.23858 0 5 0ZM5 1C2.79086 1 1 2.79086 1 5C1 7.20914 2.79086 9 5 9C7.20914 9 9 7.20914 9 5C9 2.79086 7.20914 1 5 1ZM6.61621 3.17969C6.79304 2.96782 7.10827 2.93951 7.32031 3.11621C7.5322 3.29304 7.56049 3.60827 7.38379 3.82031L4.88379 6.82031C4.79651 6.92489 4.67008 6.98961 4.53418 6.99902C4.39842 7.00832 4.26482 6.96158 4.16406 6.87012L2.66406 5.50586C2.45976 5.3201 2.44414 5.00412 2.62988 4.7998C2.81561 4.59557 3.13162 4.58098 3.33594 4.7666L4.4502 5.7793L6.61621 3.17969Z" fill="#17325E"/>
</svg>
