<svg width="10" height="10" viewBox="0 0 10 10" fill="none" xmlns="http://www.w3.org/2000/svg">
<g clip-path="url(#clip0_19172_20489)">
<path d="M5 0C7.76142 0 10 2.23858 10 5C10 7.76142 7.76142 10 5 10C2.23858 10 0 7.76142 0 5C0 2.23858 2.23858 0 5 0ZM5 1C2.79086 1 1 2.79086 1 5C1 7.20914 2.79086 9 5 9C7.20914 9 9 7.20914 9 5C9 2.79086 7.20914 1 5 1ZM5.00488 6.5C5.28103 6.5 5.50488 6.72386 5.50488 7C5.50488 7.27614 5.28103 7.5 5.00488 7.5H5C4.72386 7.5 4.5 7.27614 4.5 7C4.5 6.72386 4.72386 6.5 5 6.5H5.00488ZM5 2.5C5.27614 2.5 5.5 2.72386 5.5 3V5C5.5 5.27614 5.27614 5.5 5 5.5C4.72386 5.5 4.5 5.27614 4.5 5V3C4.5 2.72386 4.72386 2.5 5 2.5Z" fill="#A35C0A"/>
</g>
<defs>
<clipPath id="clip0_19172_20489">
<rect width="10" height="10" fill="white"/>
</clipPath>
</defs>
</svg>
