<svg width="10" height="10" viewBox="0 0 10 10" fill="none" xmlns="http://www.w3.org/2000/svg">
<path d="M5 0C7.76142 0 10 2.23858 10 5C10 7.76142 7.76142 10 5 10C2.23858 10 0 7.76142 0 5C0 2.23858 2.23858 0 5 0ZM5 1C2.79086 1 1 2.79086 1 5C1 7.20914 2.79086 9 5 9C7.20914 9 9 7.20914 9 5C9 2.79086 7.20914 1 5 1ZM3.5 4.13379C3.50013 3.36415 4.33341 2.88288 5 3.26758L6.5 4.13379C7.16667 4.51869 7.16667 5.48131 6.5 5.86621L5 6.73242C4.33342 7.11712 3.50014 6.63584 3.5 5.86621V4.13379ZM4.5 5.86621L6 5L4.5 4.13379V5.86621Z" fill="#1C6E29"/>
</svg>
