<svg width="10" height="10" viewBox="0 0 10 10" fill="none" xmlns="http://www.w3.org/2000/svg">
<path d="M5 0C6.38057 0 7.63088 0.560569 8.53516 1.46484C9.43943 2.36912 10 3.61943 10 5C10 6.38057 9.43943 7.63088 8.53516 8.53516C7.63088 9.43943 6.38057 10 5 10C3.61943 10 2.36912 9.43943 1.46484 8.53516C0.560569 7.63088 0 6.38057 0 5C0 3.61943 0.560569 2.36912 1.46484 1.46484C2.36912 0.560569 3.61943 0 5 0ZM5 1C3.89529 1 2.89628 1.44747 2.17188 2.17188C1.44747 2.89628 1 3.89529 1 5C1 6.10471 1.44747 7.10372 2.17188 7.82812C2.89628 8.55253 3.89529 9 5 9C6.10471 9 7.10372 8.55253 7.82812 7.82812C8.55253 7.10372 9 6.10471 9 5C9 3.89529 8.55253 2.89628 7.82812 2.17188C7.10372 1.44747 6.10471 1 5 1ZM5 2.5C5.23012 2.5 5.41699 2.71786 5.41699 2.98633V4.69043C5.43583 4.70471 5.45547 4.71914 5.47266 4.73633L6.51367 5.77734C6.71707 5.98074 6.71707 6.31027 6.51367 6.51367C6.31027 6.71707 5.98074 6.71707 5.77734 6.51367L4.73633 5.47266C4.61325 5.34958 4.56494 5.18013 4.59082 5.02051C4.58614 4.99137 4.58301 4.96138 4.58301 4.93066V2.98633C4.58301 2.71786 4.76988 2.5 5 2.5Z" fill="#A35C0A"/>
</svg>
